0
SECTION
2
HEADER
9
$INSUNITS
70
4
9
$INSBASE
10
0.0
20
0.0
30
0.0
9
$EXTMIN
10
0
20
0
9
$EXTMAX
10
450.125
20
107.22500000000001
0
ENDSEC
0
SECTION
2
TABLES
0
TABLE
2
LTYPE
70
1
0
LTYPE
2
CONTINUOUS
70
64
3
Solid line
72
65
73
0
40
0.0
0
ENDTAB
0
TABLE
2
LAYER
70
1
0
LAYER
2
Layer1
70
64
62
7
6
CONTINUOUS
0
ENDTAB
0
TABLE
2
STYLE
70
0
0
ENDTAB
0
TABLE
2
VIEW
70
0
0
ENDTAB
0
ENDSEC
0
SECTION
2
BLOCKS
0
ENDSEC
0
SECTION
2
ENTITIES
0
POLYLINE
5
10
8
Layer1
66
1
10
0.0
20
0.0
30
0.0
70
1
0
VERTEX
5
11
8
Layer1
10
0.0000
20
0.0000
30
0.0
0
VERTEX
5
12
8
Layer1
10
450.1250
20
0.0000
30
0.0
0
VERTEX
5
13
8
Layer1
10
450.1250
20
107.2250
30
0.0
0
VERTEX
5
14
8
Layer1
10
0.0000
20
107.2250
30
0.0
0
VERTEX
5
15
8
Layer1
10
0.0000
20
0.0000
30
0.0
0
SEQEND
5
16
8
Layer1
0
POLYLINE
5
17
8
Layer1
66
1
10
0.0
20
0.0
30
0.0
70
1
0
VERTEX
5
18
8
Layer1
10
22.5250
20
85.7000
30
0.0
0
VERTEX
5
19
8
Layer1
10
23.3250
20
85.7000
30
0.0
0
VERTEX
5
1a
8
Layer1
10
23.3250
20
89.2000
30
0.0
0
VERTEX
5
1b
8
Layer1
10
22.5250
20
89.2000
30
0.0
0
VERTEX
5
1c
8
Layer1
10
22.5250
20
94.2000
30
0.0
0
VERTEX
5
1d
8
Layer1
10
23.3250
20
94.2000
30
0.0
0
VERTEX
5
1e
8
Layer1
10
23.3250
20
97.7000
30
0.0
0
VERTEX
5
1f
8
Layer1
10
22.5250
20
97.7000
30
0.0
0
VERTEX
5
20
8
Layer1
10
22.5250
20
98.7000
30
0.0
0
VERTEX
5
21
8
Layer1
10
8.5250
20
98.7000
30
0.0
0
VERTEX
5
22
8
Layer1
10
8.5250
20
97.7000
30
0.0
0
VERTEX
5
23
8
Layer1
10
7.7250
20
97.7000
30
0.0
0
VERTEX
5
24
8
Layer1
10
7.7250
20
94.2000
30
0.0
0
VERTEX
5
25
8
Layer1
10
8.5250
20
94.2000
30
0.0
0
VERTEX
5
26
8
Layer1
10
8.5250
20
89.2000
30
0.0
0
VERTEX
5
27
8
Layer1
10
7.7250
20
89.2000
30
0.0
0
VERTEX
5
28
8
Layer1
10
7.7250
20
85.7000
30
0.0
0
VERTEX
5
29
8
Layer1
10
8.5250
20
85.7000
30
0.0
0
VERTEX
5
2a
8
Layer1
10
8.5250
20
84.7000
30
0.0
0
VERTEX
5
2b
8
Layer1
10
22.5250
20
84.7000
30
0.0
0
VERTEX
5
2c
8
Layer1
10
22.5250
20
85.7000
30
0.0
0
SEQEND
5
2d
8
Layer1
0
POLYLINE
5
2e
8
Layer1
66
1
10
0.0
20
0.0
30
0.0
70
1
0
VERTEX
5
2f
8
Layer1
10
41.5750
20
85.7000
30
0.0
0
VERTEX
5
30
8
Layer1
10
42.3750
20
85.7000
30
0.0
0
VERTEX
5
31
8
Layer1
10
42.3750
20
89.2000
30
0.0
0
VERTEX
5
32
8
Layer1
10
41.5750
20
89.2000
30
0.0
0
VERTEX
5
33
8
Layer1
10
41.5750
20
94.2000
30
0.0
0
VERTEX
5
34
8
Layer1
10
42.3750
20
94.2000
30
0.0
0
VERTEX
5
35
8
Layer1
10
42.3750
20
97.7000
30
0.0
0
VERTEX
5
36
8
Layer1
10
41.5750
20
97.7000
30
0.0
0
VERTEX
5
37
8
Layer1
10
41.5750
20
98.7000
30
0.0
0
VERTEX
5
38
8
Layer1
10
27.5750
20
98.7000
30
0.0
0
VERTEX
5
39
8
Layer1
10
27.5750
20
97.7000
30
0.0
0
VERTEX
5
3a
8
Layer1
10
26.7750
20
97.7000
30
0.0
0
VERTEX
5
3b
8
Layer1
10
26.7750
20
94.2000
30
0.0
0
VERTEX
5
3c
8
Layer1
10
27.5750
20
94.2000
30
0.0
0
VERTEX
5
3d
8
Layer1
10
27.5750
20
89.2000
30
0.0
0
VERTEX
5
3e
8
Layer1
10
26.7750
20
89.2000
30
0.0
0
VERTEX
5
3f
8
Layer1
10
26.7750
20
85.7000
30
0.0
0
VERTEX
5
40
8
Layer1
10
27.5750
20
85.7000
30
0.0
0
VERTEX
5
41
8
Layer1
10
27.5750
20
84.7000
30
0.0
0
VERTEX
5
42
8
Layer1
10
41.5750
20
84.7000
30
0.0
0
VERTEX
5
43
8
Layer1
10
41.5750
20
85.7000
30
0.0
0
SEQEND
5
44
8
Layer1
0
POLYLINE
5
45
8
Layer1
66
1
10
0.0
20
0.0
30
0.0
70
1
0
VERTEX
5
46
8
Layer1
10
60.6250
20
85.7000
30
0.0
0
VERTEX
5
47
8
Layer1
10
61.4250
20
85.7000
30
0.0
0
VERTEX
5
48
8
Layer1
10
61.4250
20
89.2000
30
0.0
0
VERTEX
5
49
8
Layer1
10
60.6250
20
89.2000
30
0.0
0
VERTEX
5
4a
8
Layer1
10
60.6250
20
94.2000
30
0.0
0
VERTEX
5
4b
8
Layer1
10
61.4250
20
94.2000
30
0.0
0
VERTEX
5
4c
8
Layer1
10
61.4250
20
97.7000
30
0.0
0
VERTEX
5
4d
8
Layer1
10
60.6250
20
97.7000
30
0.0
0
VERTEX
5
4e
8
Layer1
10
60.6250
20
98.7000
30
0.0
0
VERTEX
5
4f
8
Layer1
10
46.6250
20
98.7000
30
0.0
0
VERTEX
5
50
8
Layer1
10
46.6250
20
97.7000
30
0.0
0
VERTEX
5
51
8
Layer1
10
45.8250
20
97.7000
30
0.0
0
VERTEX
5
52
8
Layer1
10
45.8250
20
94.2000
30
0.0
0
VERTEX
5
53
8
Layer1
10
46.6250
20
94.2000
30
0.0
0
VERTEX
5
54
8
Layer1
10
46.6250
20
89.2000
30
0.0
0
VERTEX
5
55
8
Layer1
10
45.8250
20
89.2000
30
0.0
0
VERTEX
5
56
8
Layer1
10
45.8250
20
85.7000
30
0.0
0
VERTEX
5
57
8
Layer1
10
46.6250
20
85.7000
30
0.0
0
VERTEX
5
58
8
Layer1
10
46.6250
20
84.7000
30
0.0
0
VERTEX
5
59
8
Layer1
10
60.6250
20
84.7000
30
0.0
0
VERTEX
5
5a
8
Layer1
10
60.6250
20
85.7000
30
0.0
0
SEQEND
5
5b
8
Layer1
0
POLYLINE
5
5c
8
Layer1
66
1
10
0.0
20
0.0
30
0.0
70
1
0
VERTEX
5
5d
8
Layer1
10
89.2000
20
85.7000
30
0.0
0
VERTEX
5
5e
8
Layer1
10
90.0000
20
85.7000
30
0.0
0
VERTEX
5
5f
8
Layer1
10
90.0000
20
89.2000
30
0.0
0
VERTEX
5
60
8
Layer1
10
89.2000
20
89.2000
30
0.0
0
VERTEX
5
61
8
Layer1
10
89.2000
20
94.2000
30
0.0
0
VERTEX
5
62
8
Layer1
10
90.0000
20
94.2000
30
0.0
0
VERTEX
5
63
8
Layer1
10
90.0000
20
97.7000
30
0.0
0
VERTEX
5
64
8
Layer1
10
89.2000
20
97.7000
30
0.0
0
VERTEX
5
65
8
Layer1
10
89.2000
20
98.7000
30
0.0
0
VERTEX
5
66
8
Layer1
10
75.2000
20
98.7000
30
0.0
0
VERTEX
5
67
8
Layer1
10
75.2000
20
97.7000
30
0.0
0
VERTEX
5
68
8
Layer1
10
74.4000
20
97.7000
30
0.0
0
VERTEX
5
69
8
Layer1
10
74.4000
20
94.2000
30
0.0
0
VERTEX
5
6a
8
Layer1
10
75.2000
20
94.2000
30
0.0
0
VERTEX
5
6b
8
Layer1
10
75.2000
20
89.2000
30
0.0
0
VERTEX
5
6c
8
Layer1
10
74.4000
20
89.2000
30
0.0
0
VERTEX
5
6d
8
Layer1
10
74.4000
20
85.7000
30
0.0
0
VERTEX
5
6e
8
Layer1
10
75.2000
20
85.7000
30
0.0
0
VERTEX
5
6f
8
Layer1
10
75.2000
20
84.7000
30
0.0
0
VERTEX
5
70
8
Layer1
10
89.2000
20
84.7000
30
0.0
0
VERTEX
5
71
8
Layer1
10
89.2000
20
85.7000
30
0.0
0
SEQEND
5
72
8
Layer1
0
POLYLINE
5
73
8
Layer1
66
1
10
0.0
20
0.0
30
0.0
70
1
0
VERTEX
5
74
8
Layer1
10
108.2500
20
85.7000
30
0.0
0
VERTEX
5
75
8
Layer1
10
109.0500
20
85.7000
30
0.0
0
VERTEX
5
76
8
Layer1
10
109.0500
20
89.2000
30
0.0
0
VERTEX
5
77
8
Layer1
10
108.2500
20
89.2000
30
0.0
0
VERTEX
5
78
8
Layer1
10
108.2500
20
94.2000
30
0.0
0
VERTEX
5
79
8
Layer1
10
109.0500
20
94.2000
30
0.0
0
VERTEX
5
7a
8
Layer1
10
109.0500
20
97.7000
30
0.0
0
VERTEX
5
7b
8
Layer1
10
108.2500
20
97.7000
30
0.0
0
VERTEX
5
7c
8
Layer1
10
108.2500
20
98.7000
30
0.0
0
VERTEX
5
7d
8
Layer1
10
94.2500
20
98.7000
30
0.0
0
VERTEX
5
7e
8
Layer1
10
94.2500
20
97.7000
30
0.0
0
VERTEX
5
7f
8
Layer1
10
93.4500
20
97.7000
30
0.0
0
VERTEX
5
80
8
Layer1
10
93.4500
20
94.2000
30
0.0
0
VERTEX
5
81
8
Layer1
10
94.2500
20
94.2000
30
0.0
0
VERTEX
5
82
8
Layer1
10
94.2500
20
89.2000
30
0.0
0
VERTEX
5
83
8
Layer1
10
93.4500
20
89.2000
30
0.0
0
VERTEX
5
84
8
Layer1
10
93.4500
20
85.7000
30
0.0
0
VERTEX
5
85
8
Layer1
10
94.2500
20
85.7000
30
0.0
0
VERTEX
5
86
8
Layer1
10
94.2500
20
84.7000
30
0.0
0
VERTEX
5
87
8
Layer1
10
108.2500
20
84.7000
30
0.0
0
VERTEX
5
88
8
Layer1
10
108.2500
20
85.7000
30
0.0
0
SEQEND
5
89
8
Layer1
0
POLYLINE
5
8a
8
Layer1
66
1
10
0.0
20
0.0
30
0.0
70
1
0
VERTEX
5
8b
8
Layer1
10
127.3000
20
85.7000
30
0.0
0
VERTEX
5
8c
8
Layer1
10
128.1000
20
85.7000
30
0.0
0
VERTEX
5
8d
8
Layer1
10
128.1000
20
89.2000
30
0.0
0
VERTEX
5
8e
8
Layer1
10
127.3000
20
89.2000
30
0.0
0
VERTEX
5
8f
8
Layer1
10
127.3000
20
94.2000
30
0.0
0
VERTEX
5
90
8
Layer1
10
128.1000
20
94.2000
30
0.0
0
VERTEX
5
91
8
Layer1
10
128.1000
20
97.7000
30
0.0
0
VERTEX
5
92
8
Layer1
10
127.3000
20
97.7000
30
0.0
0
VERTEX
5
93
8
Layer1
10
127.3000
20
98.7000
30
0.0
0
VERTEX
5
94
8
Layer1
10
113.3000
20
98.7000
30
0.0
0
VERTEX
5
95
8
Layer1
10
113.3000
20
97.7000
30
0.0
0
VERTEX
5
96
8
Layer1
10
112.5000
20
97.7000
30
0.0
0
VERTEX
5
97
8
Layer1
10
112.5000
20
94.2000
30
0.0
0
VERTEX
5
98
8
Layer1
10
113.3000
20
94.2000
30
0.0
0
VERTEX
5
99
8
Layer1
10
113.3000
20
89.2000
30
0.0
0
VERTEX
5
9a
8
Layer1
10
112.5000
20
89.2000
30
0.0
0
VERTEX
5
9b
8
Layer1
10
112.5000
20
85.7000
30
0.0
0
VERTEX
5
9c
8
Layer1
10
113.3000
20
85.7000
30
0.0
0
VERTEX
5
9d
8
Layer1
10
113.3000
20
84.7000
30
0.0
0
VERTEX
5
9e
8
Layer1
10
127.3000
20
84.7000
30
0.0
0
VERTEX
5
9f
8
Layer1
10
127.3000
20
85.7000
30
0.0
0
SEQEND
5
a0
8
Layer1
0
POLYLINE
5
a1
8
Layer1
66
1
10
0.0
20
0.0
30
0.0
70
1
0
VERTEX
5
a2
8
Layer1
10
146.3500
20
85.7000
30
0.0
0
VERTEX
5
a3
8
Layer1
10
147.1500
20
85.7000
30
0.0
0
VERTEX
5
a4
8
Layer1
10
147.1500
20
89.2000
30
0.0
0
VERTEX
5
a5
8
Layer1
10
146.3500
20
89.2000
30
0.0
0
VERTEX
5
a6
8
Layer1
10
146.3500
20
94.2000
30
0.0
0
VERTEX
5
a7
8
Layer1
10
147.1500
20
94.2000
30
0.0
0
VERTEX
5
a8
8
Layer1
10
147.1500
20
97.7000
30
0.0
0
VERTEX
5
a9
8
Layer1
10
146.3500
20
97.7000
30
0.0
0
VERTEX
5
aa
8
Layer1
10
146.3500
20
98.7000
30
0.0
0
VERTEX
5
ab
8
Layer1
10
132.3500
20
98.7000
30
0.0
0
VERTEX
5
ac
8
Layer1
10
132.3500
20
97.7000
30
0.0
0
VERTEX
5
ad
8
Layer1
10
131.5500
20
97.7000
30
0.0
0
VERTEX
5
ae
8
Layer1
10
131.5500
20
94.2000
30
0.0
0
VERTEX
5
af
8
Layer1
10
132.3500
20
94.2000
30
0.0
0
VERTEX
5
b0
8
Layer1
10
132.3500
20
89.2000
30
0.0
0
VERTEX
5
b1
8
Layer1
10
131.5500
20
89.2000
30
0.0
0
VERTEX
5
b2
8
Layer1
10
131.5500
20
85.7000
30
0.0
0
VERTEX
5
b3
8
Layer1
10
132.3500
20
85.7000
30
0.0
0
VERTEX
5
b4
8
Layer1
10
132.3500
20
84.7000
30
0.0
0
VERTEX
5
b5
8
Layer1
10
146.3500
20
84.7000
30
0.0
0
VERTEX
5
b6
8
Layer1
10
146.3500
20
85.7000
30
0.0
0
SEQEND
5
b7
8
Layer1
0
POLYLINE
5
b8
8
Layer1
66
1
10
0.0
20
0.0
30
0.0
70
1
0
VERTEX
5
b9
8
Layer1
10
165.4000
20
85.7000
30
0.0
0
VERTEX
5
ba
8
Layer1
10
166.2000
20
85.7000
30
0.0
0
VERTEX
5
bb
8
Layer1
10
166.2000
20
89.2000
30
0.0
0
VERTEX
5
bc
8
Layer1
10
165.4000
20
89.2000
30
0.0
0
VERTEX
5
bd
8
Layer1
10
165.4000
20
94.2000
30
0.0
0
VERTEX
5
be
8
Layer1
10
166.2000
20
94.2000
30
0.0
0
VERTEX
5
bf
8
Layer1
10
166.2000
20
97.7000
30
0.0
0
VERTEX
5
c0
8
Layer1
10
165.4000
20
97.7000
30
0.0
0
VERTEX
5
c1
8
Layer1
10
165.4000
20
98.7000
30
0.0
0
VERTEX
5
c2
8
Layer1
10
151.4000
20
98.7000
30
0.0
0
VERTEX
5
c3
8
Layer1
10
151.4000
20
97.7000
30
0.0
0
VERTEX
5
c4
8
Layer1
10
150.6000
20
97.7000
30
0.0
0
VERTEX
5
c5
8
Layer1
10
150.6000
20
94.2000
30
0.0
0
VERTEX
5
c6
8
Layer1
10
151.4000
20
94.2000
30
0.0
0
VERTEX
5
c7
8
Layer1
10
151.4000
20
89.2000
30
0.0
0
VERTEX
5
c8
8
Layer1
10
150.6000
20
89.2000
30
0.0
0
VERTEX
5
c9
8
Layer1
10
150.6000
20
85.7000
30
0.0
0
VERTEX
5
ca
8
Layer1
10
151.4000
20
85.7000
30
0.0
0
VERTEX
5
cb
8
Layer1
10
151.4000
20
84.7000
30
0.0
0
VERTEX
5
cc
8
Layer1
10
165.4000
20
84.7000
30
0.0
0
VERTEX
5
cd
8
Layer1
10
165.4000
20
85.7000
30
0.0
0
SEQEND
5
ce
8
Layer1
0
POLYLINE
5
cf
8
Layer1
66
1
10
0.0
20
0.0
30
0.0
70
1
0
VERTEX
5
d0
8
Layer1
10
184.4500
20
85.7000
30
0.0
0
VERTEX
5
d1
8
Layer1
10
185.2500
20
85.7000
30
0.0
0
VERTEX
5
d2
8
Layer1
10
185.2500
20
89.2000
30
0.0
0
VERTEX
5
d3
8
Layer1
10
184.4500
20
89.2000
30
0.0
0
VERTEX
5
d4
8
Layer1
10
184.4500
20
94.2000
30
0.0
0
VERTEX
5
d5
8
Layer1
10
185.2500
20
94.2000
30
0.0
0
VERTEX
5
d6
8
Layer1
10
185.2500
20
97.7000
30
0.0
0
VERTEX
5
d7
8
Layer1
10
184.4500
20
97.7000
30
0.0
0
VERTEX
5
d8
8
Layer1
10
184.4500
20
98.7000
30
0.0
0
VERTEX
5
d9
8
Layer1
10
170.4500
20
98.7000
30
0.0
0
VERTEX
5
da
8
Layer1
10
170.4500
20
97.7000
30
0.0
0
VERTEX
5
db
8
Layer1
10
169.6500
20
97.7000
30
0.0
0
VERTEX
5
dc
8
Layer1
10
169.6500
20
94.2000
30
0.0
0
VERTEX
5
dd
8
Layer1
10
170.4500
20
94.2000
30
0.0
0
VERTEX
5
de
8
Layer1
10
170.4500
20
89.2000
30
0.0
0
VERTEX
5
df
8
Layer1
10
169.6500
20
89.2000
30
0.0
0
VERTEX
5
e0
8
Layer1
10
169.6500
20
85.7000
30
0.0
0
VERTEX
5
e1
8
Layer1
10
170.4500
20
85.7000
30
0.0
0
VERTEX
5
e2
8
Layer1
10
170.4500
20
84.7000
30
0.0
0
VERTEX
5
e3
8
Layer1
10
184.4500
20
84.7000
30
0.0
0
VERTEX
5
e4
8
Layer1
10
184.4500
20
85.7000
30
0.0
0
SEQEND
5
e5
8
Layer1
0
POLYLINE
5
e6
8
Layer1
66
1
10
0.0
20
0.0
30
0.0
70
1
0
VERTEX
5
e7
8
Layer1
10
203.5000
20
85.7000
30
0.0
0
VERTEX
5
e8
8
Layer1
10
204.3000
20
85.7000
30
0.0
0
VERTEX
5
e9
8
Layer1
10
204.3000
20
89.2000
30
0.0
0
VERTEX
5
ea
8
Layer1
10
203.5000
20
89.2000
30
0.0
0
VERTEX
5
eb
8
Layer1
10
203.5000
20
94.2000
30
0.0
0
VERTEX
5
ec
8
Layer1
10
204.3000
20
94.2000
30
0.0
0
VERTEX
5
ed
8
Layer1
10
204.3000
20
97.7000
30
0.0
0
VERTEX
5
ee
8
Layer1
10
203.5000
20
97.7000
30
0.0
0
VERTEX
5
ef
8
Layer1
10
203.5000
20
98.7000
30
0.0
0
VERTEX
5
f0
8
Layer1
10
189.5000
20
98.7000
30
0.0
0
VERTEX
5
f1
8
Layer1
10
189.5000
20
97.7000
30
0.0
0
VERTEX
5
f2
8
Layer1
10
188.7000
20
97.7000
30
0.0
0
VERTEX
5
f3
8
Layer1
10
188.7000
20
94.2000
30
0.0
0
VERTEX
5
f4
8
Layer1
10
189.5000
20
94.2000
30
0.0
0
VERTEX
5
f5
8
Layer1
10
189.5000
20
89.2000
30
0.0
0
VERTEX
5
f6
8
Layer1
10
188.7000
20
89.2000
30
0.0
0
VERTEX
5
f7
8
Layer1
10
188.7000
20
85.7000
30
0.0
0
VERTEX
5
f8
8
Layer1
10
189.5000
20
85.7000
30
0.0
0
VERTEX
5
f9
8
Layer1
10
189.5000
20
84.7000
30
0.0
0
VERTEX
5
fa
8
Layer1
10
203.5000
20
84.7000
30
0.0
0
VERTEX
5
fb
8
Layer1
10
203.5000
20
85.7000
30
0.0
0
SEQEND
5
fc
8
Layer1
0
POLYLINE
5
fd
8
Layer1
66
1
10
0.0
20
0.0
30
0.0
70
1
0
VERTEX
5
fe
8
Layer1
10
222.5500
20
85.7000
30
0.0
0
VERTEX
5
ff
8
Layer1
10
223.3500
20
85.7000
30
0.0
0
VERTEX
5
100
8
Layer1
10
223.3500
20
89.2000
30
0.0
0
VERTEX
5
101
8
Layer1
10
222.5500
20
89.2000
30
0.0
0
VERTEX
5
102
8
Layer1
10
222.5500
20
94.2000
30
0.0
0
VERTEX
5
103
8
Layer1
10
223.3500
20
94.2000
30
0.0
0
VERTEX
5
104
8
Layer1
10
223.3500
20
97.7000
30
0.0
0
VERTEX
5
105
8
Layer1
10
222.5500
20
97.7000
30
0.0
0
VERTEX
5
106
8
Layer1
10
222.5500
20
98.7000
30
0.0
0
VERTEX
5
107
8
Layer1
10
208.5500
20
98.7000
30
0.0
0
VERTEX
5
108
8
Layer1
10
208.5500
20
97.7000
30
0.0
0
VERTEX
5
109
8
Layer1
10
207.7500
20
97.7000
30
0.0
0
VERTEX
5
10a
8
Layer1
10
207.7500
20
94.2000
30
0.0
0
VERTEX
5
10b
8
Layer1
10
208.5500
20
94.2000
30
0.0
0
VERTEX
5
10c
8
Layer1
10
208.5500
20
89.2000
30
0.0
0
VERTEX
5
10d
8
Layer1
10
207.7500
20
89.2000
30
0.0
0
VERTEX
5
10e
8
Layer1
10
207.7500
20
85.7000
30
0.0
0
VERTEX
5
10f
8
Layer1
10
208.5500
20
85.7000
30
0.0
0
VERTEX
5
110
8
Layer1
10
208.5500
20
84.7000
30
0.0
0
VERTEX
5
111
8
Layer1
10
222.5500
20
84.7000
30
0.0
0
VERTEX
5
112
8
Layer1
10
222.5500
20
85.7000
30
0.0
0
SEQEND
5
113
8
Layer1
0
POLYLINE
5
114
8
Layer1
66
1
10
0.0
20
0.0
30
0.0
70
1
0
VERTEX
5
115
8
Layer1
10
241.6000
20
85.7000
30
0.0
0
VERTEX
5
116
8
Layer1
10
242.4000
20
85.7000
30
0.0
0
VERTEX
5
117
8
Layer1
10
242.4000
20
89.2000
30
0.0
0
VERTEX
5
118
8
Layer1
10
241.6000
20
89.2000
30
0.0
0
VERTEX
5
119
8
Layer1
10
241.6000
20
94.2000
30
0.0
0
VERTEX
5
11a
8
Layer1
10
242.4000
20
94.2000
30
0.0
0
VERTEX
5
11b
8
Layer1
10
242.4000
20
97.7000
30
0.0
0
VERTEX
5
11c
8
Layer1
10
241.6000
20
97.7000
30
0.0
0
VERTEX
5
11d
8
Layer1
10
241.6000
20
98.7000
30
0.0
0
VERTEX
5
11e
8
Layer1
10
227.6000
20
98.7000
30
0.0
0
VERTEX
5
11f
8
Layer1
10
227.6000
20
97.7000
30
0.0
0
VERTEX
5
120
8
Layer1
10
226.8000
20
97.7000
30
0.0
0
VERTEX
5
121
8
Layer1
10
226.8000
20
94.2000
30
0.0
0
VERTEX
5
122
8
Layer1
10
227.6000
20
94.2000
30
0.0
0
VERTEX
5
123
8
Layer1
10
227.6000
20
89.2000
30
0.0
0
VERTEX
5
124
8
Layer1
10
226.8000
20
89.2000
30
0.0
0
VERTEX
5
125
8
Layer1
10
226.8000
20
85.7000
30
0.0
0
VERTEX
5
126
8
Layer1
10
227.6000
20
85.7000
30
0.0
0
VERTEX
5
127
8
Layer1
10
227.6000
20
84.7000
30
0.0
0
VERTEX
5
128
8
Layer1
10
241.6000
20
84.7000
30
0.0
0
VERTEX
5
129
8
Layer1
10
241.6000
20
85.7000
30
0.0
0
SEQEND
5
12a
8
Layer1
0
POLYLINE
5
12b
8
Layer1
66
1
10
0.0
20
0.0
30
0.0
70
1
0
VERTEX
5
12c
8
Layer1
10
260.6500
20
85.7000
30
0.0
0
VERTEX
5
12d
8
Layer1
10
261.4500
20
85.7000
30
0.0
0
VERTEX
5
12e
8
Layer1
10
261.4500
20
89.2000
30
0.0
0
VERTEX
5
12f
8
Layer1
10
260.6500
20
89.2000
30
0.0
0
VERTEX
5
130
8
Layer1
10
260.6500
20
94.2000
30
0.0
0
VERTEX
5
131
8
Layer1
10
261.4500
20
94.2000
30
0.0
0
VERTEX
5
132
8
Layer1
10
261.4500
20
97.7000
30
0.0
0
VERTEX
5
133
8
Layer1
10
260.6500
20
97.7000
30
0.0
0
VERTEX
5
134
8
Layer1
10
260.6500
20
98.7000
30
0.0
0
VERTEX
5
135
8
Layer1
10
246.6500
20
98.7000
30
0.0
0
VERTEX
5
136
8
Layer1
10
246.6500
20
97.7000
30
0.0
0
VERTEX
5
137
8
Layer1
10
245.8500
20
97.7000
30
0.0
0
VERTEX
5
138
8
Layer1
10
245.8500
20
94.2000
30
0.0
0
VERTEX
5
139
8
Layer1
10
246.6500
20
94.2000
30
0.0
0
VERTEX
5
13a
8
Layer1
10
246.6500
20
89.2000
30
0.0
0
VERTEX
5
13b
8
Layer1
10
245.8500
20
89.2000
30
0.0
0
VERTEX
5
13c
8
Layer1
10
245.8500
20
85.7000
30
0.0
0
VERTEX
5
13d
8
Layer1
10
246.6500
20
85.7000
30
0.0
0
VERTEX
5
13e
8
Layer1
10
246.6500
20
84.7000
30
0.0
0
VERTEX
5
13f
8
Layer1
10
260.6500
20
84.7000
30
0.0
0
VERTEX
5
140
8
Layer1
10
260.6500
20
85.7000
30
0.0
0
SEQEND
5
141
8
Layer1
0
POLYLINE
5
142
8
Layer1
66
1
10
0.0
20
0.0
30
0.0
70
1
0
VERTEX
5
143
8
Layer1
10
279.7000
20
85.7000
30
0.0
0
VERTEX
5
144
8
Layer1
10
280.5000
20
85.7000
30
0.0
0
VERTEX
5
145
8
Layer1
10
280.5000
20
89.2000
30
0.0
0
VERTEX
5
146
8
Layer1
10
279.7000
20
89.2000
30
0.0
0
VERTEX
5
147
8
Layer1
10
279.7000
20
94.2000
30
0.0
0
VERTEX
5
148
8
Layer1
10
280.5000
20
94.2000
30
0.0
0
VERTEX
5
149
8
Layer1
10
280.5000
20
97.7000
30
0.0
0
VERTEX
5
14a
8
Layer1
10
279.7000
20
97.7000
30
0.0
0
VERTEX
5
14b
8
Layer1
10
279.7000
20
98.7000
30
0.0
0
VERTEX
5
14c
8
Layer1
10
265.7000
20
98.7000
30
0.0
0
VERTEX
5
14d
8
Layer1
10
265.7000
20
97.7000
30
0.0
0
VERTEX
5
14e
8
Layer1
10
264.9000
20
97.7000
30
0.0
0
VERTEX
5
14f
8
Layer1
10
264.9000
20
94.2000
30
0.0
0
VERTEX
5
150
8
Layer1
10
265.7000
20
94.2000
30
0.0
0
VERTEX
5
151
8
Layer1
10
265.7000
20
89.2000
30
0.0
0
VERTEX
5
152
8
Layer1
10
264.9000
20
89.2000
30
0.0
0
VERTEX
5
153
8
Layer1
10
264.9000
20
85.7000
30
0.0
0
VERTEX
5
154
8
Layer1
10
265.7000
20
85.7000
30
0.0
0
VERTEX
5
155
8
Layer1
10
265.7000
20
84.7000
30
0.0
0
VERTEX
5
156
8
Layer1
10
279.7000
20
84.7000
30
0.0
0
VERTEX
5
157
8
Layer1
10
279.7000
20
85.7000
30
0.0
0
SEQEND
5
158
8
Layer1
0
POLYLINE
5
159
8
Layer1
66
1
10
0.0
20
0.0
30
0.0
70
1
0
VERTEX
5
15a
8
Layer1
10
298.7500
20
85.7000
30
0.0
0
VERTEX
5
15b
8
Layer1
10
299.5500
20
85.7000
30
0.0
0
VERTEX
5
15c
8
Layer1
10
299.5500
20
89.2000
30
0.0
0
VERTEX
5
15d
8
Layer1
10
298.7500
20
89.2000
30
0.0
0
VERTEX
5
15e
8
Layer1
10
298.7500
20
94.2000
30
0.0
0
VERTEX
5
15f
8
Layer1
10
299.5500
20
94.2000
30
0.0
0
VERTEX
5
160
8
Layer1
10
299.5500
20
97.7000
30
0.0
0
VERTEX
5
161
8
Layer1
10
298.7500
20
97.7000
30
0.0
0
VERTEX
5
162
8
Layer1
10
298.7500
20
98.7000
30
0.0
0
VERTEX
5
163
8
Layer1
10
284.7500
20
98.7000
30
0.0
0
VERTEX
5
164
8
Layer1
10
284.7500
20
97.7000
30
0.0
0
VERTEX
5
165
8
Layer1
10
283.9500
20
97.7000
30
0.0
0
VERTEX
5
166
8
Layer1
10
283.9500
20
94.2000
30
0.0
0
VERTEX
5
167
8
Layer1
10
284.7500
20
94.2000
30
0.0
0
VERTEX
5
168
8
Layer1
10
284.7500
20
89.2000
30
0.0
0
VERTEX
5
169
8
Layer1
10
283.9500
20
89.2000
30
0.0
0
VERTEX
5
16a
8
Layer1
10
283.9500
20
85.7000
30
0.0
0
VERTEX
5
16b
8
Layer1
10
284.7500
20
85.7000
30
0.0
0
VERTEX
5
16c
8
Layer1
10
284.7500
20
84.7000
30
0.0
0
VERTEX
5
16d
8
Layer1
10
298.7500
20
84.7000
30
0.0
0
VERTEX
5
16e
8
Layer1
10
298.7500
20
85.7000
30
0.0
0
SEQEND
5
16f
8
Layer1
0
POLYLINE
5
170
8
Layer1
66
1
10
0.0
20
0.0
30
0.0
70
1
0
VERTEX
5
171
8
Layer1
10
317.8000
20
85.7000
30
0.0
0
VERTEX
5
172
8
Layer1
10
318.6000
20
85.7000
30
0.0
0
VERTEX
5
173
8
Layer1
10
318.6000
20
89.2000
30
0.0
0
VERTEX
5
174
8
Layer1
10
317.8000
20
89.2000
30
0.0
0
VERTEX
5
175
8
Layer1
10
317.8000
20
94.2000
30
0.0
0
VERTEX
5
176
8
Layer1
10
318.6000
20
94.2000
30
0.0
0
VERTEX
5
177
8
Layer1
10
318.6000
20
97.7000
30
0.0
0
VERTEX
5
178
8
Layer1
10
317.8000
20
97.7000
30
0.0
0
VERTEX
5
179
8
Layer1
10
317.8000
20
98.7000
30
0.0
0
VERTEX
5
17a
8
Layer1
10
303.8000
20
98.7000
30
0.0
0
VERTEX
5
17b
8
Layer1
10
303.8000
20
97.7000
30
0.0
0
VERTEX
5
17c
8
Layer1
10
303.0000
20
97.7000
30
0.0
0
VERTEX
5
17d
8
Layer1
10
303.0000
20
94.2000
30
0.0
0
VERTEX
5
17e
8
Layer1
10
303.8000
20
94.2000
30
0.0
0
VERTEX
5
17f
8
Layer1
10
303.8000
20
89.2000
30
0.0
0
VERTEX
5
180
8
Layer1
10
303.0000
20
89.2000
30
0.0
0
VERTEX
5
181
8
Layer1
10
303.0000
20
85.7000
30
0.0
0
VERTEX
5
182
8
Layer1
10
303.8000
20
85.7000
30
0.0
0
VERTEX
5
183
8
Layer1
10
303.8000
20
84.7000
30
0.0
0
VERTEX
5
184
8
Layer1
10
317.8000
20
84.7000
30
0.0
0
VERTEX
5
185
8
Layer1
10
317.8000
20
85.7000
30
0.0
0
SEQEND
5
186
8
Layer1
0
POLYLINE
5
187
8
Layer1
66
1
10
0.0
20
0.0
30
0.0
70
1
0
VERTEX
5
188
8
Layer1
10
328.9750
20
84.9300
30
0.0
0
VERTEX
5
189
8
Layer1
10
330.8000
20
84.9300
30
0.0
0
VERTEX
5
18a
8
Layer1
10
330.8000
20
85.7300
30
0.0
0
VERTEX
5
18b
8
Layer1
10
331.5750
20
85.7300
30
0.0
0
VERTEX
5
18c
8
Layer1
10
331.5750
20
85.7000
30
0.0
0
VERTEX
5
18d
8
Layer1
10
332.3750
20
85.7000
30
0.0
0
VERTEX
5
18e
8
Layer1
10
332.3750
20
84.7000
30
0.0
0
VERTEX
5
18f
8
Layer1
10
346.3750
20
84.7000
30
0.0
0
VERTEX
5
190
8
Layer1
10
346.3750
20
85.7000
30
0.0
0
VERTEX
5
191
8
Layer1
10
347.1750
20
85.7000
30
0.0
0
VERTEX
5
192
8
Layer1
10
347.1750
20
85.7300
30
0.0
0
VERTEX
5
193
8
Layer1
10
347.9500
20
85.7300
30
0.0
0
VERTEX
5
194
8
Layer1
10
347.9500
20
84.9300
30
0.0
0
VERTEX
5
195
8
Layer1
10
349.7750
20
84.9300
30
0.0
0
VERTEX
5
196
8
Layer1
10
349.7750
20
83.7300
30
0.0
0
VERTEX
5
197
8
Layer1
10
352.7750
20
83.7300
30
0.0
0
VERTEX
5
198
8
Layer1
10
352.7750
20
84.9300
30
0.0
0
VERTEX
5
199
8
Layer1
10
354.6000
20
84.9300
30
0.0
0
VERTEX
5
19a
8
Layer1
10
354.6000
20
91.2000
30
0.0
0
VERTEX
5
19b
8
Layer1
10
355.4750
20
91.2000
30
0.0
0
VERTEX
5
19c
8
Layer1
10
355.4750
20
94.0000
30
0.0
0
VERTEX
5
19d
8
Layer1
10
354.6000
20
94.0000
30
0.0
0
VERTEX
5
19e
8
Layer1
10
354.6000
20
97.2300
30
0.0
0
VERTEX
5
19f
8
Layer1
10
347.9500
20
97.2300
30
0.0
0
VERTEX
5
1a0
8
Layer1
10
347.9500
20
96.4300
30
0.0
0
VERTEX
5
1a1
8
Layer1
10
347.1750
20
96.4300
30
0.0
0
VERTEX
5
1a2
8
Layer1
10
347.1750
20
97.7000
30
0.0
0
VERTEX
5
1a3
8
Layer1
10
346.3750
20
97.7000
30
0.0
0
VERTEX
5
1a4
8
Layer1
10
346.3750
20
98.7000
30
0.0
0
VERTEX
5
1a5
8
Layer1
10
332.3750
20
98.7000
30
0.0
0
VERTEX
5
1a6
8
Layer1
10
332.3750
20
97.7000
30
0.0
0
VERTEX
5
1a7
8
Layer1
10
331.5750
20
97.7000
30
0.0
0
VERTEX
5
1a8
8
Layer1
10
331.5750
20
96.4300
30
0.0
0
VERTEX
5
1a9
8
Layer1
10
330.8000
20
96.4300
30
0.0
0
VERTEX
5
1aa
8
Layer1
10
330.8000
20
97.2300
30
0.0
0
VERTEX
5
1ab
8
Layer1
10
324.1500
20
97.2300
30
0.0
0
VERTEX
5
1ac
8
Layer1
10
324.1500
20
94.0000
30
0.0
0
VERTEX
5
1ad
8
Layer1
10
323.2750
20
94.0000
30
0.0
0
VERTEX
5
1ae
8
Layer1
10
323.2750
20
91.2000
30
0.0
0
VERTEX
5
1af
8
Layer1
10
324.1500
20
91.2000
30
0.0
0
VERTEX
5
1b0
8
Layer1
10
324.1500
20
84.9300
30
0.0
0
VERTEX
5
1b1
8
Layer1
10
325.9750
20
84.9300
30
0.0
0
VERTEX
5
1b2
8
Layer1
10
325.9750
20
83.7300
30
0.0
0
VERTEX
5
1b3
8
Layer1
10
328.9750
20
83.7300
30
0.0
0
VERTEX
5
1b4
8
Layer1
10
328.9750
20
84.9300
30
0.0
0
SEQEND
5
1b5
8
Layer1
0
POLYLINE
5
1b6
8
Layer1
66
1
10
0.0
20
0.0
30
0.0
70
1
0
VERTEX
5
1b7
8
Layer1
10
384.4750
20
85.7000
30
0.0
0
VERTEX
5
1b8
8
Layer1
10
385.2750
20
85.7000
30
0.0
0
VERTEX
5
1b9
8
Layer1
10
385.2750
20
89.2000
30
0.0
0
VERTEX
5
1ba
8
Layer1
10
384.4750
20
89.2000
30
0.0
0
VERTEX
5
1bb
8
Layer1
10
384.4750
20
94.2000
30
0.0
0
VERTEX
5
1bc
8
Layer1
10
385.2750
20
94.2000
30
0.0
0
VERTEX
5
1bd
8
Layer1
10
385.2750
20
97.7000
30
0.0
0
VERTEX
5
1be
8
Layer1
10
384.4750
20
97.7000
30
0.0
0
VERTEX
5
1bf
8
Layer1
10
384.4750
20
98.7000
30
0.0
0
VERTEX
5
1c0
8
Layer1
10
370.4750
20
98.7000
30
0.0
0
VERTEX
5
1c1
8
Layer1
10
370.4750
20
97.7000
30
0.0
0
VERTEX
5
1c2
8
Layer1
10
369.6750
20
97.7000
30
0.0
0
VERTEX
5
1c3
8
Layer1
10
369.6750
20
94.2000
30
0.0
0
VERTEX
5
1c4
8
Layer1
10
370.4750
20
94.2000
30
0.0
0
VERTEX
5
1c5
8
Layer1
10
370.4750
20
89.2000
30
0.0
0
VERTEX
5
1c6
8
Layer1
10
369.6750
20
89.2000
30
0.0
0
VERTEX
5
1c7
8
Layer1
10
369.6750
20
85.7000
30
0.0
0
VERTEX
5
1c8
8
Layer1
10
370.4750
20
85.7000
30
0.0
0
VERTEX
5
1c9
8
Layer1
10
370.4750
20
84.7000
30
0.0
0
VERTEX
5
1ca
8
Layer1
10
384.4750
20
84.7000
30
0.0
0
VERTEX
5
1cb
8
Layer1
10
384.4750
20
85.7000
30
0.0
0
SEQEND
5
1cc
8
Layer1
0
POLYLINE
5
1cd
8
Layer1
66
1
10
0.0
20
0.0
30
0.0
70
1
0
VERTEX
5
1ce
8
Layer1
10
403.5250
20
85.7000
30
0.0
0
VERTEX
5
1cf
8
Layer1
10
404.3250
20
85.7000
30
0.0
0
VERTEX
5
1d0
8
Layer1
10
404.3250
20
89.2000
30
0.0
0
VERTEX
5
1d1
8
Layer1
10
403.5250
20
89.2000
30
0.0
0
VERTEX
5
1d2
8
Layer1
10
403.5250
20
94.2000
30
0.0
0
VERTEX
5
1d3
8
Layer1
10
404.3250
20
94.2000
30
0.0
0
VERTEX
5
1d4
8
Layer1
10
404.3250
20
97.7000
30
0.0
0
VERTEX
5
1d5
8
Layer1
10
403.5250
20
97.7000
30
0.0
0
VERTEX
5
1d6
8
Layer1
10
403.5250
20
98.7000
30
0.0
0
VERTEX
5
1d7
8
Layer1
10
389.5250
20
98.7000
30
0.0
0
VERTEX
5
1d8
8
Layer1
10
389.5250
20
97.7000
30
0.0
0
VERTEX
5
1d9
8
Layer1
10
388.7250
20
97.7000
30
0.0
0
VERTEX
5
1da
8
Layer1
10
388.7250
20
94.2000
30
0.0
0
VERTEX
5
1db
8
Layer1
10
389.5250
20
94.2000
30
0.0
0
VERTEX
5
1dc
8
Layer1
10
389.5250
20
89.2000
30
0.0
0
VERTEX
5
1dd
8
Layer1
10
388.7250
20
89.2000
30
0.0
0
VERTEX
5
1de
8
Layer1
10
388.7250
20
85.7000
30
0.0
0
VERTEX
5
1df
8
Layer1
10
389.5250
20
85.7000
30
0.0
0
VERTEX
5
1e0
8
Layer1
10
389.5250
20
84.7000
30
0.0
0
VERTEX
5
1e1
8
Layer1
10
403.5250
20
84.7000
30
0.0
0
VERTEX
5
1e2
8
Layer1
10
403.5250
20
85.7000
30
0.0
0
SEQEND
5
1e3
8
Layer1
0
POLYLINE
5
1e4
8
Layer1
66
1
10
0.0
20
0.0
30
0.0
70
1
0
VERTEX
5
1e5
8
Layer1
10
422.5750
20
85.7000
30
0.0
0
VERTEX
5
1e6
8
Layer1
10
423.3750
20
85.7000
30
0.0
0
VERTEX
5
1e7
8
Layer1
10
423.3750
20
89.2000
30
0.0
0
VERTEX
5
1e8
8
Layer1
10
422.5750
20
89.2000
30
0.0
0
VERTEX
5
1e9
8
Layer1
10
422.5750
20
94.2000
30
0.0
0
VERTEX
5
1ea
8
Layer1
10
423.3750
20
94.2000
30
0.0
0
VERTEX
5
1eb
8
Layer1
10
423.3750
20
97.7000
30
0.0
0
VERTEX
5
1ec
8
Layer1
10
422.5750
20
97.7000
30
0.0
0
VERTEX
5
1ed
8
Layer1
10
422.5750
20
98.7000
30
0.0
0
VERTEX
5
1ee
8
Layer1
10
408.5750
20
98.7000
30
0.0
0
VERTEX
5
1ef
8
Layer1
10
408.5750
20
97.7000
30
0.0
0
VERTEX
5
1f0
8
Layer1
10
407.7750
20
97.7000
30
0.0
0
VERTEX
5
1f1
8
Layer1
10
407.7750
20
94.2000
30
0.0
0
VERTEX
5
1f2
8
Layer1
10
408.5750
20
94.2000
30
0.0
0
VERTEX
5
1f3
8
Layer1
10
408.5750
20
89.2000
30
0.0
0
VERTEX
5
1f4
8
Layer1
10
407.7750
20
89.2000
30
0.0
0
VERTEX
5
1f5
8
Layer1
10
407.7750
20
85.7000
30
0.0
0
VERTEX
5
1f6
8
Layer1
10
408.5750
20
85.7000
30
0.0
0
VERTEX
5
1f7
8
Layer1
10
408.5750
20
84.7000
30
0.0
0
VERTEX
5
1f8
8
Layer1
10
422.5750
20
84.7000
30
0.0
0
VERTEX
5
1f9
8
Layer1
10
422.5750
20
85.7000
30
0.0
0
SEQEND
5
1fa
8
Layer1
0
POLYLINE
5
1fb
8
Layer1
66
1
10
0.0
20
0.0
30
0.0
70
1
0
VERTEX
5
1fc
8
Layer1
10
441.6250
20
85.7000
30
0.0
0
VERTEX
5
1fd
8
Layer1
10
442.4250
20
85.7000
30
0.0
0
VERTEX
5
1fe
8
Layer1
10
442.4250
20
89.2000
30
0.0
0
VERTEX
5
1ff
8
Layer1
10
441.6250
20
89.2000
30
0.0
0
VERTEX
5
200
8
Layer1
10
441.6250
20
94.2000
30
0.0
0
VERTEX
5
201
8
Layer1
10
442.4250
20
94.2000
30
0.0
0
VERTEX
5
202
8
Layer1
10
442.4250
20
97.7000
30
0.0
0
VERTEX
5
203
8
Layer1
10
441.6250
20
97.7000
30
0.0
0
VERTEX
5
204
8
Layer1
10
441.6250
20
98.7000
30
0.0
0
VERTEX
5
205
8
Layer1
10
427.6250
20
98.7000
30
0.0
0
VERTEX
5
206
8
Layer1
10
427.6250
20
97.7000
30
0.0
0
VERTEX
5
207
8
Layer1
10
426.8250
20
97.7000
30
0.0
0
VERTEX
5
208
8
Layer1
10
426.8250
20
94.2000
30
0.0
0
VERTEX
5
209
8
Layer1
10
427.6250
20
94.2000
30
0.0
0
VERTEX
5
20a
8
Layer1
10
427.6250
20
89.2000
30
0.0
0
VERTEX
5
20b
8
Layer1
10
426.8250
20
89.2000
30
0.0
0
VERTEX
5
20c
8
Layer1
10
426.8250
20
85.7000
30
0.0
0
VERTEX
5
20d
8
Layer1
10
427.6250
20
85.7000
30
0.0
0
VERTEX
5
20e
8
Layer1
10
427.6250
20
84.7000
30
0.0
0
VERTEX
5
20f
8
Layer1
10
441.6250
20
84.7000
30
0.0
0
VERTEX
5
210
8
Layer1
10
441.6250
20
85.7000
30
0.0
0
SEQEND
5
211
8
Layer1
0
POLYLINE
5
212
8
Layer1
66
1
10
0.0
20
0.0
30
0.0
70
1
0
VERTEX
5
213
8
Layer1
10
22.5250
20
66.6500
30
0.0
0
VERTEX
5
214
8
Layer1
10
23.3250
20
66.6500
30
0.0
0
VERTEX
5
215
8
Layer1
10
23.3250
20
70.1500
30
0.0
0
VERTEX
5
216
8
Layer1
10
22.5250
20
70.1500
30
0.0
0
VERTEX
5
217
8
Layer1
10
22.5250
20
75.1500
30
0.0
0
VERTEX
5
218
8
Layer1
10
23.3250
20
75.1500
30
0.0
0
VERTEX
5
219
8
Layer1
10
23.3250
20
78.6500
30
0.0
0
VERTEX
5
21a
8
Layer1
10
22.5250
20
78.6500
30
0.0
0
VERTEX
5
21b
8
Layer1
10
22.5250
20
79.6500
30
0.0
0
VERTEX
5
21c
8
Layer1
10
8.5250
20
79.6500
30
0.0
0
VERTEX
5
21d
8
Layer1
10
8.5250
20
78.6500
30
0.0
0
VERTEX
5
21e
8
Layer1
10
7.7250
20
78.6500
30
0.0
0
VERTEX
5
21f
8
Layer1
10
7.7250
20
75.1500
30
0.0
0
VERTEX
5
220
8
Layer1
10
8.5250
20
75.1500
30
0.0
0
VERTEX
5
221
8
Layer1
10
8.5250
20
70.1500
30
0.0
0
VERTEX
5
222
8
Layer1
10
7.7250
20
70.1500
30
0.0
0
VERTEX
5
223
8
Layer1
10
7.7250
20
66.6500
30
0.0
0
VERTEX
5
224
8
Layer1
10
8.5250
20
66.6500
30
0.0
0
VERTEX
5
225
8
Layer1
10
8.5250
20
65.6500
30
0.0
0
VERTEX
5
226
8
Layer1
10
22.5250
20
65.6500
30
0.0
0
VERTEX
5
227
8
Layer1
10
22.5250
20
66.6500
30
0.0
0
SEQEND
5
228
8
Layer1
0
POLYLINE
5
229
8
Layer1
66
1
10
0.0
20
0.0
30
0.0
70
1
0
VERTEX
5
22a
8
Layer1
10
41.5750
20
66.6500
30
0.0
0
VERTEX
5
22b
8
Layer1
10
42.3750
20
66.6500
30
0.0
0
VERTEX
5
22c
8
Layer1
10
42.3750
20
70.1500
30
0.0
0
VERTEX
5
22d
8
Layer1
10
41.5750
20
70.1500
30
0.0
0
VERTEX
5
22e
8
Layer1
10
41.5750
20
75.1500
30
0.0
0
VERTEX
5
22f
8
Layer1
10
42.3750
20
75.1500
30
0.0
0
VERTEX
5
230
8
Layer1
10
42.3750
20
78.6500
30
0.0
0
VERTEX
5
231
8
Layer1
10
41.5750
20
78.6500
30
0.0
0
VERTEX
5
232
8
Layer1
10
41.5750
20
79.6500
30
0.0
0
VERTEX
5
233
8
Layer1
10
27.5750
20
79.6500
30
0.0
0
VERTEX
5
234
8
Layer1
10
27.5750
20
78.6500
30
0.0
0
VERTEX
5
235
8
Layer1
10
26.7750
20
78.6500
30
0.0
0
VERTEX
5
236
8
Layer1
10
26.7750
20
75.1500
30
0.0
0
VERTEX
5
237
8
Layer1
10
27.5750
20
75.1500
30
0.0
0
VERTEX
5
238
8
Layer1
10
27.5750
20
70.1500
30
0.0
0
VERTEX
5
239
8
Layer1
10
26.7750
20
70.1500
30
0.0
0
VERTEX
5
23a
8
Layer1
10
26.7750
20
66.6500
30
0.0
0
VERTEX
5
23b
8
Layer1
10
27.5750
20
66.6500
30
0.0
0
VERTEX
5
23c
8
Layer1
10
27.5750
20
65.6500
30
0.0
0
VERTEX
5
23d
8
Layer1
10
41.5750
20
65.6500
30
0.0
0
VERTEX
5
23e
8
Layer1
10
41.5750
20
66.6500
30
0.0
0
SEQEND
5
23f
8
Layer1
0
POLYLINE
5
240
8
Layer1
66
1
10
0.0
20
0.0
30
0.0
70
1
0
VERTEX
5
241
8
Layer1
10
60.6250
20
66.6500
30
0.0
0
VERTEX
5
242
8
Layer1
10
61.4250
20
66.6500
30
0.0
0
VERTEX
5
243
8
Layer1
10
61.4250
20
70.1500
30
0.0
0
VERTEX
5
244
8
Layer1
10
60.6250
20
70.1500
30
0.0
0
VERTEX
5
245
8
Layer1
10
60.6250
20
75.1500
30
0.0
0
VERTEX
5
246
8
Layer1
10
61.4250
20
75.1500
30
0.0
0
VERTEX
5
247
8
Layer1
10
61.4250
20
78.6500
30
0.0
0
VERTEX
5
248
8
Layer1
10
60.6250
20
78.6500
30
0.0
0
VERTEX
5
249
8
Layer1
10
60.6250
20
79.6500
30
0.0
0
VERTEX
5
24a
8
Layer1
10
46.6250
20
79.6500
30
0.0
0
VERTEX
5
24b
8
Layer1
10
46.6250
20
78.6500
30
0.0
0
VERTEX
5
24c
8
Layer1
10
45.8250
20
78.6500
30
0.0
0
VERTEX
5
24d
8
Layer1
10
45.8250
20
75.1500
30
0.0
0
VERTEX
5
24e
8
Layer1
10
46.6250
20
75.1500
30
0.0
0
VERTEX
5
24f
8
Layer1
10
46.6250
20
70.1500
30
0.0
0
VERTEX
5
250
8
Layer1
10
45.8250
20
70.1500
30
0.0
0
VERTEX
5
251
8
Layer1
10
45.8250
20
66.6500
30
0.0
0
VERTEX
5
252
8
Layer1
10
46.6250
20
66.6500
30
0.0
0
VERTEX
5
253
8
Layer1
10
46.6250
20
65.6500
30
0.0
0
VERTEX
5
254
8
Layer1
10
60.6250
20
65.6500
30
0.0
0
VERTEX
5
255
8
Layer1
10
60.6250
20
66.6500
30
0.0
0
SEQEND
5
256
8
Layer1
0
POLYLINE
5
257
8
Layer1
66
1
10
0.0
20
0.0
30
0.0
70
1
0
VERTEX
5
258
8
Layer1
10
93.9630
20
66.6500
30
0.0
0
VERTEX
5
259
8
Layer1
10
94.7630
20
66.6500
30
0.0
0
VERTEX
5
25a
8
Layer1
10
94.7630
20
70.1500
30
0.0
0
VERTEX
5
25b
8
Layer1
10
93.9630
20
70.1500
30
0.0
0
VERTEX
5
25c
8
Layer1
10
93.9630
20
75.1500
30
0.0
0
VERTEX
5
25d
8
Layer1
10
94.7630
20
75.1500
30
0.0
0
VERTEX
5
25e
8
Layer1
10
94.7630
20
78.6500
30
0.0
0
VERTEX
5
25f
8
Layer1
10
93.9630
20
78.6500
30
0.0
0
VERTEX
5
260
8
Layer1
10
93.9630
20
79.6500
30
0.0
0
VERTEX
5
261
8
Layer1
10
79.9630
20
79.6500
30
0.0
0
VERTEX
5
262
8
Layer1
10
79.9630
20
78.6500
30
0.0
0
VERTEX
5
263
8
Layer1
10
79.1630
20
78.6500
30
0.0
0
VERTEX
5
264
8
Layer1
10
79.1630
20
75.1500
30
0.0
0
VERTEX
5
265
8
Layer1
10
79.9630
20
75.1500
30
0.0
0
VERTEX
5
266
8
Layer1
10
79.9630
20
70.1500
30
0.0
0
VERTEX
5
267
8
Layer1
10
79.1630
20
70.1500
30
0.0
0
VERTEX
5
268
8
Layer1
10
79.1630
20
66.6500
30
0.0
0
VERTEX
5
269
8
Layer1
10
79.9630
20
66.6500
30
0.0
0
VERTEX
5
26a
8
Layer1
10
79.9630
20
65.6500
30
0.0
0
VERTEX
5
26b
8
Layer1
10
93.9630
20
65.6500
30
0.0
0
VERTEX
5
26c
8
Layer1
10
93.9630
20
66.6500
30
0.0
0
SEQEND
5
26d
8
Layer1
0
POLYLINE
5
26e
8
Layer1
66
1
10
0.0
20
0.0
30
0.0
70
1
0
VERTEX
5
26f
8
Layer1
10
117.7750
20
66.6500
30
0.0
0
VERTEX
5
270
8
Layer1
10
118.5750
20
66.6500
30
0.0
0
VERTEX
5
271
8
Layer1
10
118.5750
20
70.1500
30
0.0
0
VERTEX
5
272
8
Layer1
10
117.7750
20
70.1500
30
0.0
0
VERTEX
5
273
8
Layer1
10
117.7750
20
75.1500
30
0.0
0
VERTEX
5
274
8
Layer1
10
118.5750
20
75.1500
30
0.0
0
VERTEX
5
275
8
Layer1
10
118.5750
20
78.6500
30
0.0
0
VERTEX
5
276
8
Layer1
10
117.7750
20
78.6500
30
0.0
0
VERTEX
5
277
8
Layer1
10
117.7750
20
79.6500
30
0.0
0
VERTEX
5
278
8
Layer1
10
103.7750
20
79.6500
30
0.0
0
VERTEX
5
279
8
Layer1
10
103.7750
20
78.6500
30
0.0
0
VERTEX
5
27a
8
Layer1
10
102.9750
20
78.6500
30
0.0
0
VERTEX
5
27b
8
Layer1
10
102.9750
20
75.1500
30
0.0
0
VERTEX
5
27c
8
Layer1
10
103.7750
20
75.1500
30
0.0
0
VERTEX
5
27d
8
Layer1
10
103.7750
20
70.1500
30
0.0
0
VERTEX
5
27e
8
Layer1
10
102.9750
20
70.1500
30
0.0
0
VERTEX
5
27f
8
Layer1
10
102.9750
20
66.6500
30
0.0
0
VERTEX
5
280
8
Layer1
10
103.7750
20
66.6500
30
0.0
0
VERTEX
5
281
8
Layer1
10
103.7750
20
65.6500
30
0.0
0
VERTEX
5
282
8
Layer1
10
117.7750
20
65.6500
30
0.0
0
VERTEX
5
283
8
Layer1
10
117.7750
20
66.6500
30
0.0
0
SEQEND
5
284
8
Layer1
0
POLYLINE
5
285
8
Layer1
66
1
10
0.0
20
0.0
30
0.0
70
1
0
VERTEX
5
286
8
Layer1
10
136.8250
20
66.6500
30
0.0
0
VERTEX
5
287
8
Layer1
10
137.6250
20
66.6500
30
0.0
0
VERTEX
5
288
8
Layer1
10
137.6250
20
70.1500
30
0.0
0
VERTEX
5
289
8
Layer1
10
136.8250
20
70.1500
30
0.0
0
VERTEX
5
28a
8
Layer1
10
136.8250
20
75.1500
30
0.0
0
VERTEX
5
28b
8
Layer1
10
137.6250
20
75.1500
30
0.0
0
VERTEX
5
28c
8
Layer1
10
137.6250
20
78.6500
30
0.0
0
VERTEX
5
28d
8
Layer1
10
136.8250
20
78.6500
30
0.0
0
VERTEX
5
28e
8
Layer1
10
136.8250
20
79.6500
30
0.0
0
VERTEX
5
28f
8
Layer1
10
122.8250
20
79.6500
30
0.0
0
VERTEX
5
290
8
Layer1
10
122.8250
20
78.6500
30
0.0
0
VERTEX
5
291
8
Layer1
10
122.0250
20
78.6500
30
0.0
0
VERTEX
5
292
8
Layer1
10
122.0250
20
75.1500
30
0.0
0
VERTEX
5
293
8
Layer1
10
122.8250
20
75.1500
30
0.0
0
VERTEX
5
294
8
Layer1
10
122.8250
20
70.1500
30
0.0
0
VERTEX
5
295
8
Layer1
10
122.0250
20
70.1500
30
0.0
0
VERTEX
5
296
8
Layer1
10
122.0250
20
66.6500
30
0.0
0
VERTEX
5
297
8
Layer1
10
122.8250
20
66.6500
30
0.0
0
VERTEX
5
298
8
Layer1
10
122.8250
20
65.6500
30
0.0
0
VERTEX
5
299
8
Layer1
10
136.8250
20
65.6500
30
0.0
0
VERTEX
5
29a
8
Layer1
10
136.8250
20
66.6500
30
0.0
0
SEQEND
5
29b
8
Layer1
0
POLYLINE
5
29c
8
Layer1
66
1
10
0.0
20
0.0
30
0.0
70
1
0
VERTEX
5
29d
8
Layer1
10
155.8750
20
66.6500
30
0.0
0
VERTEX
5
29e
8
Layer1
10
156.6750
20
66.6500
30
0.0
0
VERTEX
5
29f
8
Layer1
10
156.6750
20
70.1500
30
0.0
0
VERTEX
5
2a0
8
Layer1
10
155.8750
20
70.1500
30
0.0
0
VERTEX
5
2a1
8
Layer1
10
155.8750
20
75.1500
30
0.0
0
VERTEX
5
2a2
8
Layer1
10
156.6750
20
75.1500
30
0.0
0
VERTEX
5
2a3
8
Layer1
10
156.6750
20
78.6500
30
0.0
0
VERTEX
5
2a4
8
Layer1
10
155.8750
20
78.6500
30
0.0
0
VERTEX
5
2a5
8
Layer1
10
155.8750
20
79.6500
30
0.0
0
VERTEX
5
2a6
8
Layer1
10
141.8750
20
79.6500
30
0.0
0
VERTEX
5
2a7
8
Layer1
10
141.8750
20
78.6500
30
0.0
0
VERTEX
5
2a8
8
Layer1
10
141.0750
20
78.6500
30
0.0
0
VERTEX
5
2a9
8
Layer1
10
141.0750
20
75.1500
30
0.0
0
VERTEX
5
2aa
8
Layer1
10
141.8750
20
75.1500
30
0.0
0
VERTEX
5
2ab
8
Layer1
10
141.8750
20
70.1500
30
0.0
0
VERTEX
5
2ac
8
Layer1
10
141.0750
20
70.1500
30
0.0
0
VERTEX
5
2ad
8
Layer1
10
141.0750
20
66.6500
30
0.0
0
VERTEX
5
2ae
8
Layer1
10
141.8750
20
66.6500
30
0.0
0
VERTEX
5
2af
8
Layer1
10
141.8750
20
65.6500
30
0.0
0
VERTEX
5
2b0
8
Layer1
10
155.8750
20
65.6500
30
0.0
0
VERTEX
5
2b1
8
Layer1
10
155.8750
20
66.6500
30
0.0
0
SEQEND
5
2b2
8
Layer1
0
POLYLINE
5
2b3
8
Layer1
66
1
10
0.0
20
0.0
30
0.0
70
1
0
VERTEX
5
2b4
8
Layer1
10
174.9250
20
66.6500
30
0.0
0
VERTEX
5
2b5
8
Layer1
10
175.7250
20
66.6500
30
0.0
0
VERTEX
5
2b6
8
Layer1
10
175.7250
20
70.1500
30
0.0
0
VERTEX
5
2b7
8
Layer1
10
174.9250
20
70.1500
30
0.0
0
VERTEX
5
2b8
8
Layer1
10
174.9250
20
75.1500
30
0.0
0
VERTEX
5
2b9
8
Layer1
10
175.7250
20
75.1500
30
0.0
0
VERTEX
5
2ba
8
Layer1
10
175.7250
20
78.6500
30
0.0
0
VERTEX
5
2bb
8
Layer1
10
174.9250
20
78.6500
30
0.0
0
VERTEX
5
2bc
8
Layer1
10
174.9250
20
79.6500
30
0.0
0
VERTEX
5
2bd
8
Layer1
10
160.9250
20
79.6500
30
0.0
0
VERTEX
5
2be
8
Layer1
10
160.9250
20
78.6500
30
0.0
0
VERTEX
5
2bf
8
Layer1
10
160.1250
20
78.6500
30
0.0
0
VERTEX
5
2c0
8
Layer1
10
160.1250
20
75.1500
30
0.0
0
VERTEX
5
2c1
8
Layer1
10
160.9250
20
75.1500
30
0.0
0
VERTEX
5
2c2
8
Layer1
10
160.9250
20
70.1500
30
0.0
0
VERTEX
5
2c3
8
Layer1
10
160.1250
20
70.1500
30
0.0
0
VERTEX
5
2c4
8
Layer1
10
160.1250
20
66.6500
30
0.0
0
VERTEX
5
2c5
8
Layer1
10
160.9250
20
66.6500
30
0.0
0
VERTEX
5
2c6
8
Layer1
10
160.9250
20
65.6500
30
0.0
0
VERTEX
5
2c7
8
Layer1
10
174.9250
20
65.6500
30
0.0
0
VERTEX
5
2c8
8
Layer1
10
174.9250
20
66.6500
30
0.0
0
SEQEND
5
2c9
8
Layer1
0
POLYLINE
5
2ca
8
Layer1
66
1
10
0.0
20
0.0
30
0.0
70
1
0
VERTEX
5
2cb
8
Layer1
10
193.9750
20
66.6500
30
0.0
0
VERTEX
5
2cc
8
Layer1
10
194.7750
20
66.6500
30
0.0
0
VERTEX
5
2cd
8
Layer1
10
194.7750
20
70.1500
30
0.0
0
VERTEX
5
2ce
8
Layer1
10
193.9750
20
70.1500
30
0.0
0
VERTEX
5
2cf
8
Layer1
10
193.9750
20
75.1500
30
0.0
0
VERTEX
5
2d0
8
Layer1
10
194.7750
20
75.1500
30
0.0
0
VERTEX
5
2d1
8
Layer1
10
194.7750
20
78.6500
30
0.0
0
VERTEX
5
2d2
8
Layer1
10
193.9750
20
78.6500
30
0.0
0
VERTEX
5
2d3
8
Layer1
10
193.9750
20
79.6500
30
0.0
0
VERTEX
5
2d4
8
Layer1
10
179.9750
20
79.6500
30
0.0
0
VERTEX
5
2d5
8
Layer1
10
179.9750
20
78.6500
30
0.0
0
VERTEX
5
2d6
8
Layer1
10
179.1750
20
78.6500
30
0.0
0
VERTEX
5
2d7
8
Layer1
10
179.1750
20
75.1500
30
0.0
0
VERTEX
5
2d8
8
Layer1
10
179.9750
20
75.1500
30
0.0
0
VERTEX
5
2d9
8
Layer1
10
179.9750
20
70.1500
30
0.0
0
VERTEX
5
2da
8
Layer1
10
179.1750
20
70.1500
30
0.0
0
VERTEX
5
2db
8
Layer1
10
179.1750
20
66.6500
30
0.0
0
VERTEX
5
2dc
8
Layer1
10
179.9750
20
66.6500
30
0.0
0
VERTEX
5
2dd
8
Layer1
10
179.9750
20
65.6500
30
0.0
0
VERTEX
5
2de
8
Layer1
10
193.9750
20
65.6500
30
0.0
0
VERTEX
5
2df
8
Layer1
10
193.9750
20
66.6500
30
0.0
0
SEQEND
5
2e0
8
Layer1
0
POLYLINE
5
2e1
8
Layer1
66
1
10
0.0
20
0.0
30
0.0
70
1
0
VERTEX
5
2e2
8
Layer1
10
213.0250
20
66.6500
30
0.0
0
VERTEX
5
2e3
8
Layer1
10
213.8250
20
66.6500
30
0.0
0
VERTEX
5
2e4
8
Layer1
10
213.8250
20
70.1500
30
0.0
0
VERTEX
5
2e5
8
Layer1
10
213.0250
20
70.1500
30
0.0
0
VERTEX
5
2e6
8
Layer1
10
213.0250
20
75.1500
30
0.0
0
VERTEX
5
2e7
8
Layer1
10
213.8250
20
75.1500
30
0.0
0
VERTEX
5
2e8
8
Layer1
10
213.8250
20
78.6500
30
0.0
0
VERTEX
5
2e9
8
Layer1
10
213.0250
20
78.6500
30
0.0
0
VERTEX
5
2ea
8
Layer1
10
213.0250
20
79.6500
30
0.0
0
VERTEX
5
2eb
8
Layer1
10
199.0250
20
79.6500
30
0.0
0
VERTEX
5
2ec
8
Layer1
10
199.0250
20
78.6500
30
0.0
0
VERTEX
5
2ed
8
Layer1
10
198.2250
20
78.6500
30
0.0
0
VERTEX
5
2ee
8
Layer1
10
198.2250
20
75.1500
30
0.0
0
VERTEX
5
2ef
8
Layer1
10
199.0250
20
75.1500
30
0.0
0
VERTEX
5
2f0
8
Layer1
10
199.0250
20
70.1500
30
0.0
0
VERTEX
5
2f1
8
Layer1
10
198.2250
20
70.1500
30
0.0
0
VERTEX
5
2f2
8
Layer1
10
198.2250
20
66.6500
30
0.0
0
VERTEX
5
2f3
8
Layer1
10
199.0250
20
66.6500
30
0.0
0
VERTEX
5
2f4
8
Layer1
10
199.0250
20
65.6500
30
0.0
0
VERTEX
5
2f5
8
Layer1
10
213.0250
20
65.6500
30
0.0
0
VERTEX
5
2f6
8
Layer1
10
213.0250
20
66.6500
30
0.0
0
SEQEND
5
2f7
8
Layer1
0
POLYLINE
5
2f8
8
Layer1
66
1
10
0.0
20
0.0
30
0.0
70
1
0
VERTEX
5
2f9
8
Layer1
10
232.0750
20
66.6500
30
0.0
0
VERTEX
5
2fa
8
Layer1
10
232.8750
20
66.6500
30
0.0
0
VERTEX
5
2fb
8
Layer1
10
232.8750
20
70.1500
30
0.0
0
VERTEX
5
2fc
8
Layer1
10
232.0750
20
70.1500
30
0.0
0
VERTEX
5
2fd
8
Layer1
10
232.0750
20
75.1500
30
0.0
0
VERTEX
5
2fe
8
Layer1
10
232.8750
20
75.1500
30
0.0
0
VERTEX
5
2ff
8
Layer1
10
232.8750
20
78.6500
30
0.0
0
VERTEX
5
300
8
Layer1
10
232.0750
20
78.6500
30
0.0
0
VERTEX
5
301
8
Layer1
10
232.0750
20
79.6500
30
0.0
0
VERTEX
5
302
8
Layer1
10
218.0750
20
79.6500
30
0.0
0
VERTEX
5
303
8
Layer1
10
218.0750
20
78.6500
30
0.0
0
VERTEX
5
304
8
Layer1
10
217.2750
20
78.6500
30
0.0
0
VERTEX
5
305
8
Layer1
10
217.2750
20
75.1500
30
0.0
0
VERTEX
5
306
8
Layer1
10
218.0750
20
75.1500
30
0.0
0
VERTEX
5
307
8
Layer1
10
218.0750
20
70.1500
30
0.0
0
VERTEX
5
308
8
Layer1
10
217.2750
20
70.1500
30
0.0
0
VERTEX
5
309
8
Layer1
10
217.2750
20
66.6500
30
0.0
0
VERTEX
5
30a
8
Layer1
10
218.0750
20
66.6500
30
0.0
0
VERTEX
5
30b
8
Layer1
10
218.0750
20
65.6500
30
0.0
0
VERTEX
5
30c
8
Layer1
10
232.0750
20
65.6500
30
0.0
0
VERTEX
5
30d
8
Layer1
10
232.0750
20
66.6500
30
0.0
0
SEQEND
5
30e
8
Layer1
0
POLYLINE
5
30f
8
Layer1
66
1
10
0.0
20
0.0
30
0.0
70
1
0
VERTEX
5
310
8
Layer1
10
251.1250
20
66.6500
30
0.0
0
VERTEX
5
311
8
Layer1
10
251.9250
20
66.6500
30
0.0
0
VERTEX
5
312
8
Layer1
10
251.9250
20
70.1500
30
0.0
0
VERTEX
5
313
8
Layer1
10
251.1250
20
70.1500
30
0.0
0
VERTEX
5
314
8
Layer1
10
251.1250
20
75.1500
30
0.0
0
VERTEX
5
315
8
Layer1
10
251.9250
20
75.1500
30
0.0
0
VERTEX
5
316
8
Layer1
10
251.9250
20
78.6500
30
0.0
0
VERTEX
5
317
8
Layer1
10
251.1250
20
78.6500
30
0.0
0
VERTEX
5
318
8
Layer1
10
251.1250
20
79.6500
30
0.0
0
VERTEX
5
319
8
Layer1
10
237.1250
20
79.6500
30
0.0
0
VERTEX
5
31a
8
Layer1
10
237.1250
20
78.6500
30
0.0
0
VERTEX
5
31b
8
Layer1
10
236.3250
20
78.6500
30
0.0
0
VERTEX
5
31c
8
Layer1
10
236.3250
20
75.1500
30
0.0
0
VERTEX
5
31d
8
Layer1
10
237.1250
20
75.1500
30
0.0
0
VERTEX
5
31e
8
Layer1
10
237.1250
20
70.1500
30
0.0
0
VERTEX
5
31f
8
Layer1
10
236.3250
20
70.1500
30
0.0
0
VERTEX
5
320
8
Layer1
10
236.3250
20
66.6500
30
0.0
0
VERTEX
5
321
8
Layer1
10
237.1250
20
66.6500
30
0.0
0
VERTEX
5
322
8
Layer1
10
237.1250
20
65.6500
30
0.0
0
VERTEX
5
323
8
Layer1
10
251.1250
20
65.6500
30
0.0
0
VERTEX
5
324
8
Layer1
10
251.1250
20
66.6500
30
0.0
0
SEQEND
5
325
8
Layer1
0
POLYLINE
5
326
8
Layer1
66
1
10
0.0
20
0.0
30
0.0
70
1
0
VERTEX
5
327
8
Layer1
10
270.1750
20
66.6500
30
0.0
0
VERTEX
5
328
8
Layer1
10
270.9750
20
66.6500
30
0.0
0
VERTEX
5
329
8
Layer1
10
270.9750
20
70.1500
30
0.0
0
VERTEX
5
32a
8
Layer1
10
270.1750
20
70.1500
30
0.0
0
VERTEX
5
32b
8
Layer1
10
270.1750
20
75.1500
30
0.0
0
VERTEX
5
32c
8
Layer1
10
270.9750
20
75.1500
30
0.0
0
VERTEX
5
32d
8
Layer1
10
270.9750
20
78.6500
30
0.0
0
VERTEX
5
32e
8
Layer1
10
270.1750
20
78.6500
30
0.0
0
VERTEX
5
32f
8
Layer1
10
270.1750
20
79.6500
30
0.0
0
VERTEX
5
330
8
Layer1
10
256.1750
20
79.6500
30
0.0
0
VERTEX
5
331
8
Layer1
10
256.1750
20
78.6500
30
0.0
0
VERTEX
5
332
8
Layer1
10
255.3750
20
78.6500
30
0.0
0
VERTEX
5
333
8
Layer1
10
255.3750
20
75.1500
30
0.0
0
VERTEX
5
334
8
Layer1
10
256.1750
20
75.1500
30
0.0
0
VERTEX
5
335
8
Layer1
10
256.1750
20
70.1500
30
0.0
0
VERTEX
5
336
8
Layer1
10
255.3750
20
70.1500
30
0.0
0
VERTEX
5
337
8
Layer1
10
255.3750
20
66.6500
30
0.0
0
VERTEX
5
338
8
Layer1
10
256.1750
20
66.6500
30
0.0
0
VERTEX
5
339
8
Layer1
10
256.1750
20
65.6500
30
0.0
0
VERTEX
5
33a
8
Layer1
10
270.1750
20
65.6500
30
0.0
0
VERTEX
5
33b
8
Layer1
10
270.1750
20
66.6500
30
0.0
0
SEQEND
5
33c
8
Layer1
0
POLYLINE
5
33d
8
Layer1
66
1
10
0.0
20
0.0
30
0.0
70
1
0
VERTEX
5
33e
8
Layer1
10
289.2250
20
66.6500
30
0.0
0
VERTEX
5
33f
8
Layer1
10
290.0250
20
66.6500
30
0.0
0
VERTEX
5
340
8
Layer1
10
290.0250
20
70.1500
30
0.0
0
VERTEX
5
341
8
Layer1
10
289.2250
20
70.1500
30
0.0
0
VERTEX
5
342
8
Layer1
10
289.2250
20
75.1500
30
0.0
0
VERTEX
5
343
8
Layer1
10
290.0250
20
75.1500
30
0.0
0
VERTEX
5
344
8
Layer1
10
290.0250
20
78.6500
30
0.0
0
VERTEX
5
345
8
Layer1
10
289.2250
20
78.6500
30
0.0
0
VERTEX
5
346
8
Layer1
10
289.2250
20
79.6500
30
0.0
0
VERTEX
5
347
8
Layer1
10
275.2250
20
79.6500
30
0.0
0
VERTEX
5
348
8
Layer1
10
275.2250
20
78.6500
30
0.0
0
VERTEX
5
349
8
Layer1
10
274.4250
20
78.6500
30
0.0
0
VERTEX
5
34a
8
Layer1
10
274.4250
20
75.1500
30
0.0
0
VERTEX
5
34b
8
Layer1
10
275.2250
20
75.1500
30
0.0
0
VERTEX
5
34c
8
Layer1
10
275.2250
20
70.1500
30
0.0
0
VERTEX
5
34d
8
Layer1
10
274.4250
20
70.1500
30
0.0
0
VERTEX
5
34e
8
Layer1
10
274.4250
20
66.6500
30
0.0
0
VERTEX
5
34f
8
Layer1
10
275.2250
20
66.6500
30
0.0
0
VERTEX
5
350
8
Layer1
10
275.2250
20
65.6500
30
0.0
0
VERTEX
5
351
8
Layer1
10
289.2250
20
65.6500
30
0.0
0
VERTEX
5
352
8
Layer1
10
289.2250
20
66.6500
30
0.0
0
SEQEND
5
353
8
Layer1
0
POLYLINE
5
354
8
Layer1
66
1
10
0.0
20
0.0
30
0.0
70
1
0
VERTEX
5
355
8
Layer1
10
308.2750
20
66.6500
30
0.0
0
VERTEX
5
356
8
Layer1
10
309.0750
20
66.6500
30
0.0
0
VERTEX
5
357
8
Layer1
10
309.0750
20
70.1500
30
0.0
0
VERTEX
5
358
8
Layer1
10
308.2750
20
70.1500
30
0.0
0
VERTEX
5
359
8
Layer1
10
308.2750
20
75.1500
30
0.0
0
VERTEX
5
35a
8
Layer1
10
309.0750
20
75.1500
30
0.0
0
VERTEX
5
35b
8
Layer1
10
309.0750
20
78.6500
30
0.0
0
VERTEX
5
35c
8
Layer1
10
308.2750
20
78.6500
30
0.0
0
VERTEX
5
35d
8
Layer1
10
308.2750
20
79.6500
30
0.0
0
VERTEX
5
35e
8
Layer1
10
294.2750
20
79.6500
30
0.0
0
VERTEX
5
35f
8
Layer1
10
294.2750
20
78.6500
30
0.0
0
VERTEX
5
360
8
Layer1
10
293.4750
20
78.6500
30
0.0
0
VERTEX
5
361
8
Layer1
10
293.4750
20
75.1500
30
0.0
0
VERTEX
5
362
8
Layer1
10
294.2750
20
75.1500
30
0.0
0
VERTEX
5
363
8
Layer1
10
294.2750
20
70.1500
30
0.0
0
VERTEX
5
364
8
Layer1
10
293.4750
20
70.1500
30
0.0
0
VERTEX
5
365
8
Layer1
10
293.4750
20
66.6500
30
0.0
0
VERTEX
5
366
8
Layer1
10
294.2750
20
66.6500
30
0.0
0
VERTEX
5
367
8
Layer1
10
294.2750
20
65.6500
30
0.0
0
VERTEX
5
368
8
Layer1
10
308.2750
20
65.6500
30
0.0
0
VERTEX
5
369
8
Layer1
10
308.2750
20
66.6500
30
0.0
0
SEQEND
5
36a
8
Layer1
0
POLYLINE
5
36b
8
Layer1
66
1
10
0.0
20
0.0
30
0.0
70
1
0
VERTEX
5
36c
8
Layer1
10
327.3250
20
66.6500
30
0.0
0
VERTEX
5
36d
8
Layer1
10
328.1250
20
66.6500
30
0.0
0
VERTEX
5
36e
8
Layer1
10
328.1250
20
70.1500
30
0.0
0
VERTEX
5
36f
8
Layer1
10
327.3250
20
70.1500
30
0.0
0
VERTEX
5
370
8
Layer1
10
327.3250
20
75.1500
30
0.0
0
VERTEX
5
371
8
Layer1
10
328.1250
20
75.1500
30
0.0
0
VERTEX
5
372
8
Layer1
10
328.1250
20
78.6500
30
0.0
0
VERTEX
5
373
8
Layer1
10
327.3250
20
78.6500
30
0.0
0
VERTEX
5
374
8
Layer1
10
327.3250
20
79.6500
30
0.0
0
VERTEX
5
375
8
Layer1
10
313.3250
20
79.6500
30
0.0
0
VERTEX
5
376
8
Layer1
10
313.3250
20
78.6500
30
0.0
0
VERTEX
5
377
8
Layer1
10
312.5250
20
78.6500
30
0.0
0
VERTEX
5
378
8
Layer1
10
312.5250
20
75.1500
30
0.0
0
VERTEX
5
379
8
Layer1
10
313.3250
20
75.1500
30
0.0
0
VERTEX
5
37a
8
Layer1
10
313.3250
20
70.1500
30
0.0
0
VERTEX
5
37b
8
Layer1
10
312.5250
20
70.1500
30
0.0
0
VERTEX
5
37c
8
Layer1
10
312.5250
20
66.6500
30
0.0
0
VERTEX
5
37d
8
Layer1
10
313.3250
20
66.6500
30
0.0
0
VERTEX
5
37e
8
Layer1
10
313.3250
20
65.6500
30
0.0
0
VERTEX
5
37f
8
Layer1
10
327.3250
20
65.6500
30
0.0
0
VERTEX
5
380
8
Layer1
10
327.3250
20
66.6500
30
0.0
0
SEQEND
5
381
8
Layer1
0
POLYLINE
5
382
8
Layer1
66
1
10
0.0
20
0.0
30
0.0
70
1
0
VERTEX
5
383
8
Layer1
10
351.1380
20
66.6500
30
0.0
0
VERTEX
5
384
8
Layer1
10
351.9380
20
66.6500
30
0.0
0
VERTEX
5
385
8
Layer1
10
351.9380
20
70.1500
30
0.0
0
VERTEX
5
386
8
Layer1
10
351.1380
20
70.1500
30
0.0
0
VERTEX
5
387
8
Layer1
10
351.1380
20
75.1500
30
0.0
0
VERTEX
5
388
8
Layer1
10
351.9380
20
75.1500
30
0.0
0
VERTEX
5
389
8
Layer1
10
351.9380
20
78.6500
30
0.0
0
VERTEX
5
38a
8
Layer1
10
351.1380
20
78.6500
30
0.0
0
VERTEX
5
38b
8
Layer1
10
351.1380
20
79.6500
30
0.0
0
VERTEX
5
38c
8
Layer1
10
337.1380
20
79.6500
30
0.0
0
VERTEX
5
38d
8
Layer1
10
337.1380
20
78.6500
30
0.0
0
VERTEX
5
38e
8
Layer1
10
336.3380
20
78.6500
30
0.0
0
VERTEX
5
38f
8
Layer1
10
336.3380
20
75.1500
30
0.0
0
VERTEX
5
390
8
Layer1
10
337.1380
20
75.1500
30
0.0
0
VERTEX
5
391
8
Layer1
10
337.1380
20
70.1500
30
0.0
0
VERTEX
5
392
8
Layer1
10
336.3380
20
70.1500
30
0.0
0
VERTEX
5
393
8
Layer1
10
336.3380
20
66.6500
30
0.0
0
VERTEX
5
394
8
Layer1
10
337.1380
20
66.6500
30
0.0
0
VERTEX
5
395
8
Layer1
10
337.1380
20
65.6500
30
0.0
0
VERTEX
5
396
8
Layer1
10
351.1380
20
65.6500
30
0.0
0
VERTEX
5
397
8
Layer1
10
351.1380
20
66.6500
30
0.0
0
SEQEND
5
398
8
Layer1
0
POLYLINE
5
399
8
Layer1
66
1
10
0.0
20
0.0
30
0.0
70
1
0
VERTEX
5
39a
8
Layer1
10
384.4750
20
66.6500
30
0.0
0
VERTEX
5
39b
8
Layer1
10
385.2750
20
66.6500
30
0.0
0
VERTEX
5
39c
8
Layer1
10
385.2750
20
70.1500
30
0.0
0
VERTEX
5
39d
8
Layer1
10
384.4750
20
70.1500
30
0.0
0
VERTEX
5
39e
8
Layer1
10
384.4750
20
75.1500
30
0.0
0
VERTEX
5
39f
8
Layer1
10
385.2750
20
75.1500
30
0.0
0
VERTEX
5
3a0
8
Layer1
10
385.2750
20
78.6500
30
0.0
0
VERTEX
5
3a1
8
Layer1
10
384.4750
20
78.6500
30
0.0
0
VERTEX
5
3a2
8
Layer1
10
384.4750
20
79.6500
30
0.0
0
VERTEX
5
3a3
8
Layer1
10
370.4750
20
79.6500
30
0.0
0
VERTEX
5
3a4
8
Layer1
10
370.4750
20
78.6500
30
0.0
0
VERTEX
5
3a5
8
Layer1
10
369.6750
20
78.6500
30
0.0
0
VERTEX
5
3a6
8
Layer1
10
369.6750
20
75.1500
30
0.0
0
VERTEX
5
3a7
8
Layer1
10
370.4750
20
75.1500
30
0.0
0
VERTEX
5
3a8
8
Layer1
10
370.4750
20
70.1500
30
0.0
0
VERTEX
5
3a9
8
Layer1
10
369.6750
20
70.1500
30
0.0
0
VERTEX
5
3aa
8
Layer1
10
369.6750
20
66.6500
30
0.0
0
VERTEX
5
3ab
8
Layer1
10
370.4750
20
66.6500
30
0.0
0
VERTEX
5
3ac
8
Layer1
10
370.4750
20
65.6500
30
0.0
0
VERTEX
5
3ad
8
Layer1
10
384.4750
20
65.6500
30
0.0
0
VERTEX
5
3ae
8
Layer1
10
384.4750
20
66.6500
30
0.0
0
SEQEND
5
3af
8
Layer1
0
POLYLINE
5
3b0
8
Layer1
66
1
10
0.0
20
0.0
30
0.0
70
1
0
VERTEX
5
3b1
8
Layer1
10
403.5250
20
66.6500
30
0.0
0
VERTEX
5
3b2
8
Layer1
10
404.3250
20
66.6500
30
0.0
0
VERTEX
5
3b3
8
Layer1
10
404.3250
20
70.1500
30
0.0
0
VERTEX
5
3b4
8
Layer1
10
403.5250
20
70.1500
30
0.0
0
VERTEX
5
3b5
8
Layer1
10
403.5250
20
75.1500
30
0.0
0
VERTEX
5
3b6
8
Layer1
10
404.3250
20
75.1500
30
0.0
0
VERTEX
5
3b7
8
Layer1
10
404.3250
20
78.6500
30
0.0
0
VERTEX
5
3b8
8
Layer1
10
403.5250
20
78.6500
30
0.0
0
VERTEX
5
3b9
8
Layer1
10
403.5250
20
79.6500
30
0.0
0
VERTEX
5
3ba
8
Layer1
10
389.5250
20
79.6500
30
0.0
0
VERTEX
5
3bb
8
Layer1
10
389.5250
20
78.6500
30
0.0
0
VERTEX
5
3bc
8
Layer1
10
388.7250
20
78.6500
30
0.0
0
VERTEX
5
3bd
8
Layer1
10
388.7250
20
75.1500
30
0.0
0
VERTEX
5
3be
8
Layer1
10
389.5250
20
75.1500
30
0.0
0
VERTEX
5
3bf
8
Layer1
10
389.5250
20
70.1500
30
0.0
0
VERTEX
5
3c0
8
Layer1
10
388.7250
20
70.1500
30
0.0
0
VERTEX
5
3c1
8
Layer1
10
388.7250
20
66.6500
30
0.0
0
VERTEX
5
3c2
8
Layer1
10
389.5250
20
66.6500
30
0.0
0
VERTEX
5
3c3
8
Layer1
10
389.5250
20
65.6500
30
0.0
0
VERTEX
5
3c4
8
Layer1
10
403.5250
20
65.6500
30
0.0
0
VERTEX
5
3c5
8
Layer1
10
403.5250
20
66.6500
30
0.0
0
SEQEND
5
3c6
8
Layer1
0
POLYLINE
5
3c7
8
Layer1
66
1
10
0.0
20
0.0
30
0.0
70
1
0
VERTEX
5
3c8
8
Layer1
10
422.5750
20
66.6500
30
0.0
0
VERTEX
5
3c9
8
Layer1
10
423.3750
20
66.6500
30
0.0
0
VERTEX
5
3ca
8
Layer1
10
423.3750
20
70.1500
30
0.0
0
VERTEX
5
3cb
8
Layer1
10
422.5750
20
70.1500
30
0.0
0
VERTEX
5
3cc
8
Layer1
10
422.5750
20
75.1500
30
0.0
0
VERTEX
5
3cd
8
Layer1
10
423.3750
20
75.1500
30
0.0
0
VERTEX
5
3ce
8
Layer1
10
423.3750
20
78.6500
30
0.0
0
VERTEX
5
3cf
8
Layer1
10
422.5750
20
78.6500
30
0.0
0
VERTEX
5
3d0
8
Layer1
10
422.5750
20
79.6500
30
0.0
0
VERTEX
5
3d1
8
Layer1
10
408.5750
20
79.6500
30
0.0
0
VERTEX
5
3d2
8
Layer1
10
408.5750
20
78.6500
30
0.0
0
VERTEX
5
3d3
8
Layer1
10
407.7750
20
78.6500
30
0.0
0
VERTEX
5
3d4
8
Layer1
10
407.7750
20
75.1500
30
0.0
0
VERTEX
5
3d5
8
Layer1
10
408.5750
20
75.1500
30
0.0
0
VERTEX
5
3d6
8
Layer1
10
408.5750
20
70.1500
30
0.0
0
VERTEX
5
3d7
8
Layer1
10
407.7750
20
70.1500
30
0.0
0
VERTEX
5
3d8
8
Layer1
10
407.7750
20
66.6500
30
0.0
0
VERTEX
5
3d9
8
Layer1
10
408.5750
20
66.6500
30
0.0
0
VERTEX
5
3da
8
Layer1
10
408.5750
20
65.6500
30
0.0
0
VERTEX
5
3db
8
Layer1
10
422.5750
20
65.6500
30
0.0
0
VERTEX
5
3dc
8
Layer1
10
422.5750
20
66.6500
30
0.0
0
SEQEND
5
3dd
8
Layer1
0
POLYLINE
5
3de
8
Layer1
66
1
10
0.0
20
0.0
30
0.0
70
1
0
VERTEX
5
3df
8
Layer1
10
441.6250
20
66.6500
30
0.0
0
VERTEX
5
3e0
8
Layer1
10
442.4250
20
66.6500
30
0.0
0
VERTEX
5
3e1
8
Layer1
10
442.4250
20
70.1500
30
0.0
0
VERTEX
5
3e2
8
Layer1
10
441.6250
20
70.1500
30
0.0
0
VERTEX
5
3e3
8
Layer1
10
441.6250
20
75.1500
30
0.0
0
VERTEX
5
3e4
8
Layer1
10
442.4250
20
75.1500
30
0.0
0
VERTEX
5
3e5
8
Layer1
10
442.4250
20
78.6500
30
0.0
0
VERTEX
5
3e6
8
Layer1
10
441.6250
20
78.6500
30
0.0
0
VERTEX
5
3e7
8
Layer1
10
441.6250
20
79.6500
30
0.0
0
VERTEX
5
3e8
8
Layer1
10
427.6250
20
79.6500
30
0.0
0
VERTEX
5
3e9
8
Layer1
10
427.6250
20
78.6500
30
0.0
0
VERTEX
5
3ea
8
Layer1
10
426.8250
20
78.6500
30
0.0
0
VERTEX
5
3eb
8
Layer1
10
426.8250
20
75.1500
30
0.0
0
VERTEX
5
3ec
8
Layer1
10
427.6250
20
75.1500
30
0.0
0
VERTEX
5
3ed
8
Layer1
10
427.6250
20
70.1500
30
0.0
0
VERTEX
5
3ee
8
Layer1
10
426.8250
20
70.1500
30
0.0
0
VERTEX
5
3ef
8
Layer1
10
426.8250
20
66.6500
30
0.0
0
VERTEX
5
3f0
8
Layer1
10
427.6250
20
66.6500
30
0.0
0
VERTEX
5
3f1
8
Layer1
10
427.6250
20
65.6500
30
0.0
0
VERTEX
5
3f2
8
Layer1
10
441.6250
20
65.6500
30
0.0
0
VERTEX
5
3f3
8
Layer1
10
441.6250
20
66.6500
30
0.0
0
SEQEND
5
3f4
8
Layer1
0
POLYLINE
5
3f5
8
Layer1
66
1
10
0.0
20
0.0
30
0.0
70
1
0
VERTEX
5
3f6
8
Layer1
10
22.5250
20
47.6000
30
0.0
0
VERTEX
5
3f7
8
Layer1
10
23.3250
20
47.6000
30
0.0
0
VERTEX
5
3f8
8
Layer1
10
23.3250
20
51.1000
30
0.0
0
VERTEX
5
3f9
8
Layer1
10
22.5250
20
51.1000
30
0.0
0
VERTEX
5
3fa
8
Layer1
10
22.5250
20
56.1000
30
0.0
0
VERTEX
5
3fb
8
Layer1
10
23.3250
20
56.1000
30
0.0
0
VERTEX
5
3fc
8
Layer1
10
23.3250
20
59.6000
30
0.0
0
VERTEX
5
3fd
8
Layer1
10
22.5250
20
59.6000
30
0.0
0
VERTEX
5
3fe
8
Layer1
10
22.5250
20
60.6000
30
0.0
0
VERTEX
5
3ff
8
Layer1
10
8.5250
20
60.6000
30
0.0
0
VERTEX
5
400
8
Layer1
10
8.5250
20
59.6000
30
0.0
0
VERTEX
5
401
8
Layer1
10
7.7250
20
59.6000
30
0.0
0
VERTEX
5
402
8
Layer1
10
7.7250
20
56.1000
30
0.0
0
VERTEX
5
403
8
Layer1
10
8.5250
20
56.1000
30
0.0
0
VERTEX
5
404
8
Layer1
10
8.5250
20
51.1000
30
0.0
0
VERTEX
5
405
8
Layer1
10
7.7250
20
51.1000
30
0.0
0
VERTEX
5
406
8
Layer1
10
7.7250
20
47.6000
30
0.0
0
VERTEX
5
407
8
Layer1
10
8.5250
20
47.6000
30
0.0
0
VERTEX
5
408
8
Layer1
10
8.5250
20
46.6000
30
0.0
0
VERTEX
5
409
8
Layer1
10
22.5250
20
46.6000
30
0.0
0
VERTEX
5
40a
8
Layer1
10
22.5250
20
47.6000
30
0.0
0
SEQEND
5
40b
8
Layer1
0
POLYLINE
5
40c
8
Layer1
66
1
10
0.0
20
0.0
30
0.0
70
1
0
VERTEX
5
40d
8
Layer1
10
41.5750
20
47.6000
30
0.0
0
VERTEX
5
40e
8
Layer1
10
42.3750
20
47.6000
30
0.0
0
VERTEX
5
40f
8
Layer1
10
42.3750
20
51.1000
30
0.0
0
VERTEX
5
410
8
Layer1
10
41.5750
20
51.1000
30
0.0
0
VERTEX
5
411
8
Layer1
10
41.5750
20
56.1000
30
0.0
0
VERTEX
5
412
8
Layer1
10
42.3750
20
56.1000
30
0.0
0
VERTEX
5
413
8
Layer1
10
42.3750
20
59.6000
30
0.0
0
VERTEX
5
414
8
Layer1
10
41.5750
20
59.6000
30
0.0
0
VERTEX
5
415
8
Layer1
10
41.5750
20
60.6000
30
0.0
0
VERTEX
5
416
8
Layer1
10
27.5750
20
60.6000
30
0.0
0
VERTEX
5
417
8
Layer1
10
27.5750
20
59.6000
30
0.0
0
VERTEX
5
418
8
Layer1
10
26.7750
20
59.6000
30
0.0
0
VERTEX
5
419
8
Layer1
10
26.7750
20
56.1000
30
0.0
0
VERTEX
5
41a
8
Layer1
10
27.5750
20
56.1000
30
0.0
0
VERTEX
5
41b
8
Layer1
10
27.5750
20
51.1000
30
0.0
0
VERTEX
5
41c
8
Layer1
10
26.7750
20
51.1000
30
0.0
0
VERTEX
5
41d
8
Layer1
10
26.7750
20
47.6000
30
0.0
0
VERTEX
5
41e
8
Layer1
10
27.5750
20
47.6000
30
0.0
0
VERTEX
5
41f
8
Layer1
10
27.5750
20
46.6000
30
0.0
0
VERTEX
5
420
8
Layer1
10
41.5750
20
46.6000
30
0.0
0
VERTEX
5
421
8
Layer1
10
41.5750
20
47.6000
30
0.0
0
SEQEND
5
422
8
Layer1
0
POLYLINE
5
423
8
Layer1
66
1
10
0.0
20
0.0
30
0.0
70
1
0
VERTEX
5
424
8
Layer1
10
60.6250
20
47.6000
30
0.0
0
VERTEX
5
425
8
Layer1
10
61.4250
20
47.6000
30
0.0
0
VERTEX
5
426
8
Layer1
10
61.4250
20
51.1000
30
0.0
0
VERTEX
5
427
8
Layer1
10
60.6250
20
51.1000
30
0.0
0
VERTEX
5
428
8
Layer1
10
60.6250
20
56.1000
30
0.0
0
VERTEX
5
429
8
Layer1
10
61.4250
20
56.1000
30
0.0
0
VERTEX
5
42a
8
Layer1
10
61.4250
20
59.6000
30
0.0
0
VERTEX
5
42b
8
Layer1
10
60.6250
20
59.6000
30
0.0
0
VERTEX
5
42c
8
Layer1
10
60.6250
20
60.6000
30
0.0
0
VERTEX
5
42d
8
Layer1
10
46.6250
20
60.6000
30
0.0
0
VERTEX
5
42e
8
Layer1
10
46.6250
20
59.6000
30
0.0
0
VERTEX
5
42f
8
Layer1
10
45.8250
20
59.6000
30
0.0
0
VERTEX
5
430
8
Layer1
10
45.8250
20
56.1000
30
0.0
0
VERTEX
5
431
8
Layer1
10
46.6250
20
56.1000
30
0.0
0
VERTEX
5
432
8
Layer1
10
46.6250
20
51.1000
30
0.0
0
VERTEX
5
433
8
Layer1
10
45.8250
20
51.1000
30
0.0
0
VERTEX
5
434
8
Layer1
10
45.8250
20
47.6000
30
0.0
0
VERTEX
5
435
8
Layer1
10
46.6250
20
47.6000
30
0.0
0
VERTEX
5
436
8
Layer1
10
46.6250
20
46.6000
30
0.0
0
VERTEX
5
437
8
Layer1
10
60.6250
20
46.6000
30
0.0
0
VERTEX
5
438
8
Layer1
10
60.6250
20
47.6000
30
0.0
0
SEQEND
5
439
8
Layer1
0
POLYLINE
5
43a
8
Layer1
66
1
10
0.0
20
0.0
30
0.0
70
1
0
VERTEX
5
43b
8
Layer1
10
96.3440
20
47.6000
30
0.0
0
VERTEX
5
43c
8
Layer1
10
97.1440
20
47.6000
30
0.0
0
VERTEX
5
43d
8
Layer1
10
97.1440
20
51.1000
30
0.0
0
VERTEX
5
43e
8
Layer1
10
96.3440
20
51.1000
30
0.0
0
VERTEX
5
43f
8
Layer1
10
96.3440
20
56.1000
30
0.0
0
VERTEX
5
440
8
Layer1
10
97.1440
20
56.1000
30
0.0
0
VERTEX
5
441
8
Layer1
10
97.1440
20
59.6000
30
0.0
0
VERTEX
5
442
8
Layer1
10
96.3440
20
59.6000
30
0.0
0
VERTEX
5
443
8
Layer1
10
96.3440
20
60.6000
30
0.0
0
VERTEX
5
444
8
Layer1
10
82.3440
20
60.6000
30
0.0
0
VERTEX
5
445
8
Layer1
10
82.3440
20
59.6000
30
0.0
0
VERTEX
5
446
8
Layer1
10
81.5440
20
59.6000
30
0.0
0
VERTEX
5
447
8
Layer1
10
81.5440
20
56.1000
30
0.0
0
VERTEX
5
448
8
Layer1
10
82.3440
20
56.1000
30
0.0
0
VERTEX
5
449
8
Layer1
10
82.3440
20
51.1000
30
0.0
0
VERTEX
5
44a
8
Layer1
10
81.5440
20
51.1000
30
0.0
0
VERTEX
5
44b
8
Layer1
10
81.5440
20
47.6000
30
0.0
0
VERTEX
5
44c
8
Layer1
10
82.3440
20
47.6000
30
0.0
0
VERTEX
5
44d
8
Layer1
10
82.3440
20
46.6000
30
0.0
0
VERTEX
5
44e
8
Layer1
10
96.3440
20
46.6000
30
0.0
0
VERTEX
5
44f
8
Layer1
10
96.3440
20
47.6000
30
0.0
0
SEQEND
5
450
8
Layer1
0
POLYLINE
5
451
8
Layer1
66
1
10
0.0
20
0.0
30
0.0
70
1
0
VERTEX
5
452
8
Layer1
10
122.5380
20
47.6000
30
0.0
0
VERTEX
5
453
8
Layer1
10
123.3380
20
47.6000
30
0.0
0
VERTEX
5
454
8
Layer1
10
123.3380
20
51.1000
30
0.0
0
VERTEX
5
455
8
Layer1
10
122.5380
20
51.1000
30
0.0
0
VERTEX
5
456
8
Layer1
10
122.5380
20
56.1000
30
0.0
0
VERTEX
5
457
8
Layer1
10
123.3380
20
56.1000
30
0.0
0
VERTEX
5
458
8
Layer1
10
123.3380
20
59.6000
30
0.0
0
VERTEX
5
459
8
Layer1
10
122.5380
20
59.6000
30
0.0
0
VERTEX
5
45a
8
Layer1
10
122.5380
20
60.6000
30
0.0
0
VERTEX
5
45b
8
Layer1
10
108.5380
20
60.6000
30
0.0
0
VERTEX
5
45c
8
Layer1
10
108.5380
20
59.6000
30
0.0
0
VERTEX
5
45d
8
Layer1
10
107.7380
20
59.6000
30
0.0
0
VERTEX
5
45e
8
Layer1
10
107.7380
20
56.1000
30
0.0
0
VERTEX
5
45f
8
Layer1
10
108.5380
20
56.1000
30
0.0
0
VERTEX
5
460
8
Layer1
10
108.5380
20
51.1000
30
0.0
0
VERTEX
5
461
8
Layer1
10
107.7380
20
51.1000
30
0.0
0
VERTEX
5
462
8
Layer1
10
107.7380
20
47.6000
30
0.0
0
VERTEX
5
463
8
Layer1
10
108.5380
20
47.6000
30
0.0
0
VERTEX
5
464
8
Layer1
10
108.5380
20
46.6000
30
0.0
0
VERTEX
5
465
8
Layer1
10
122.5380
20
46.6000
30
0.0
0
VERTEX
5
466
8
Layer1
10
122.5380
20
47.6000
30
0.0
0
SEQEND
5
467
8
Layer1
0
POLYLINE
5
468
8
Layer1
66
1
10
0.0
20
0.0
30
0.0
70
1
0
VERTEX
5
469
8
Layer1
10
141.5880
20
47.6000
30
0.0
0
VERTEX
5
46a
8
Layer1
10
142.3880
20
47.6000
30
0.0
0
VERTEX
5
46b
8
Layer1
10
142.3880
20
51.1000
30
0.0
0
VERTEX
5
46c
8
Layer1
10
141.5880
20
51.1000
30
0.0
0
VERTEX
5
46d
8
Layer1
10
141.5880
20
56.1000
30
0.0
0
VERTEX
5
46e
8
Layer1
10
142.3880
20
56.1000
30
0.0
0
VERTEX
5
46f
8
Layer1
10
142.3880
20
59.6000
30
0.0
0
VERTEX
5
470
8
Layer1
10
141.5880
20
59.6000
30
0.0
0
VERTEX
5
471
8
Layer1
10
141.5880
20
60.6000
30
0.0
0
VERTEX
5
472
8
Layer1
10
127.5880
20
60.6000
30
0.0
0
VERTEX
5
473
8
Layer1
10
127.5880
20
59.6000
30
0.0
0
VERTEX
5
474
8
Layer1
10
126.7880
20
59.6000
30
0.0
0
VERTEX
5
475
8
Layer1
10
126.7880
20
56.1000
30
0.0
0
VERTEX
5
476
8
Layer1
10
127.5880
20
56.1000
30
0.0
0
VERTEX
5
477
8
Layer1
10
127.5880
20
51.1000
30
0.0
0
VERTEX
5
478
8
Layer1
10
126.7880
20
51.1000
30
0.0
0
VERTEX
5
479
8
Layer1
10
126.7880
20
47.6000
30
0.0
0
VERTEX
5
47a
8
Layer1
10
127.5880
20
47.6000
30
0.0
0
VERTEX
5
47b
8
Layer1
10
127.5880
20
46.6000
30
0.0
0
VERTEX
5
47c
8
Layer1
10
141.5880
20
46.6000
30
0.0
0
VERTEX
5
47d
8
Layer1
10
141.5880
20
47.6000
30
0.0
0
SEQEND
5
47e
8
Layer1
0
POLYLINE
5
47f
8
Layer1
66
1
10
0.0
20
0.0
30
0.0
70
1
0
VERTEX
5
480
8
Layer1
10
160.6380
20
47.6000
30
0.0
0
VERTEX
5
481
8
Layer1
10
161.4380
20
47.6000
30
0.0
0
VERTEX
5
482
8
Layer1
10
161.4380
20
51.1000
30
0.0
0
VERTEX
5
483
8
Layer1
10
160.6380
20
51.1000
30
0.0
0
VERTEX
5
484
8
Layer1
10
160.6380
20
56.1000
30
0.0
0
VERTEX
5
485
8
Layer1
10
161.4380
20
56.1000
30
0.0
0
VERTEX
5
486
8
Layer1
10
161.4380
20
59.6000
30
0.0
0
VERTEX
5
487
8
Layer1
10
160.6380
20
59.6000
30
0.0
0
VERTEX
5
488
8
Layer1
10
160.6380
20
60.6000
30
0.0
0
VERTEX
5
489
8
Layer1
10
146.6380
20
60.6000
30
0.0
0
VERTEX
5
48a
8
Layer1
10
146.6380
20
59.6000
30
0.0
0
VERTEX
5
48b
8
Layer1
10
145.8380
20
59.6000
30
0.0
0
VERTEX
5
48c
8
Layer1
10
145.8380
20
56.1000
30
0.0
0
VERTEX
5
48d
8
Layer1
10
146.6380
20
56.1000
30
0.0
0
VERTEX
5
48e
8
Layer1
10
146.6380
20
51.1000
30
0.0
0
VERTEX
5
48f
8
Layer1
10
145.8380
20
51.1000
30
0.0
0
VERTEX
5
490
8
Layer1
10
145.8380
20
47.6000
30
0.0
0
VERTEX
5
491
8
Layer1
10
146.6380
20
47.6000
30
0.0
0
VERTEX
5
492
8
Layer1
10
146.6380
20
46.6000
30
0.0
0
VERTEX
5
493
8
Layer1
10
160.6380
20
46.6000
30
0.0
0
VERTEX
5
494
8
Layer1
10
160.6380
20
47.6000
30
0.0
0
SEQEND
5
495
8
Layer1
0
POLYLINE
5
496
8
Layer1
66
1
10
0.0
20
0.0
30
0.0
70
1
0
VERTEX
5
497
8
Layer1
10
179.6880
20
47.6000
30
0.0
0
VERTEX
5
498
8
Layer1
10
180.4880
20
47.6000
30
0.0
0
VERTEX
5
499
8
Layer1
10
180.4880
20
51.1000
30
0.0
0
VERTEX
5
49a
8
Layer1
10
179.6880
20
51.1000
30
0.0
0
VERTEX
5
49b
8
Layer1
10
179.6880
20
56.1000
30
0.0
0
VERTEX
5
49c
8
Layer1
10
180.4880
20
56.1000
30
0.0
0
VERTEX
5
49d
8
Layer1
10
180.4880
20
59.6000
30
0.0
0
VERTEX
5
49e
8
Layer1
10
179.6880
20
59.6000
30
0.0
0
VERTEX
5
49f
8
Layer1
10
179.6880
20
60.6000
30
0.0
0
VERTEX
5
4a0
8
Layer1
10
165.6880
20
60.6000
30
0.0
0
VERTEX
5
4a1
8
Layer1
10
165.6880
20
59.6000
30
0.0
0
VERTEX
5
4a2
8
Layer1
10
164.8880
20
59.6000
30
0.0
0
VERTEX
5
4a3
8
Layer1
10
164.8880
20
56.1000
30
0.0
0
VERTEX
5
4a4
8
Layer1
10
165.6880
20
56.1000
30
0.0
0
VERTEX
5
4a5
8
Layer1
10
165.6880
20
51.1000
30
0.0
0
VERTEX
5
4a6
8
Layer1
10
164.8880
20
51.1000
30
0.0
0
VERTEX
5
4a7
8
Layer1
10
164.8880
20
47.6000
30
0.0
0
VERTEX
5
4a8
8
Layer1
10
165.6880
20
47.6000
30
0.0
0
VERTEX
5
4a9
8
Layer1
10
165.6880
20
46.6000
30
0.0
0
VERTEX
5
4aa
8
Layer1
10
179.6880
20
46.6000
30
0.0
0
VERTEX
5
4ab
8
Layer1
10
179.6880
20
47.6000
30
0.0
0
SEQEND
5
4ac
8
Layer1
0
POLYLINE
5
4ad
8
Layer1
66
1
10
0.0
20
0.0
30
0.0
70
1
0
VERTEX
5
4ae
8
Layer1
10
198.7380
20
47.6000
30
0.0
0
VERTEX
5
4af
8
Layer1
10
199.5380
20
47.6000
30
0.0
0
VERTEX
5
4b0
8
Layer1
10
199.5380
20
51.1000
30
0.0
0
VERTEX
5
4b1
8
Layer1
10
198.7380
20
51.1000
30
0.0
0
VERTEX
5
4b2
8
Layer1
10
198.7380
20
56.1000
30
0.0
0
VERTEX
5
4b3
8
Layer1
10
199.5380
20
56.1000
30
0.0
0
VERTEX
5
4b4
8
Layer1
10
199.5380
20
59.6000
30
0.0
0
VERTEX
5
4b5
8
Layer1
10
198.7380
20
59.6000
30
0.0
0
VERTEX
5
4b6
8
Layer1
10
198.7380
20
60.6000
30
0.0
0
VERTEX
5
4b7
8
Layer1
10
184.7380
20
60.6000
30
0.0
0
VERTEX
5
4b8
8
Layer1
10
184.7380
20
59.6000
30
0.0
0
VERTEX
5
4b9
8
Layer1
10
183.9380
20
59.6000
30
0.0
0
VERTEX
5
4ba
8
Layer1
10
183.9380
20
56.1000
30
0.0
0
VERTEX
5
4bb
8
Layer1
10
184.7380
20
56.1000
30
0.0
0
VERTEX
5
4bc
8
Layer1
10
184.7380
20
51.1000
30
0.0
0
VERTEX
5
4bd
8
Layer1
10
183.9380
20
51.1000
30
0.0
0
VERTEX
5
4be
8
Layer1
10
183.9380
20
47.6000
30
0.0
0
VERTEX
5
4bf
8
Layer1
10
184.7380
20
47.6000
30
0.0
0
VERTEX
5
4c0
8
Layer1
10
184.7380
20
46.6000
30
0.0
0
VERTEX
5
4c1
8
Layer1
10
198.7380
20
46.6000
30
0.0
0
VERTEX
5
4c2
8
Layer1
10
198.7380
20
47.6000
30
0.0
0
SEQEND
5
4c3
8
Layer1
0
POLYLINE
5
4c4
8
Layer1
66
1
10
0.0
20
0.0
30
0.0
70
1
0
VERTEX
5
4c5
8
Layer1
10
217.7880
20
47.6000
30
0.0
0
VERTEX
5
4c6
8
Layer1
10
218.5880
20
47.6000
30
0.0
0
VERTEX
5
4c7
8
Layer1
10
218.5880
20
51.1000
30
0.0
0
VERTEX
5
4c8
8
Layer1
10
217.7880
20
51.1000
30
0.0
0
VERTEX
5
4c9
8
Layer1
10
217.7880
20
56.1000
30
0.0
0
VERTEX
5
4ca
8
Layer1
10
218.5880
20
56.1000
30
0.0
0
VERTEX
5
4cb
8
Layer1
10
218.5880
20
59.6000
30
0.0
0
VERTEX
5
4cc
8
Layer1
10
217.7880
20
59.6000
30
0.0
0
VERTEX
5
4cd
8
Layer1
10
217.7880
20
60.6000
30
0.0
0
VERTEX
5
4ce
8
Layer1
10
203.7880
20
60.6000
30
0.0
0
VERTEX
5
4cf
8
Layer1
10
203.7880
20
59.6000
30
0.0
0
VERTEX
5
4d0
8
Layer1
10
202.9880
20
59.6000
30
0.0
0
VERTEX
5
4d1
8
Layer1
10
202.9880
20
56.1000
30
0.0
0
VERTEX
5
4d2
8
Layer1
10
203.7880
20
56.1000
30
0.0
0
VERTEX
5
4d3
8
Layer1
10
203.7880
20
51.1000
30
0.0
0
VERTEX
5
4d4
8
Layer1
10
202.9880
20
51.1000
30
0.0
0
VERTEX
5
4d5
8
Layer1
10
202.9880
20
47.6000
30
0.0
0
VERTEX
5
4d6
8
Layer1
10
203.7880
20
47.6000
30
0.0
0
VERTEX
5
4d7
8
Layer1
10
203.7880
20
46.6000
30
0.0
0
VERTEX
5
4d8
8
Layer1
10
217.7880
20
46.6000
30
0.0
0
VERTEX
5
4d9
8
Layer1
10
217.7880
20
47.6000
30
0.0
0
SEQEND
5
4da
8
Layer1
0
POLYLINE
5
4db
8
Layer1
66
1
10
0.0
20
0.0
30
0.0
70
1
0
VERTEX
5
4dc
8
Layer1
10
236.8380
20
47.6000
30
0.0
0
VERTEX
5
4dd
8
Layer1
10
237.6380
20
47.6000
30
0.0
0
VERTEX
5
4de
8
Layer1
10
237.6380
20
51.1000
30
0.0
0
VERTEX
5
4df
8
Layer1
10
236.8380
20
51.1000
30
0.0
0
VERTEX
5
4e0
8
Layer1
10
236.8380
20
56.1000
30
0.0
0
VERTEX
5
4e1
8
Layer1
10
237.6380
20
56.1000
30
0.0
0
VERTEX
5
4e2
8
Layer1
10
237.6380
20
59.6000
30
0.0
0
VERTEX
5
4e3
8
Layer1
10
236.8380
20
59.6000
30
0.0
0
VERTEX
5
4e4
8
Layer1
10
236.8380
20
60.6000
30
0.0
0
VERTEX
5
4e5
8
Layer1
10
222.8380
20
60.6000
30
0.0
0
VERTEX
5
4e6
8
Layer1
10
222.8380
20
59.6000
30
0.0
0
VERTEX
5
4e7
8
Layer1
10
222.0380
20
59.6000
30
0.0
0
VERTEX
5
4e8
8
Layer1
10
222.0380
20
56.1000
30
0.0
0
VERTEX
5
4e9
8
Layer1
10
222.8380
20
56.1000
30
0.0
0
VERTEX
5
4ea
8
Layer1
10
222.8380
20
51.1000
30
0.0
0
VERTEX
5
4eb
8
Layer1
10
222.0380
20
51.1000
30
0.0
0
VERTEX
5
4ec
8
Layer1
10
222.0380
20
47.6000
30
0.0
0
VERTEX
5
4ed
8
Layer1
10
222.8380
20
47.6000
30
0.0
0
VERTEX
5
4ee
8
Layer1
10
222.8380
20
46.6000
30
0.0
0
VERTEX
5
4ef
8
Layer1
10
236.8380
20
46.6000
30
0.0
0
VERTEX
5
4f0
8
Layer1
10
236.8380
20
47.6000
30
0.0
0
SEQEND
5
4f1
8
Layer1
0
POLYLINE
5
4f2
8
Layer1
66
1
10
0.0
20
0.0
30
0.0
70
1
0
VERTEX
5
4f3
8
Layer1
10
255.8880
20
47.6000
30
0.0
0
VERTEX
5
4f4
8
Layer1
10
256.6880
20
47.6000
30
0.0
0
VERTEX
5
4f5
8
Layer1
10
256.6880
20
51.1000
30
0.0
0
VERTEX
5
4f6
8
Layer1
10
255.8880
20
51.1000
30
0.0
0
VERTEX
5
4f7
8
Layer1
10
255.8880
20
56.1000
30
0.0
0
VERTEX
5
4f8
8
Layer1
10
256.6880
20
56.1000
30
0.0
0
VERTEX
5
4f9
8
Layer1
10
256.6880
20
59.6000
30
0.0
0
VERTEX
5
4fa
8
Layer1
10
255.8880
20
59.6000
30
0.0
0
VERTEX
5
4fb
8
Layer1
10
255.8880
20
60.6000
30
0.0
0
VERTEX
5
4fc
8
Layer1
10
241.8880
20
60.6000
30
0.0
0
VERTEX
5
4fd
8
Layer1
10
241.8880
20
59.6000
30
0.0
0
VERTEX
5
4fe
8
Layer1
10
241.0880
20
59.6000
30
0.0
0
VERTEX
5
4ff
8
Layer1
10
241.0880
20
56.1000
30
0.0
0
VERTEX
5
500
8
Layer1
10
241.8880
20
56.1000
30
0.0
0
VERTEX
5
501
8
Layer1
10
241.8880
20
51.1000
30
0.0
0
VERTEX
5
502
8
Layer1
10
241.0880
20
51.1000
30
0.0
0
VERTEX
5
503
8
Layer1
10
241.0880
20
47.6000
30
0.0
0
VERTEX
5
504
8
Layer1
10
241.8880
20
47.6000
30
0.0
0
VERTEX
5
505
8
Layer1
10
241.8880
20
46.6000
30
0.0
0
VERTEX
5
506
8
Layer1
10
255.8880
20
46.6000
30
0.0
0
VERTEX
5
507
8
Layer1
10
255.8880
20
47.6000
30
0.0
0
SEQEND
5
508
8
Layer1
0
POLYLINE
5
509
8
Layer1
66
1
10
0.0
20
0.0
30
0.0
70
1
0
VERTEX
5
50a
8
Layer1
10
274.9380
20
47.6000
30
0.0
0
VERTEX
5
50b
8
Layer1
10
275.7380
20
47.6000
30
0.0
0
VERTEX
5
50c
8
Layer1
10
275.7380
20
51.1000
30
0.0
0
VERTEX
5
50d
8
Layer1
10
274.9380
20
51.1000
30
0.0
0
VERTEX
5
50e
8
Layer1
10
274.9380
20
56.1000
30
0.0
0
VERTEX
5
50f
8
Layer1
10
275.7380
20
56.1000
30
0.0
0
VERTEX
5
510
8
Layer1
10
275.7380
20
59.6000
30
0.0
0
VERTEX
5
511
8
Layer1
10
274.9380
20
59.6000
30
0.0
0
VERTEX
5
512
8
Layer1
10
274.9380
20
60.6000
30
0.0
0
VERTEX
5
513
8
Layer1
10
260.9380
20
60.6000
30
0.0
0
VERTEX
5
514
8
Layer1
10
260.9380
20
59.6000
30
0.0
0
VERTEX
5
515
8
Layer1
10
260.1380
20
59.6000
30
0.0
0
VERTEX
5
516
8
Layer1
10
260.1380
20
56.1000
30
0.0
0
VERTEX
5
517
8
Layer1
10
260.9380
20
56.1000
30
0.0
0
VERTEX
5
518
8
Layer1
10
260.9380
20
51.1000
30
0.0
0
VERTEX
5
519
8
Layer1
10
260.1380
20
51.1000
30
0.0
0
VERTEX
5
51a
8
Layer1
10
260.1380
20
47.6000
30
0.0
0
VERTEX
5
51b
8
Layer1
10
260.9380
20
47.6000
30
0.0
0
VERTEX
5
51c
8
Layer1
10
260.9380
20
46.6000
30
0.0
0
VERTEX
5
51d
8
Layer1
10
274.9380
20
46.6000
30
0.0
0
VERTEX
5
51e
8
Layer1
10
274.9380
20
47.6000
30
0.0
0
SEQEND
5
51f
8
Layer1
0
POLYLINE
5
520
8
Layer1
66
1
10
0.0
20
0.0
30
0.0
70
1
0
VERTEX
5
521
8
Layer1
10
293.9880
20
47.6000
30
0.0
0
VERTEX
5
522
8
Layer1
10
294.7880
20
47.6000
30
0.0
0
VERTEX
5
523
8
Layer1
10
294.7880
20
51.1000
30
0.0
0
VERTEX
5
524
8
Layer1
10
293.9880
20
51.1000
30
0.0
0
VERTEX
5
525
8
Layer1
10
293.9880
20
56.1000
30
0.0
0
VERTEX
5
526
8
Layer1
10
294.7880
20
56.1000
30
0.0
0
VERTEX
5
527
8
Layer1
10
294.7880
20
59.6000
30
0.0
0
VERTEX
5
528
8
Layer1
10
293.9880
20
59.6000
30
0.0
0
VERTEX
5
529
8
Layer1
10
293.9880
20
60.6000
30
0.0
0
VERTEX
5
52a
8
Layer1
10
279.9880
20
60.6000
30
0.0
0
VERTEX
5
52b
8
Layer1
10
279.9880
20
59.6000
30
0.0
0
VERTEX
5
52c
8
Layer1
10
279.1880
20
59.6000
30
0.0
0
VERTEX
5
52d
8
Layer1
10
279.1880
20
56.1000
30
0.0
0
VERTEX
5
52e
8
Layer1
10
279.9880
20
56.1000
30
0.0
0
VERTEX
5
52f
8
Layer1
10
279.9880
20
51.1000
30
0.0
0
VERTEX
5
530
8
Layer1
10
279.1880
20
51.1000
30
0.0
0
VERTEX
5
531
8
Layer1
10
279.1880
20
47.6000
30
0.0
0
VERTEX
5
532
8
Layer1
10
279.9880
20
47.6000
30
0.0
0
VERTEX
5
533
8
Layer1
10
279.9880
20
46.6000
30
0.0
0
VERTEX
5
534
8
Layer1
10
293.9880
20
46.6000
30
0.0
0
VERTEX
5
535
8
Layer1
10
293.9880
20
47.6000
30
0.0
0
SEQEND
5
536
8
Layer1
0
POLYLINE
5
537
8
Layer1
66
1
10
0.0
20
0.0
30
0.0
70
1
0
VERTEX
5
538
8
Layer1
10
313.0370
20
47.6000
30
0.0
0
VERTEX
5
539
8
Layer1
10
313.8380
20
47.6000
30
0.0
0
VERTEX
5
53a
8
Layer1
10
313.8380
20
51.1000
30
0.0
0
VERTEX
5
53b
8
Layer1
10
313.0370
20
51.1000
30
0.0
0
VERTEX
5
53c
8
Layer1
10
313.0370
20
56.1000
30
0.0
0
VERTEX
5
53d
8
Layer1
10
313.8380
20
56.1000
30
0.0
0
VERTEX
5
53e
8
Layer1
10
313.8380
20
59.6000
30
0.0
0
VERTEX
5
53f
8
Layer1
10
313.0370
20
59.6000
30
0.0
0
VERTEX
5
540
8
Layer1
10
313.0370
20
60.6000
30
0.0
0
VERTEX
5
541
8
Layer1
10
299.0370
20
60.6000
30
0.0
0
VERTEX
5
542
8
Layer1
10
299.0370
20
59.6000
30
0.0
0
VERTEX
5
543
8
Layer1
10
298.2370
20
59.6000
30
0.0
0
VERTEX
5
544
8
Layer1
10
298.2370
20
56.1000
30
0.0
0
VERTEX
5
545
8
Layer1
10
299.0370
20
56.1000
30
0.0
0
VERTEX
5
546
8
Layer1
10
299.0370
20
51.1000
30
0.0
0
VERTEX
5
547
8
Layer1
10
298.2370
20
51.1000
30
0.0
0
VERTEX
5
548
8
Layer1
10
298.2370
20
47.6000
30
0.0
0
VERTEX
5
549
8
Layer1
10
299.0370
20
47.6000
30
0.0
0
VERTEX
5
54a
8
Layer1
10
299.0370
20
46.6000
30
0.0
0
VERTEX
5
54b
8
Layer1
10
313.0370
20
46.6000
30
0.0
0
VERTEX
5
54c
8
Layer1
10
313.0370
20
47.6000
30
0.0
0
SEQEND
5
54d
8
Layer1
0
POLYLINE
5
54e
8
Layer1
66
1
10
0.0
20
0.0
30
0.0
70
1
0
VERTEX
5
54f
8
Layer1
10
326.5940
20
46.8300
30
0.0
0
VERTEX
5
550
8
Layer1
10
328.4190
20
46.8300
30
0.0
0
VERTEX
5
551
8
Layer1
10
328.4190
20
47.6300
30
0.0
0
VERTEX
5
552
8
Layer1
10
329.1940
20
47.6300
30
0.0
0
VERTEX
5
553
8
Layer1
10
329.1940
20
47.6000
30
0.0
0
VERTEX
5
554
8
Layer1
10
329.9940
20
47.6000
30
0.0
0
VERTEX
5
555
8
Layer1
10
329.9940
20
46.6000
30
0.0
0
VERTEX
5
556
8
Layer1
10
343.9940
20
46.6000
30
0.0
0
VERTEX
5
557
8
Layer1
10
343.9940
20
47.6000
30
0.0
0
VERTEX
5
558
8
Layer1
10
344.7940
20
47.6000
30
0.0
0
VERTEX
5
559
8
Layer1
10
344.7940
20
47.6300
30
0.0
0
VERTEX
5
55a
8
Layer1
10
345.5690
20
47.6300
30
0.0
0
VERTEX
5
55b
8
Layer1
10
345.5690
20
46.8300
30
0.0
0
VERTEX
5
55c
8
Layer1
10
347.3940
20
46.8300
30
0.0
0
VERTEX
5
55d
8
Layer1
10
347.3940
20
45.6300
30
0.0
0
VERTEX
5
55e
8
Layer1
10
350.3940
20
45.6300
30
0.0
0
VERTEX
5
55f
8
Layer1
10
350.3940
20
46.8300
30
0.0
0
VERTEX
5
560
8
Layer1
10
352.2190
20
46.8300
30
0.0
0
VERTEX
5
561
8
Layer1
10
352.2190
20
53.1000
30
0.0
0
VERTEX
5
562
8
Layer1
10
353.0940
20
53.1000
30
0.0
0
VERTEX
5
563
8
Layer1
10
353.0940
20
55.9000
30
0.0
0
VERTEX
5
564
8
Layer1
10
352.2190
20
55.9000
30
0.0
0
VERTEX
5
565
8
Layer1
10
352.2190
20
59.1300
30
0.0
0
VERTEX
5
566
8
Layer1
10
345.5690
20
59.1300
30
0.0
0
VERTEX
5
567
8
Layer1
10
345.5690
20
58.3300
30
0.0
0
VERTEX
5
568
8
Layer1
10
344.7940
20
58.3300
30
0.0
0
VERTEX
5
569
8
Layer1
10
344.7940
20
59.6000
30
0.0
0
VERTEX
5
56a
8
Layer1
10
343.9940
20
59.6000
30
0.0
0
VERTEX
5
56b
8
Layer1
10
343.9940
20
60.6000
30
0.0
0
VERTEX
5
56c
8
Layer1
10
329.9940
20
60.6000
30
0.0
0
VERTEX
5
56d
8
Layer1
10
329.9940
20
59.6000
30
0.0
0
VERTEX
5
56e
8
Layer1
10
329.1940
20
59.6000
30
0.0
0
VERTEX
5
56f
8
Layer1
10
329.1940
20
58.3300
30
0.0
0
VERTEX
5
570
8
Layer1
10
328.4190
20
58.3300
30
0.0
0
VERTEX
5
571
8
Layer1
10
328.4190
20
59.1300
30
0.0
0
VERTEX
5
572
8
Layer1
10
321.7690
20
59.1300
30
0.0
0
VERTEX
5
573
8
Layer1
10
321.7690
20
55.9000
30
0.0
0
VERTEX
5
574
8
Layer1
10
320.8940
20
55.9000
30
0.0
0
VERTEX
5
575
8
Layer1
10
320.8940
20
53.1000
30
0.0
0
VERTEX
5
576
8
Layer1
10
321.7690
20
53.1000
30
0.0
0
VERTEX
5
577
8
Layer1
10
321.7690
20
46.8300
30
0.0
0
VERTEX
5
578
8
Layer1
10
323.5940
20
46.8300
30
0.0
0
VERTEX
5
579
8
Layer1
10
323.5940
20
45.6300
30
0.0
0
VERTEX
5
57a
8
Layer1
10
326.5940
20
45.6300
30
0.0
0
VERTEX
5
57b
8
Layer1
10
326.5940
20
46.8300
30
0.0
0
SEQEND
5
57c
8
Layer1
0
POLYLINE
5
57d
8
Layer1
66
1
10
0.0
20
0.0
30
0.0
70
1
0
VERTEX
5
57e
8
Layer1
10
384.4750
20
47.6000
30
0.0
0
VERTEX
5
57f
8
Layer1
10
385.2750
20
47.6000
30
0.0
0
VERTEX
5
580
8
Layer1
10
385.2750
20
51.1000
30
0.0
0
VERTEX
5
581
8
Layer1
10
384.4750
20
51.1000
30
0.0
0
VERTEX
5
582
8
Layer1
10
384.4750
20
56.1000
30
0.0
0
VERTEX
5
583
8
Layer1
10
385.2750
20
56.1000
30
0.0
0
VERTEX
5
584
8
Layer1
10
385.2750
20
59.6000
30
0.0
0
VERTEX
5
585
8
Layer1
10
384.4750
20
59.6000
30
0.0
0
VERTEX
5
586
8
Layer1
10
384.4750
20
60.6000
30
0.0
0
VERTEX
5
587
8
Layer1
10
370.4750
20
60.6000
30
0.0
0
VERTEX
5
588
8
Layer1
10
370.4750
20
59.6000
30
0.0
0
VERTEX
5
589
8
Layer1
10
369.6750
20
59.6000
30
0.0
0
VERTEX
5
58a
8
Layer1
10
369.6750
20
56.1000
30
0.0
0
VERTEX
5
58b
8
Layer1
10
370.4750
20
56.1000
30
0.0
0
VERTEX
5
58c
8
Layer1
10
370.4750
20
51.1000
30
0.0
0
VERTEX
5
58d
8
Layer1
10
369.6750
20
51.1000
30
0.0
0
VERTEX
5
58e
8
Layer1
10
369.6750
20
47.6000
30
0.0
0
VERTEX
5
58f
8
Layer1
10
370.4750
20
47.6000
30
0.0
0
VERTEX
5
590
8
Layer1
10
370.4750
20
46.6000
30
0.0
0
VERTEX
5
591
8
Layer1
10
384.4750
20
46.6000
30
0.0
0
VERTEX
5
592
8
Layer1
10
384.4750
20
47.6000
30
0.0
0
SEQEND
5
593
8
Layer1
0
POLYLINE
5
594
8
Layer1
66
1
10
0.0
20
0.0
30
0.0
70
1
0
VERTEX
5
595
8
Layer1
10
403.5250
20
47.6000
30
0.0
0
VERTEX
5
596
8
Layer1
10
404.3250
20
47.6000
30
0.0
0
VERTEX
5
597
8
Layer1
10
404.3250
20
51.1000
30
0.0
0
VERTEX
5
598
8
Layer1
10
403.5250
20
51.1000
30
0.0
0
VERTEX
5
599
8
Layer1
10
403.5250
20
56.1000
30
0.0
0
VERTEX
5
59a
8
Layer1
10
404.3250
20
56.1000
30
0.0
0
VERTEX
5
59b
8
Layer1
10
404.3250
20
59.6000
30
0.0
0
VERTEX
5
59c
8
Layer1
10
403.5250
20
59.6000
30
0.0
0
VERTEX
5
59d
8
Layer1
10
403.5250
20
60.6000
30
0.0
0
VERTEX
5
59e
8
Layer1
10
389.5250
20
60.6000
30
0.0
0
VERTEX
5
59f
8
Layer1
10
389.5250
20
59.6000
30
0.0
0
VERTEX
5
5a0
8
Layer1
10
388.7250
20
59.6000
30
0.0
0
VERTEX
5
5a1
8
Layer1
10
388.7250
20
56.1000
30
0.0
0
VERTEX
5
5a2
8
Layer1
10
389.5250
20
56.1000
30
0.0
0
VERTEX
5
5a3
8
Layer1
10
389.5250
20
51.1000
30
0.0
0
VERTEX
5
5a4
8
Layer1
10
388.7250
20
51.1000
30
0.0
0
VERTEX
5
5a5
8
Layer1
10
388.7250
20
47.6000
30
0.0
0
VERTEX
5
5a6
8
Layer1
10
389.5250
20
47.6000
30
0.0
0
VERTEX
5
5a7
8
Layer1
10
389.5250
20
46.6000
30
0.0
0
VERTEX
5
5a8
8
Layer1
10
403.5250
20
46.6000
30
0.0
0
VERTEX
5
5a9
8
Layer1
10
403.5250
20
47.6000
30
0.0
0
SEQEND
5
5aa
8
Layer1
0
POLYLINE
5
5ab
8
Layer1
66
1
10
0.0
20
0.0
30
0.0
70
1
0
VERTEX
5
5ac
8
Layer1
10
422.5750
20
47.6000
30
0.0
0
VERTEX
5
5ad
8
Layer1
10
423.3750
20
47.6000
30
0.0
0
VERTEX
5
5ae
8
Layer1
10
423.3750
20
51.1000
30
0.0
0
VERTEX
5
5af
8
Layer1
10
422.5750
20
51.1000
30
0.0
0
VERTEX
5
5b0
8
Layer1
10
422.5750
20
56.1000
30
0.0
0
VERTEX
5
5b1
8
Layer1
10
423.3750
20
56.1000
30
0.0
0
VERTEX
5
5b2
8
Layer1
10
423.3750
20
59.6000
30
0.0
0
VERTEX
5
5b3
8
Layer1
10
422.5750
20
59.6000
30
0.0
0
VERTEX
5
5b4
8
Layer1
10
422.5750
20
60.6000
30
0.0
0
VERTEX
5
5b5
8
Layer1
10
408.5750
20
60.6000
30
0.0
0
VERTEX
5
5b6
8
Layer1
10
408.5750
20
59.6000
30
0.0
0
VERTEX
5
5b7
8
Layer1
10
407.7750
20
59.6000
30
0.0
0
VERTEX
5
5b8
8
Layer1
10
407.7750
20
56.1000
30
0.0
0
VERTEX
5
5b9
8
Layer1
10
408.5750
20
56.1000
30
0.0
0
VERTEX
5
5ba
8
Layer1
10
408.5750
20
51.1000
30
0.0
0
VERTEX
5
5bb
8
Layer1
10
407.7750
20
51.1000
30
0.0
0
VERTEX
5
5bc
8
Layer1
10
407.7750
20
47.6000
30
0.0
0
VERTEX
5
5bd
8
Layer1
10
408.5750
20
47.6000
30
0.0
0
VERTEX
5
5be
8
Layer1
10
408.5750
20
46.6000
30
0.0
0
VERTEX
5
5bf
8
Layer1
10
422.5750
20
46.6000
30
0.0
0
VERTEX
5
5c0
8
Layer1
10
422.5750
20
47.6000
30
0.0
0
SEQEND
5
5c1
8
Layer1
0
POLYLINE
5
5c2
8
Layer1
66
1
10
0.0
20
0.0
30
0.0
70
1
0
VERTEX
5
5c3
8
Layer1
10
441.6250
20
47.6000
30
0.0
0
VERTEX
5
5c4
8
Layer1
10
442.4250
20
47.6000
30
0.0
0
VERTEX
5
5c5
8
Layer1
10
442.4250
20
51.1000
30
0.0
0
VERTEX
5
5c6
8
Layer1
10
441.6250
20
51.1000
30
0.0
0
VERTEX
5
5c7
8
Layer1
10
441.6250
20
56.1000
30
0.0
0
VERTEX
5
5c8
8
Layer1
10
442.4250
20
56.1000
30
0.0
0
VERTEX
5
5c9
8
Layer1
10
442.4250
20
59.6000
30
0.0
0
VERTEX
5
5ca
8
Layer1
10
441.6250
20
59.6000
30
0.0
0
VERTEX
5
5cb
8
Layer1
10
441.6250
20
60.6000
30
0.0
0
VERTEX
5
5cc
8
Layer1
10
427.6250
20
60.6000
30
0.0
0
VERTEX
5
5cd
8
Layer1
10
427.6250
20
59.6000
30
0.0
0
VERTEX
5
5ce
8
Layer1
10
426.8250
20
59.6000
30
0.0
0
VERTEX
5
5cf
8
Layer1
10
426.8250
20
56.1000
30
0.0
0
VERTEX
5
5d0
8
Layer1
10
427.6250
20
56.1000
30
0.0
0
VERTEX
5
5d1
8
Layer1
10
427.6250
20
51.1000
30
0.0
0
VERTEX
5
5d2
8
Layer1
10
426.8250
20
51.1000
30
0.0
0
VERTEX
5
5d3
8
Layer1
10
426.8250
20
47.6000
30
0.0
0
VERTEX
5
5d4
8
Layer1
10
427.6250
20
47.6000
30
0.0
0
VERTEX
5
5d5
8
Layer1
10
427.6250
20
46.6000
30
0.0
0
VERTEX
5
5d6
8
Layer1
10
441.6250
20
46.6000
30
0.0
0
VERTEX
5
5d7
8
Layer1
10
441.6250
20
47.6000
30
0.0
0
SEQEND
5
5d8
8
Layer1
0
POLYLINE
5
5d9
8
Layer1
66
1
10
0.0
20
0.0
30
0.0
70
1
0
VERTEX
5
5da
8
Layer1
10
22.5250
20
28.5500
30
0.0
0
VERTEX
5
5db
8
Layer1
10
23.3250
20
28.5500
30
0.0
0
VERTEX
5
5dc
8
Layer1
10
23.3250
20
32.0500
30
0.0
0
VERTEX
5
5dd
8
Layer1
10
22.5250
20
32.0500
30
0.0
0
VERTEX
5
5de
8
Layer1
10
22.5250
20
37.0500
30
0.0
0
VERTEX
5
5df
8
Layer1
10
23.3250
20
37.0500
30
0.0
0
VERTEX
5
5e0
8
Layer1
10
23.3250
20
40.5500
30
0.0
0
VERTEX
5
5e1
8
Layer1
10
22.5250
20
40.5500
30
0.0
0
VERTEX
5
5e2
8
Layer1
10
22.5250
20
41.5500
30
0.0
0
VERTEX
5
5e3
8
Layer1
10
8.5250
20
41.5500
30
0.0
0
VERTEX
5
5e4
8
Layer1
10
8.5250
20
40.5500
30
0.0
0
VERTEX
5
5e5
8
Layer1
10
7.7250
20
40.5500
30
0.0
0
VERTEX
5
5e6
8
Layer1
10
7.7250
20
37.0500
30
0.0
0
VERTEX
5
5e7
8
Layer1
10
8.5250
20
37.0500
30
0.0
0
VERTEX
5
5e8
8
Layer1
10
8.5250
20
32.0500
30
0.0
0
VERTEX
5
5e9
8
Layer1
10
7.7250
20
32.0500
30
0.0
0
VERTEX
5
5ea
8
Layer1
10
7.7250
20
28.5500
30
0.0
0
VERTEX
5
5eb
8
Layer1
10
8.5250
20
28.5500
30
0.0
0
VERTEX
5
5ec
8
Layer1
10
8.5250
20
27.5500
30
0.0
0
VERTEX
5
5ed
8
Layer1
10
22.5250
20
27.5500
30
0.0
0
VERTEX
5
5ee
8
Layer1
10
22.5250
20
28.5500
30
0.0
0
SEQEND
5
5ef
8
Layer1
0
POLYLINE
5
5f0
8
Layer1
66
1
10
0.0
20
0.0
30
0.0
70
1
0
VERTEX
5
5f1
8
Layer1
10
41.5750
20
28.5500
30
0.0
0
VERTEX
5
5f2
8
Layer1
10
42.3750
20
28.5500
30
0.0
0
VERTEX
5
5f3
8
Layer1
10
42.3750
20
32.0500
30
0.0
0
VERTEX
5
5f4
8
Layer1
10
41.5750
20
32.0500
30
0.0
0
VERTEX
5
5f5
8
Layer1
10
41.5750
20
37.0500
30
0.0
0
VERTEX
5
5f6
8
Layer1
10
42.3750
20
37.0500
30
0.0
0
VERTEX
5
5f7
8
Layer1
10
42.3750
20
40.5500
30
0.0
0
VERTEX
5
5f8
8
Layer1
10
41.5750
20
40.5500
30
0.0
0
VERTEX
5
5f9
8
Layer1
10
41.5750
20
41.5500
30
0.0
0
VERTEX
5
5fa
8
Layer1
10
27.5750
20
41.5500
30
0.0
0
VERTEX
5
5fb
8
Layer1
10
27.5750
20
40.5500
30
0.0
0
VERTEX
5
5fc
8
Layer1
10
26.7750
20
40.5500
30
0.0
0
VERTEX
5
5fd
8
Layer1
10
26.7750
20
37.0500
30
0.0
0
VERTEX
5
5fe
8
Layer1
10
27.5750
20
37.0500
30
0.0
0
VERTEX
5
5ff
8
Layer1
10
27.5750
20
32.0500
30
0.0
0
VERTEX
5
600
8
Layer1
10
26.7750
20
32.0500
30
0.0
0
VERTEX
5
601
8
Layer1
10
26.7750
20
28.5500
30
0.0
0
VERTEX
5
602
8
Layer1
10
27.5750
20
28.5500
30
0.0
0
VERTEX
5
603
8
Layer1
10
27.5750
20
27.5500
30
0.0
0
VERTEX
5
604
8
Layer1
10
41.5750
20
27.5500
30
0.0
0
VERTEX
5
605
8
Layer1
10
41.5750
20
28.5500
30
0.0
0
SEQEND
5
606
8
Layer1
0
POLYLINE
5
607
8
Layer1
66
1
10
0.0
20
0.0
30
0.0
70
1
0
VERTEX
5
608
8
Layer1
10
60.6250
20
28.5500
30
0.0
0
VERTEX
5
609
8
Layer1
10
61.4250
20
28.5500
30
0.0
0
VERTEX
5
60a
8
Layer1
10
61.4250
20
32.0500
30
0.0
0
VERTEX
5
60b
8
Layer1
10
60.6250
20
32.0500
30
0.0
0
VERTEX
5
60c
8
Layer1
10
60.6250
20
37.0500
30
0.0
0
VERTEX
5
60d
8
Layer1
10
61.4250
20
37.0500
30
0.0
0
VERTEX
5
60e
8
Layer1
10
61.4250
20
40.5500
30
0.0
0
VERTEX
5
60f
8
Layer1
10
60.6250
20
40.5500
30
0.0
0
VERTEX
5
610
8
Layer1
10
60.6250
20
41.5500
30
0.0
0
VERTEX
5
611
8
Layer1
10
46.6250
20
41.5500
30
0.0
0
VERTEX
5
612
8
Layer1
10
46.6250
20
40.5500
30
0.0
0
VERTEX
5
613
8
Layer1
10
45.8250
20
40.5500
30
0.0
0
VERTEX
5
614
8
Layer1
10
45.8250
20
37.0500
30
0.0
0
VERTEX
5
615
8
Layer1
10
46.6250
20
37.0500
30
0.0
0
VERTEX
5
616
8
Layer1
10
46.6250
20
32.0500
30
0.0
0
VERTEX
5
617
8
Layer1
10
45.8250
20
32.0500
30
0.0
0
VERTEX
5
618
8
Layer1
10
45.8250
20
28.5500
30
0.0
0
VERTEX
5
619
8
Layer1
10
46.6250
20
28.5500
30
0.0
0
VERTEX
5
61a
8
Layer1
10
46.6250
20
27.5500
30
0.0
0
VERTEX
5
61b
8
Layer1
10
60.6250
20
27.5500
30
0.0
0
VERTEX
5
61c
8
Layer1
10
60.6250
20
28.5500
30
0.0
0
SEQEND
5
61d
8
Layer1
0
POLYLINE
5
61e
8
Layer1
66
1
10
0.0
20
0.0
30
0.0
70
1
0
VERTEX
5
61f
8
Layer1
10
83.7060
20
27.7800
30
0.0
0
VERTEX
5
620
8
Layer1
10
85.5310
20
27.7800
30
0.0
0
VERTEX
5
621
8
Layer1
10
85.5310
20
28.5800
30
0.0
0
VERTEX
5
622
8
Layer1
10
86.3060
20
28.5800
30
0.0
0
VERTEX
5
623
8
Layer1
10
86.3060
20
28.5500
30
0.0
0
VERTEX
5
624
8
Layer1
10
87.1060
20
28.5500
30
0.0
0
VERTEX
5
625
8
Layer1
10
87.1060
20
27.5500
30
0.0
0
VERTEX
5
626
8
Layer1
10
101.1060
20
27.5500
30
0.0
0
VERTEX
5
627
8
Layer1
10
101.1060
20
28.5500
30
0.0
0
VERTEX
5
628
8
Layer1
10
101.9060
20
28.5500
30
0.0
0
VERTEX
5
629
8
Layer1
10
101.9060
20
28.5800
30
0.0
0
VERTEX
5
62a
8
Layer1
10
102.6810
20
28.5800
30
0.0
0
VERTEX
5
62b
8
Layer1
10
102.6810
20
27.7800
30
0.0
0
VERTEX
5
62c
8
Layer1
10
104.5060
20
27.7800
30
0.0
0
VERTEX
5
62d
8
Layer1
10
104.5060
20
26.5800
30
0.0
0
VERTEX
5
62e
8
Layer1
10
107.5060
20
26.5800
30
0.0
0
VERTEX
5
62f
8
Layer1
10
107.5060
20
27.7800
30
0.0
0
VERTEX
5
630
8
Layer1
10
109.3310
20
27.7800
30
0.0
0
VERTEX
5
631
8
Layer1
10
109.3310
20
34.0500
30
0.0
0
VERTEX
5
632
8
Layer1
10
110.2060
20
34.0500
30
0.0
0
VERTEX
5
633
8
Layer1
10
110.2060
20
36.8500
30
0.0
0
VERTEX
5
634
8
Layer1
10
109.3310
20
36.8500
30
0.0
0
VERTEX
5
635
8
Layer1
10
109.3310
20
40.0800
30
0.0
0
VERTEX
5
636
8
Layer1
10
102.6810
20
40.0800
30
0.0
0
VERTEX
5
637
8
Layer1
10
102.6810
20
39.2800
30
0.0
0
VERTEX
5
638
8
Layer1
10
101.9060
20
39.2800
30
0.0
0
VERTEX
5
639
8
Layer1
10
101.9060
20
40.5500
30
0.0
0
VERTEX
5
63a
8
Layer1
10
101.1060
20
40.5500
30
0.0
0
VERTEX
5
63b
8
Layer1
10
101.1060
20
41.5500
30
0.0
0
VERTEX
5
63c
8
Layer1
10
87.1060
20
41.5500
30
0.0
0
VERTEX
5
63d
8
Layer1
10
87.1060
20
40.5500
30
0.0
0
VERTEX
5
63e
8
Layer1
10
86.3060
20
40.5500
30
0.0
0
VERTEX
5
63f
8
Layer1
10
86.3060
20
39.2800
30
0.0
0
VERTEX
5
640
8
Layer1
10
85.5310
20
39.2800
30
0.0
0
VERTEX
5
641
8
Layer1
10
85.5310
20
40.0800
30
0.0
0
VERTEX
5
642
8
Layer1
10
78.8810
20
40.0800
30
0.0
0
VERTEX
5
643
8
Layer1
10
78.8810
20
36.8500
30
0.0
0
VERTEX
5
644
8
Layer1
10
78.0060
20
36.8500
30
0.0
0
VERTEX
5
645
8
Layer1
10
78.0060
20
34.0500
30
0.0
0
VERTEX
5
646
8
Layer1
10
78.8810
20
34.0500
30
0.0
0
VERTEX
5
647
8
Layer1
10
78.8810
20
27.7800
30
0.0
0
VERTEX
5
648
8
Layer1
10
80.7060
20
27.7800
30
0.0
0
VERTEX
5
649
8
Layer1
10
80.7060
20
26.5800
30
0.0
0
VERTEX
5
64a
8
Layer1
10
83.7060
20
26.5800
30
0.0
0
VERTEX
5
64b
8
Layer1
10
83.7060
20
27.7800
30
0.0
0
SEQEND
5
64c
8
Layer1
0
POLYLINE
5
64d
8
Layer1
66
1
10
0.0
20
0.0
30
0.0
70
1
0
VERTEX
5
64e
8
Layer1
10
132.0630
20
28.5500
30
0.0
0
VERTEX
5
64f
8
Layer1
10
132.8630
20
28.5500
30
0.0
0
VERTEX
5
650
8
Layer1
10
132.8630
20
32.0500
30
0.0
0
VERTEX
5
651
8
Layer1
10
132.0630
20
32.0500
30
0.0
0
VERTEX
5
652
8
Layer1
10
132.0630
20
37.0500
30
0.0
0
VERTEX
5
653
8
Layer1
10
132.8630
20
37.0500
30
0.0
0
VERTEX
5
654
8
Layer1
10
132.8630
20
40.5500
30
0.0
0
VERTEX
5
655
8
Layer1
10
132.0630
20
40.5500
30
0.0
0
VERTEX
5
656
8
Layer1
10
132.0630
20
41.5500
30
0.0
0
VERTEX
5
657
8
Layer1
10
118.0630
20
41.5500
30
0.0
0
VERTEX
5
658
8
Layer1
10
118.0630
20
40.5500
30
0.0
0
VERTEX
5
659
8
Layer1
10
117.2630
20
40.5500
30
0.0
0
VERTEX
5
65a
8
Layer1
10
117.2630
20
37.0500
30
0.0
0
VERTEX
5
65b
8
Layer1
10
118.0630
20
37.0500
30
0.0
0
VERTEX
5
65c
8
Layer1
10
118.0630
20
32.0500
30
0.0
0
VERTEX
5
65d
8
Layer1
10
117.2630
20
32.0500
30
0.0
0
VERTEX
5
65e
8
Layer1
10
117.2630
20
28.5500
30
0.0
0
VERTEX
5
65f
8
Layer1
10
118.0630
20
28.5500
30
0.0
0
VERTEX
5
660
8
Layer1
10
118.0630
20
27.5500
30
0.0
0
VERTEX
5
661
8
Layer1
10
132.0630
20
27.5500
30
0.0
0
VERTEX
5
662
8
Layer1
10
132.0630
20
28.5500
30
0.0
0
SEQEND
5
663
8
Layer1
0
POLYLINE
5
664
8
Layer1
66
1
10
0.0
20
0.0
30
0.0
70
1
0
VERTEX
5
665
8
Layer1
10
151.1130
20
28.5500
30
0.0
0
VERTEX
5
666
8
Layer1
10
151.9130
20
28.5500
30
0.0
0
VERTEX
5
667
8
Layer1
10
151.9130
20
32.0500
30
0.0
0
VERTEX
5
668
8
Layer1
10
151.1130
20
32.0500
30
0.0
0
VERTEX
5
669
8
Layer1
10
151.1130
20
37.0500
30
0.0
0
VERTEX
5
66a
8
Layer1
10
151.9130
20
37.0500
30
0.0
0
VERTEX
5
66b
8
Layer1
10
151.9130
20
40.5500
30
0.0
0
VERTEX
5
66c
8
Layer1
10
151.1130
20
40.5500
30
0.0
0
VERTEX
5
66d
8
Layer1
10
151.1130
20
41.5500
30
0.0
0
VERTEX
5
66e
8
Layer1
10
137.1130
20
41.5500
30
0.0
0
VERTEX
5
66f
8
Layer1
10
137.1130
20
40.5500
30
0.0
0
VERTEX
5
670
8
Layer1
10
136.3130
20
40.5500
30
0.0
0
VERTEX
5
671
8
Layer1
10
136.3130
20
37.0500
30
0.0
0
VERTEX
5
672
8
Layer1
10
137.1130
20
37.0500
30
0.0
0
VERTEX
5
673
8
Layer1
10
137.1130
20
32.0500
30
0.0
0
VERTEX
5
674
8
Layer1
10
136.3130
20
32.0500
30
0.0
0
VERTEX
5
675
8
Layer1
10
136.3130
20
28.5500
30
0.0
0
VERTEX
5
676
8
Layer1
10
137.1130
20
28.5500
30
0.0
0
VERTEX
5
677
8
Layer1
10
137.1130
20
27.5500
30
0.0
0
VERTEX
5
678
8
Layer1
10
151.1130
20
27.5500
30
0.0
0
VERTEX
5
679
8
Layer1
10
151.1130
20
28.5500
30
0.0
0
SEQEND
5
67a
8
Layer1
0
POLYLINE
5
67b
8
Layer1
66
1
10
0.0
20
0.0
30
0.0
70
1
0
VERTEX
5
67c
8
Layer1
10
170.1630
20
28.5500
30
0.0
0
VERTEX
5
67d
8
Layer1
10
170.9630
20
28.5500
30
0.0
0
VERTEX
5
67e
8
Layer1
10
170.9630
20
32.0500
30
0.0
0
VERTEX
5
67f
8
Layer1
10
170.1630
20
32.0500
30
0.0
0
VERTEX
5
680
8
Layer1
10
170.1630
20
37.0500
30
0.0
0
VERTEX
5
681
8
Layer1
10
170.9630
20
37.0500
30
0.0
0
VERTEX
5
682
8
Layer1
10
170.9630
20
40.5500
30
0.0
0
VERTEX
5
683
8
Layer1
10
170.1630
20
40.5500
30
0.0
0
VERTEX
5
684
8
Layer1
10
170.1630
20
41.5500
30
0.0
0
VERTEX
5
685
8
Layer1
10
156.1630
20
41.5500
30
0.0
0
VERTEX
5
686
8
Layer1
10
156.1630
20
40.5500
30
0.0
0
VERTEX
5
687
8
Layer1
10
155.3630
20
40.5500
30
0.0
0
VERTEX
5
688
8
Layer1
10
155.3630
20
37.0500
30
0.0
0
VERTEX
5
689
8
Layer1
10
156.1630
20
37.0500
30
0.0
0
VERTEX
5
68a
8
Layer1
10
156.1630
20
32.0500
30
0.0
0
VERTEX
5
68b
8
Layer1
10
155.3630
20
32.0500
30
0.0
0
VERTEX
5
68c
8
Layer1
10
155.3630
20
28.5500
30
0.0
0
VERTEX
5
68d
8
Layer1
10
156.1630
20
28.5500
30
0.0
0
VERTEX
5
68e
8
Layer1
10
156.1630
20
27.5500
30
0.0
0
VERTEX
5
68f
8
Layer1
10
170.1630
20
27.5500
30
0.0
0
VERTEX
5
690
8
Layer1
10
170.1630
20
28.5500
30
0.0
0
SEQEND
5
691
8
Layer1
0
POLYLINE
5
692
8
Layer1
66
1
10
0.0
20
0.0
30
0.0
70
1
0
VERTEX
5
693
8
Layer1
10
189.2130
20
28.5500
30
0.0
0
VERTEX
5
694
8
Layer1
10
190.0130
20
28.5500
30
0.0
0
VERTEX
5
695
8
Layer1
10
190.0130
20
32.0500
30
0.0
0
VERTEX
5
696
8
Layer1
10
189.2130
20
32.0500
30
0.0
0
VERTEX
5
697
8
Layer1
10
189.2130
20
37.0500
30
0.0
0
VERTEX
5
698
8
Layer1
10
190.0130
20
37.0500
30
0.0
0
VERTEX
5
699
8
Layer1
10
190.0130
20
40.5500
30
0.0
0
VERTEX
5
69a
8
Layer1
10
189.2130
20
40.5500
30
0.0
0
VERTEX
5
69b
8
Layer1
10
189.2130
20
41.5500
30
0.0
0
VERTEX
5
69c
8
Layer1
10
175.2130
20
41.5500
30
0.0
0
VERTEX
5
69d
8
Layer1
10
175.2130
20
40.5500
30
0.0
0
VERTEX
5
69e
8
Layer1
10
174.4130
20
40.5500
30
0.0
0
VERTEX
5
69f
8
Layer1
10
174.4130
20
37.0500
30
0.0
0
VERTEX
5
6a0
8
Layer1
10
175.2130
20
37.0500
30
0.0
0
VERTEX
5
6a1
8
Layer1
10
175.2130
20
32.0500
30
0.0
0
VERTEX
5
6a2
8
Layer1
10
174.4130
20
32.0500
30
0.0
0
VERTEX
5
6a3
8
Layer1
10
174.4130
20
28.5500
30
0.0
0
VERTEX
5
6a4
8
Layer1
10
175.2130
20
28.5500
30
0.0
0
VERTEX
5
6a5
8
Layer1
10
175.2130
20
27.5500
30
0.0
0
VERTEX
5
6a6
8
Layer1
10
189.2130
20
27.5500
30
0.0
0
VERTEX
5
6a7
8
Layer1
10
189.2130
20
28.5500
30
0.0
0
SEQEND
5
6a8
8
Layer1
0
POLYLINE
5
6a9
8
Layer1
66
1
10
0.0
20
0.0
30
0.0
70
1
0
VERTEX
5
6aa
8
Layer1
10
208.2630
20
28.5500
30
0.0
0
VERTEX
5
6ab
8
Layer1
10
209.0630
20
28.5500
30
0.0
0
VERTEX
5
6ac
8
Layer1
10
209.0630
20
32.0500
30
0.0
0
VERTEX
5
6ad
8
Layer1
10
208.2630
20
32.0500
30
0.0
0
VERTEX
5
6ae
8
Layer1
10
208.2630
20
37.0500
30
0.0
0
VERTEX
5
6af
8
Layer1
10
209.0630
20
37.0500
30
0.0
0
VERTEX
5
6b0
8
Layer1
10
209.0630
20
40.5500
30
0.0
0
VERTEX
5
6b1
8
Layer1
10
208.2630
20
40.5500
30
0.0
0
VERTEX
5
6b2
8
Layer1
10
208.2630
20
41.5500
30
0.0
0
VERTEX
5
6b3
8
Layer1
10
194.2630
20
41.5500
30
0.0
0
VERTEX
5
6b4
8
Layer1
10
194.2630
20
40.5500
30
0.0
0
VERTEX
5
6b5
8
Layer1
10
193.4630
20
40.5500
30
0.0
0
VERTEX
5
6b6
8
Layer1
10
193.4630
20
37.0500
30
0.0
0
VERTEX
5
6b7
8
Layer1
10
194.2630
20
37.0500
30
0.0
0
VERTEX
5
6b8
8
Layer1
10
194.2630
20
32.0500
30
0.0
0
VERTEX
5
6b9
8
Layer1
10
193.4630
20
32.0500
30
0.0
0
VERTEX
5
6ba
8
Layer1
10
193.4630
20
28.5500
30
0.0
0
VERTEX
5
6bb
8
Layer1
10
194.2630
20
28.5500
30
0.0
0
VERTEX
5
6bc
8
Layer1
10
194.2630
20
27.5500
30
0.0
0
VERTEX
5
6bd
8
Layer1
10
208.2630
20
27.5500
30
0.0
0
VERTEX
5
6be
8
Layer1
10
208.2630
20
28.5500
30
0.0
0
SEQEND
5
6bf
8
Layer1
0
POLYLINE
5
6c0
8
Layer1
66
1
10
0.0
20
0.0
30
0.0
70
1
0
VERTEX
5
6c1
8
Layer1
10
227.3130
20
28.5500
30
0.0
0
VERTEX
5
6c2
8
Layer1
10
228.1130
20
28.5500
30
0.0
0
VERTEX
5
6c3
8
Layer1
10
228.1130
20
32.0500
30
0.0
0
VERTEX
5
6c4
8
Layer1
10
227.3130
20
32.0500
30
0.0
0
VERTEX
5
6c5
8
Layer1
10
227.3130
20
37.0500
30
0.0
0
VERTEX
5
6c6
8
Layer1
10
228.1130
20
37.0500
30
0.0
0
VERTEX
5
6c7
8
Layer1
10
228.1130
20
40.5500
30
0.0
0
VERTEX
5
6c8
8
Layer1
10
227.3130
20
40.5500
30
0.0
0
VERTEX
5
6c9
8
Layer1
10
227.3130
20
41.5500
30
0.0
0
VERTEX
5
6ca
8
Layer1
10
213.3130
20
41.5500
30
0.0
0
VERTEX
5
6cb
8
Layer1
10
213.3130
20
40.5500
30
0.0
0
VERTEX
5
6cc
8
Layer1
10
212.5130
20
40.5500
30
0.0
0
VERTEX
5
6cd
8
Layer1
10
212.5130
20
37.0500
30
0.0
0
VERTEX
5
6ce
8
Layer1
10
213.3130
20
37.0500
30
0.0
0
VERTEX
5
6cf
8
Layer1
10
213.3130
20
32.0500
30
0.0
0
VERTEX
5
6d0
8
Layer1
10
212.5130
20
32.0500
30
0.0
0
VERTEX
5
6d1
8
Layer1
10
212.5130
20
28.5500
30
0.0
0
VERTEX
5
6d2
8
Layer1
10
213.3130
20
28.5500
30
0.0
0
VERTEX
5
6d3
8
Layer1
10
213.3130
20
27.5500
30
0.0
0
VERTEX
5
6d4
8
Layer1
10
227.3130
20
27.5500
30
0.0
0
VERTEX
5
6d5
8
Layer1
10
227.3130
20
28.5500
30
0.0
0
SEQEND
5
6d6
8
Layer1
0
POLYLINE
5
6d7
8
Layer1
66
1
10
0.0
20
0.0
30
0.0
70
1
0
VERTEX
5
6d8
8
Layer1
10
246.3630
20
28.5500
30
0.0
0
VERTEX
5
6d9
8
Layer1
10
247.1630
20
28.5500
30
0.0
0
VERTEX
5
6da
8
Layer1
10
247.1630
20
32.0500
30
0.0
0
VERTEX
5
6db
8
Layer1
10
246.3630
20
32.0500
30
0.0
0
VERTEX
5
6dc
8
Layer1
10
246.3630
20
37.0500
30
0.0
0
VERTEX
5
6dd
8
Layer1
10
247.1630
20
37.0500
30
0.0
0
VERTEX
5
6de
8
Layer1
10
247.1630
20
40.5500
30
0.0
0
VERTEX
5
6df
8
Layer1
10
246.3630
20
40.5500
30
0.0
0
VERTEX
5
6e0
8
Layer1
10
246.3630
20
41.5500
30
0.0
0
VERTEX
5
6e1
8
Layer1
10
232.3630
20
41.5500
30
0.0
0
VERTEX
5
6e2
8
Layer1
10
232.3630
20
40.5500
30
0.0
0
VERTEX
5
6e3
8
Layer1
10
231.5630
20
40.5500
30
0.0
0
VERTEX
5
6e4
8
Layer1
10
231.5630
20
37.0500
30
0.0
0
VERTEX
5
6e5
8
Layer1
10
232.3630
20
37.0500
30
0.0
0
VERTEX
5
6e6
8
Layer1
10
232.3630
20
32.0500
30
0.0
0
VERTEX
5
6e7
8
Layer1
10
231.5630
20
32.0500
30
0.0
0
VERTEX
5
6e8
8
Layer1
10
231.5630
20
28.5500
30
0.0
0
VERTEX
5
6e9
8
Layer1
10
232.3630
20
28.5500
30
0.0
0
VERTEX
5
6ea
8
Layer1
10
232.3630
20
27.5500
30
0.0
0
VERTEX
5
6eb
8
Layer1
10
246.3630
20
27.5500
30
0.0
0
VERTEX
5
6ec
8
Layer1
10
246.3630
20
28.5500
30
0.0
0
SEQEND
5
6ed
8
Layer1
0
POLYLINE
5
6ee
8
Layer1
66
1
10
0.0
20
0.0
30
0.0
70
1
0
VERTEX
5
6ef
8
Layer1
10
265.4130
20
28.5500
30
0.0
0
VERTEX
5
6f0
8
Layer1
10
266.2130
20
28.5500
30
0.0
0
VERTEX
5
6f1
8
Layer1
10
266.2130
20
32.0500
30
0.0
0
VERTEX
5
6f2
8
Layer1
10
265.4130
20
32.0500
30
0.0
0
VERTEX
5
6f3
8
Layer1
10
265.4130
20
37.0500
30
0.0
0
VERTEX
5
6f4
8
Layer1
10
266.2130
20
37.0500
30
0.0
0
VERTEX
5
6f5
8
Layer1
10
266.2130
20
40.5500
30
0.0
0
VERTEX
5
6f6
8
Layer1
10
265.4130
20
40.5500
30
0.0
0
VERTEX
5
6f7
8
Layer1
10
265.4130
20
41.5500
30
0.0
0
VERTEX
5
6f8
8
Layer1
10
251.4130
20
41.5500
30
0.0
0
VERTEX
5
6f9
8
Layer1
10
251.4130
20
40.5500
30
0.0
0
VERTEX
5
6fa
8
Layer1
10
250.6130
20
40.5500
30
0.0
0
VERTEX
5
6fb
8
Layer1
10
250.6130
20
37.0500
30
0.0
0
VERTEX
5
6fc
8
Layer1
10
251.4130
20
37.0500
30
0.0
0
VERTEX
5
6fd
8
Layer1
10
251.4130
20
32.0500
30
0.0
0
VERTEX
5
6fe
8
Layer1
10
250.6130
20
32.0500
30
0.0
0
VERTEX
5
6ff
8
Layer1
10
250.6130
20
28.5500
30
0.0
0
VERTEX
5
700
8
Layer1
10
251.4130
20
28.5500
30
0.0
0
VERTEX
5
701
8
Layer1
10
251.4130
20
27.5500
30
0.0
0
VERTEX
5
702
8
Layer1
10
265.4130
20
27.5500
30
0.0
0
VERTEX
5
703
8
Layer1
10
265.4130
20
28.5500
30
0.0
0
SEQEND
5
704
8
Layer1
0
POLYLINE
5
705
8
Layer1
66
1
10
0.0
20
0.0
30
0.0
70
1
0
VERTEX
5
706
8
Layer1
10
284.4630
20
28.5500
30
0.0
0
VERTEX
5
707
8
Layer1
10
285.2630
20
28.5500
30
0.0
0
VERTEX
5
708
8
Layer1
10
285.2630
20
32.0500
30
0.0
0
VERTEX
5
709
8
Layer1
10
284.4630
20
32.0500
30
0.0
0
VERTEX
5
70a
8
Layer1
10
284.4630
20
37.0500
30
0.0
0
VERTEX
5
70b
8
Layer1
10
285.2630
20
37.0500
30
0.0
0
VERTEX
5
70c
8
Layer1
10
285.2630
20
40.5500
30
0.0
0
VERTEX
5
70d
8
Layer1
10
284.4630
20
40.5500
30
0.0
0
VERTEX
5
70e
8
Layer1
10
284.4630
20
41.5500
30
0.0
0
VERTEX
5
70f
8
Layer1
10
270.4630
20
41.5500
30
0.0
0
VERTEX
5
710
8
Layer1
10
270.4630
20
40.5500
30
0.0
0
VERTEX
5
711
8
Layer1
10
269.6620
20
40.5500
30
0.0
0
VERTEX
5
712
8
Layer1
10
269.6620
20
37.0500
30
0.0
0
VERTEX
5
713
8
Layer1
10
270.4630
20
37.0500
30
0.0
0
VERTEX
5
714
8
Layer1
10
270.4630
20
32.0500
30
0.0
0
VERTEX
5
715
8
Layer1
10
269.6620
20
32.0500
30
0.0
0
VERTEX
5
716
8
Layer1
10
269.6620
20
28.5500
30
0.0
0
VERTEX
5
717
8
Layer1
10
270.4630
20
28.5500
30
0.0
0
VERTEX
5
718
8
Layer1
10
270.4630
20
27.5500
30
0.0
0
VERTEX
5
719
8
Layer1
10
284.4630
20
27.5500
30
0.0
0
VERTEX
5
71a
8
Layer1
10
284.4630
20
28.5500
30
0.0
0
SEQEND
5
71b
8
Layer1
0
POLYLINE
5
71c
8
Layer1
66
1
10
0.0
20
0.0
30
0.0
70
1
0
VERTEX
5
71d
8
Layer1
10
303.5130
20
28.5500
30
0.0
0
VERTEX
5
71e
8
Layer1
10
304.3130
20
28.5500
30
0.0
0
VERTEX
5
71f
8
Layer1
10
304.3130
20
32.0500
30
0.0
0
VERTEX
5
720
8
Layer1
10
303.5130
20
32.0500
30
0.0
0
VERTEX
5
721
8
Layer1
10
303.5130
20
37.0500
30
0.0
0
VERTEX
5
722
8
Layer1
10
304.3130
20
37.0500
30
0.0
0
VERTEX
5
723
8
Layer1
10
304.3130
20
40.5500
30
0.0
0
VERTEX
5
724
8
Layer1
10
303.5130
20
40.5500
30
0.0
0
VERTEX
5
725
8
Layer1
10
303.5130
20
41.5500
30
0.0
0
VERTEX
5
726
8
Layer1
10
289.5130
20
41.5500
30
0.0
0
VERTEX
5
727
8
Layer1
10
289.5130
20
40.5500
30
0.0
0
VERTEX
5
728
8
Layer1
10
288.7130
20
40.5500
30
0.0
0
VERTEX
5
729
8
Layer1
10
288.7130
20
37.0500
30
0.0
0
VERTEX
5
72a
8
Layer1
10
289.5130
20
37.0500
30
0.0
0
VERTEX
5
72b
8
Layer1
10
289.5130
20
32.0500
30
0.0
0
VERTEX
5
72c
8
Layer1
10
288.7130
20
32.0500
30
0.0
0
VERTEX
5
72d
8
Layer1
10
288.7130
20
28.5500
30
0.0
0
VERTEX
5
72e
8
Layer1
10
289.5130
20
28.5500
30
0.0
0
VERTEX
5
72f
8
Layer1
10
289.5130
20
27.5500
30
0.0
0
VERTEX
5
730
8
Layer1
10
303.5130
20
27.5500
30
0.0
0
VERTEX
5
731
8
Layer1
10
303.5130
20
28.5500
30
0.0
0
SEQEND
5
732
8
Layer1
0
POLYLINE
5
733
8
Layer1
66
1
10
0.0
20
0.0
30
0.0
70
1
0
VERTEX
5
734
8
Layer1
10
321.8310
20
27.7800
30
0.0
0
VERTEX
5
735
8
Layer1
10
323.6560
20
27.7800
30
0.0
0
VERTEX
5
736
8
Layer1
10
323.6560
20
28.5800
30
0.0
0
VERTEX
5
737
8
Layer1
10
324.4310
20
28.5800
30
0.0
0
VERTEX
5
738
8
Layer1
10
324.4310
20
28.5500
30
0.0
0
VERTEX
5
739
8
Layer1
10
325.2310
20
28.5500
30
0.0
0
VERTEX
5
73a
8
Layer1
10
325.2310
20
27.5500
30
0.0
0
VERTEX
5
73b
8
Layer1
10
339.2310
20
27.5500
30
0.0
0
VERTEX
5
73c
8
Layer1
10
339.2310
20
28.5500
30
0.0
0
VERTEX
5
73d
8
Layer1
10
340.0310
20
28.5500
30
0.0
0
VERTEX
5
73e
8
Layer1
10
340.0310
20
28.5800
30
0.0
0
VERTEX
5
73f
8
Layer1
10
340.8060
20
28.5800
30
0.0
0
VERTEX
5
740
8
Layer1
10
340.8060
20
27.7800
30
0.0
0
VERTEX
5
741
8
Layer1
10
342.6310
20
27.7800
30
0.0
0
VERTEX
5
742
8
Layer1
10
342.6310
20
26.5800
30
0.0
0
VERTEX
5
743
8
Layer1
10
345.6310
20
26.5800
30
0.0
0
VERTEX
5
744
8
Layer1
10
345.6310
20
27.7800
30
0.0
0
VERTEX
5
745
8
Layer1
10
347.4560
20
27.7800
30
0.0
0
VERTEX
5
746
8
Layer1
10
347.4560
20
34.0500
30
0.0
0
VERTEX
5
747
8
Layer1
10
348.3310
20
34.0500
30
0.0
0
VERTEX
5
748
8
Layer1
10
348.3310
20
36.8500
30
0.0
0
VERTEX
5
749
8
Layer1
10
347.4560
20
36.8500
30
0.0
0
VERTEX
5
74a
8
Layer1
10
347.4560
20
40.0800
30
0.0
0
VERTEX
5
74b
8
Layer1
10
340.8060
20
40.0800
30
0.0
0
VERTEX
5
74c
8
Layer1
10
340.8060
20
39.2800
30
0.0
0
VERTEX
5
74d
8
Layer1
10
340.0310
20
39.2800
30
0.0
0
VERTEX
5
74e
8
Layer1
10
340.0310
20
40.5500
30
0.0
0
VERTEX
5
74f
8
Layer1
10
339.2310
20
40.5500
30
0.0
0
VERTEX
5
750
8
Layer1
10
339.2310
20
41.5500
30
0.0
0
VERTEX
5
751
8
Layer1
10
325.2310
20
41.5500
30
0.0
0
VERTEX
5
752
8
Layer1
10
325.2310
20
40.5500
30
0.0
0
VERTEX
5
753
8
Layer1
10
324.4310
20
40.5500
30
0.0
0
VERTEX
5
754
8
Layer1
10
324.4310
20
39.2800
30
0.0
0
VERTEX
5
755
8
Layer1
10
323.6560
20
39.2800
30
0.0
0
VERTEX
5
756
8
Layer1
10
323.6560
20
40.0800
30
0.0
0
VERTEX
5
757
8
Layer1
10
317.0060
20
40.0800
30
0.0
0
VERTEX
5
758
8
Layer1
10
317.0060
20
36.8500
30
0.0
0
VERTEX
5
759
8
Layer1
10
316.1310
20
36.8500
30
0.0
0
VERTEX
5
75a
8
Layer1
10
316.1310
20
34.0500
30
0.0
0
VERTEX
5
75b
8
Layer1
10
317.0060
20
34.0500
30
0.0
0
VERTEX
5
75c
8
Layer1
10
317.0060
20
27.7800
30
0.0
0
VERTEX
5
75d
8
Layer1
10
318.8310
20
27.7800
30
0.0
0
VERTEX
5
75e
8
Layer1
10
318.8310
20
26.5800
30
0.0
0
VERTEX
5
75f
8
Layer1
10
321.8310
20
26.5800
30
0.0
0
VERTEX
5
760
8
Layer1
10
321.8310
20
27.7800
30
0.0
0
SEQEND
5
761
8
Layer1
0
POLYLINE
5
762
8
Layer1
66
1
10
0.0
20
0.0
30
0.0
70
1
0
VERTEX
5
763
8
Layer1
10
384.4750
20
28.5500
30
0.0
0
VERTEX
5
764
8
Layer1
10
385.2750
20
28.5500
30
0.0
0
VERTEX
5
765
8
Layer1
10
385.2750
20
32.0500
30
0.0
0
VERTEX
5
766
8
Layer1
10
384.4750
20
32.0500
30
0.0
0
VERTEX
5
767
8
Layer1
10
384.4750
20
37.0500
30
0.0
0
VERTEX
5
768
8
Layer1
10
385.2750
20
37.0500
30
0.0
0
VERTEX
5
769
8
Layer1
10
385.2750
20
40.5500
30
0.0
0
VERTEX
5
76a
8
Layer1
10
384.4750
20
40.5500
30
0.0
0
VERTEX
5
76b
8
Layer1
10
384.4750
20
41.5500
30
0.0
0
VERTEX
5
76c
8
Layer1
10
370.4750
20
41.5500
30
0.0
0
VERTEX
5
76d
8
Layer1
10
370.4750
20
40.5500
30
0.0
0
VERTEX
5
76e
8
Layer1
10
369.6750
20
40.5500
30
0.0
0
VERTEX
5
76f
8
Layer1
10
369.6750
20
37.0500
30
0.0
0
VERTEX
5
770
8
Layer1
10
370.4750
20
37.0500
30
0.0
0
VERTEX
5
771
8
Layer1
10
370.4750
20
32.0500
30
0.0
0
VERTEX
5
772
8
Layer1
10
369.6750
20
32.0500
30
0.0
0
VERTEX
5
773
8
Layer1
10
369.6750
20
28.5500
30
0.0
0
VERTEX
5
774
8
Layer1
10
370.4750
20
28.5500
30
0.0
0
VERTEX
5
775
8
Layer1
10
370.4750
20
27.5500
30
0.0
0
VERTEX
5
776
8
Layer1
10
384.4750
20
27.5500
30
0.0
0
VERTEX
5
777
8
Layer1
10
384.4750
20
28.5500
30
0.0
0
SEQEND
5
778
8
Layer1
0
POLYLINE
5
779
8
Layer1
66
1
10
0.0
20
0.0
30
0.0
70
1
0
VERTEX
5
77a
8
Layer1
10
403.5250
20
28.5500
30
0.0
0
VERTEX
5
77b
8
Layer1
10
404.3250
20
28.5500
30
0.0
0
VERTEX
5
77c
8
Layer1
10
404.3250
20
32.0500
30
0.0
0
VERTEX
5
77d
8
Layer1
10
403.5250
20
32.0500
30
0.0
0
VERTEX
5
77e
8
Layer1
10
403.5250
20
37.0500
30
0.0
0
VERTEX
5
77f
8
Layer1
10
404.3250
20
37.0500
30
0.0
0
VERTEX
5
780
8
Layer1
10
404.3250
20
40.5500
30
0.0
0
VERTEX
5
781
8
Layer1
10
403.5250
20
40.5500
30
0.0
0
VERTEX
5
782
8
Layer1
10
403.5250
20
41.5500
30
0.0
0
VERTEX
5
783
8
Layer1
10
389.5250
20
41.5500
30
0.0
0
VERTEX
5
784
8
Layer1
10
389.5250
20
40.5500
30
0.0
0
VERTEX
5
785
8
Layer1
10
388.7250
20
40.5500
30
0.0
0
VERTEX
5
786
8
Layer1
10
388.7250
20
37.0500
30
0.0
0
VERTEX
5
787
8
Layer1
10
389.5250
20
37.0500
30
0.0
0
VERTEX
5
788
8
Layer1
10
389.5250
20
32.0500
30
0.0
0
VERTEX
5
789
8
Layer1
10
388.7250
20
32.0500
30
0.0
0
VERTEX
5
78a
8
Layer1
10
388.7250
20
28.5500
30
0.0
0
VERTEX
5
78b
8
Layer1
10
389.5250
20
28.5500
30
0.0
0
VERTEX
5
78c
8
Layer1
10
389.5250
20
27.5500
30
0.0
0
VERTEX
5
78d
8
Layer1
10
403.5250
20
27.5500
30
0.0
0
VERTEX
5
78e
8
Layer1
10
403.5250
20
28.5500
30
0.0
0
SEQEND
5
78f
8
Layer1
0
POLYLINE
5
790
8
Layer1
66
1
10
0.0
20
0.0
30
0.0
70
1
0
VERTEX
5
791
8
Layer1
10
422.5750
20
28.5500
30
0.0
0
VERTEX
5
792
8
Layer1
10
423.3750
20
28.5500
30
0.0
0
VERTEX
5
793
8
Layer1
10
423.3750
20
32.0500
30
0.0
0
VERTEX
5
794
8
Layer1
10
422.5750
20
32.0500
30
0.0
0
VERTEX
5
795
8
Layer1
10
422.5750
20
37.0500
30
0.0
0
VERTEX
5
796
8
Layer1
10
423.3750
20
37.0500
30
0.0
0
VERTEX
5
797
8
Layer1
10
423.3750
20
40.5500
30
0.0
0
VERTEX
5
798
8
Layer1
10
422.5750
20
40.5500
30
0.0
0
VERTEX
5
799
8
Layer1
10
422.5750
20
41.5500
30
0.0
0
VERTEX
5
79a
8
Layer1
10
408.5750
20
41.5500
30
0.0
0
VERTEX
5
79b
8
Layer1
10
408.5750
20
40.5500
30
0.0
0
VERTEX
5
79c
8
Layer1
10
407.7750
20
40.5500
30
0.0
0
VERTEX
5
79d
8
Layer1
10
407.7750
20
37.0500
30
0.0
0
VERTEX
5
79e
8
Layer1
10
408.5750
20
37.0500
30
0.0
0
VERTEX
5
79f
8
Layer1
10
408.5750
20
32.0500
30
0.0
0
VERTEX
5
7a0
8
Layer1
10
407.7750
20
32.0500
30
0.0
0
VERTEX
5
7a1
8
Layer1
10
407.7750
20
28.5500
30
0.0
0
VERTEX
5
7a2
8
Layer1
10
408.5750
20
28.5500
30
0.0
0
VERTEX
5
7a3
8
Layer1
10
408.5750
20
27.5500
30
0.0
0
VERTEX
5
7a4
8
Layer1
10
422.5750
20
27.5500
30
0.0
0
VERTEX
5
7a5
8
Layer1
10
422.5750
20
28.5500
30
0.0
0
SEQEND
5
7a6
8
Layer1
0
POLYLINE
5
7a7
8
Layer1
66
1
10
0.0
20
0.0
30
0.0
70
1
0
VERTEX
5
7a8
8
Layer1
10
427.8550
20
35.4250
30
0.0
0
VERTEX
5
7a9
8
Layer1
10
427.8550
20
33.6000
30
0.0
0
VERTEX
5
7aa
8
Layer1
10
428.6550
20
33.6000
30
0.0
0
VERTEX
5
7ab
8
Layer1
10
428.6550
20
32.8250
30
0.0
0
VERTEX
5
7ac
8
Layer1
10
428.6250
20
32.8250
30
0.0
0
VERTEX
5
7ad
8
Layer1
10
428.6250
20
32.0250
30
0.0
0
VERTEX
5
7ae
8
Layer1
10
427.6250
20
32.0250
30
0.0
0
VERTEX
5
7af
8
Layer1
10
427.6250
20
18.0250
30
0.0
0
VERTEX
5
7b0
8
Layer1
10
428.6250
20
18.0250
30
0.0
0
VERTEX
5
7b1
8
Layer1
10
428.6250
20
17.2250
30
0.0
0
VERTEX
5
7b2
8
Layer1
10
428.6550
20
17.2250
30
0.0
0
VERTEX
5
7b3
8
Layer1
10
428.6550
20
16.4500
30
0.0
0
VERTEX
5
7b4
8
Layer1
10
427.8550
20
16.4500
30
0.0
0
VERTEX
5
7b5
8
Layer1
10
427.8550
20
14.6250
30
0.0
0
VERTEX
5
7b6
8
Layer1
10
426.6550
20
14.6250
30
0.0
0
VERTEX
5
7b7
8
Layer1
10
426.6550
20
11.6250
30
0.0
0
VERTEX
5
7b8
8
Layer1
10
427.8550
20
11.6250
30
0.0
0
VERTEX
5
7b9
8
Layer1
10
427.8550
20
9.8000
30
0.0
0
VERTEX
5
7ba
8
Layer1
10
434.1250
20
9.8000
30
0.0
0
VERTEX
5
7bb
8
Layer1
10
434.1250
20
8.9250
30
0.0
0
VERTEX
5
7bc
8
Layer1
10
436.9250
20
8.9250
30
0.0
0
VERTEX
5
7bd
8
Layer1
10
436.9250
20
9.8000
30
0.0
0
VERTEX
5
7be
8
Layer1
10
440.1550
20
9.8000
30
0.0
0
VERTEX
5
7bf
8
Layer1
10
440.1550
20
16.4500
30
0.0
0
VERTEX
5
7c0
8
Layer1
10
439.3550
20
16.4500
30
0.0
0
VERTEX
5
7c1
8
Layer1
10
439.3550
20
17.2250
30
0.0
0
VERTEX
5
7c2
8
Layer1
10
440.6250
20
17.2250
30
0.0
0
VERTEX
5
7c3
8
Layer1
10
440.6250
20
18.0250
30
0.0
0
VERTEX
5
7c4
8
Layer1
10
441.6250
20
18.0250
30
0.0
0
VERTEX
5
7c5
8
Layer1
10
441.6250
20
32.0250
30
0.0
0
VERTEX
5
7c6
8
Layer1
10
440.6250
20
32.0250
30
0.0
0
VERTEX
5
7c7
8
Layer1
10
440.6250
20
32.8250
30
0.0
0
VERTEX
5
7c8
8
Layer1
10
439.3550
20
32.8250
30
0.0
0
VERTEX
5
7c9
8
Layer1
10
439.3550
20
33.6000
30
0.0
0
VERTEX
5
7ca
8
Layer1
10
440.1550
20
33.6000
30
0.0
0
VERTEX
5
7cb
8
Layer1
10
440.1550
20
40.2500
30
0.0
0
VERTEX
5
7cc
8
Layer1
10
436.9250
20
40.2500
30
0.0
0
VERTEX
5
7cd
8
Layer1
10
436.9250
20
41.1250
30
0.0
0
VERTEX
5
7ce
8
Layer1
10
434.1250
20
41.1250
30
0.0
0
VERTEX
5
7cf
8
Layer1
10
434.1250
20
40.2500
30
0.0
0
VERTEX
5
7d0
8
Layer1
10
427.8550
20
40.2500
30
0.0
0
VERTEX
5
7d1
8
Layer1
10
427.8550
20
38.4250
30
0.0
0
VERTEX
5
7d2
8
Layer1
10
426.6550
20
38.4250
30
0.0
0
VERTEX
5
7d3
8
Layer1
10
426.6550
20
35.4250
30
0.0
0
VERTEX
5
7d4
8
Layer1
10
427.8550
20
35.4250
30
0.0
0
SEQEND
5
7d5
8
Layer1
0
POLYLINE
5
7d6
8
Layer1
66
1
10
0.0
20
0.0
30
0.0
70
1
0
VERTEX
5
7d7
8
Layer1
10
22.5250
20
9.5000
30
0.0
0
VERTEX
5
7d8
8
Layer1
10
23.3250
20
9.5000
30
0.0
0
VERTEX
5
7d9
8
Layer1
10
23.3250
20
13.0000
30
0.0
0
VERTEX
5
7da
8
Layer1
10
22.5250
20
13.0000
30
0.0
0
VERTEX
5
7db
8
Layer1
10
22.5250
20
18.0000
30
0.0
0
VERTEX
5
7dc
8
Layer1
10
23.3250
20
18.0000
30
0.0
0
VERTEX
5
7dd
8
Layer1
10
23.3250
20
21.5000
30
0.0
0
VERTEX
5
7de
8
Layer1
10
22.5250
20
21.5000
30
0.0
0
VERTEX
5
7df
8
Layer1
10
22.5250
20
22.5000
30
0.0
0
VERTEX
5
7e0
8
Layer1
10
8.5250
20
22.5000
30
0.0
0
VERTEX
5
7e1
8
Layer1
10
8.5250
20
21.5000
30
0.0
0
VERTEX
5
7e2
8
Layer1
10
7.7250
20
21.5000
30
0.0
0
VERTEX
5
7e3
8
Layer1
10
7.7250
20
18.0000
30
0.0
0
VERTEX
5
7e4
8
Layer1
10
8.5250
20
18.0000
30
0.0
0
VERTEX
5
7e5
8
Layer1
10
8.5250
20
13.0000
30
0.0
0
VERTEX
5
7e6
8
Layer1
10
7.7250
20
13.0000
30
0.0
0
VERTEX
5
7e7
8
Layer1
10
7.7250
20
9.5000
30
0.0
0
VERTEX
5
7e8
8
Layer1
10
8.5250
20
9.5000
30
0.0
0
VERTEX
5
7e9
8
Layer1
10
8.5250
20
8.5000
30
0.0
0
VERTEX
5
7ea
8
Layer1
10
22.5250
20
8.5000
30
0.0
0
VERTEX
5
7eb
8
Layer1
10
22.5250
20
9.5000
30
0.0
0
SEQEND
5
7ec
8
Layer1
0
POLYLINE
5
7ed
8
Layer1
66
1
10
0.0
20
0.0
30
0.0
70
1
0
VERTEX
5
7ee
8
Layer1
10
41.5750
20
9.5000
30
0.0
0
VERTEX
5
7ef
8
Layer1
10
42.3750
20
9.5000
30
0.0
0
VERTEX
5
7f0
8
Layer1
10
42.3750
20
13.0000
30
0.0
0
VERTEX
5
7f1
8
Layer1
10
41.5750
20
13.0000
30
0.0
0
VERTEX
5
7f2
8
Layer1
10
41.5750
20
18.0000
30
0.0
0
VERTEX
5
7f3
8
Layer1
10
42.3750
20
18.0000
30
0.0
0
VERTEX
5
7f4
8
Layer1
10
42.3750
20
21.5000
30
0.0
0
VERTEX
5
7f5
8
Layer1
10
41.5750
20
21.5000
30
0.0
0
VERTEX
5
7f6
8
Layer1
10
41.5750
20
22.5000
30
0.0
0
VERTEX
5
7f7
8
Layer1
10
27.5750
20
22.5000
30
0.0
0
VERTEX
5
7f8
8
Layer1
10
27.5750
20
21.5000
30
0.0
0
VERTEX
5
7f9
8
Layer1
10
26.7750
20
21.5000
30
0.0
0
VERTEX
5
7fa
8
Layer1
10
26.7750
20
18.0000
30
0.0
0
VERTEX
5
7fb
8
Layer1
10
27.5750
20
18.0000
30
0.0
0
VERTEX
5
7fc
8
Layer1
10
27.5750
20
13.0000
30
0.0
0
VERTEX
5
7fd
8
Layer1
10
26.7750
20
13.0000
30
0.0
0
VERTEX
5
7fe
8
Layer1
10
26.7750
20
9.5000
30
0.0
0
VERTEX
5
7ff
8
Layer1
10
27.5750
20
9.5000
30
0.0
0
VERTEX
5
800
8
Layer1
10
27.5750
20
8.5000
30
0.0
0
VERTEX
5
801
8
Layer1
10
41.5750
20
8.5000
30
0.0
0
VERTEX
5
802
8
Layer1
10
41.5750
20
9.5000
30
0.0
0
SEQEND
5
803
8
Layer1
0
POLYLINE
5
804
8
Layer1
66
1
10
0.0
20
0.0
30
0.0
70
1
0
VERTEX
5
805
8
Layer1
10
60.6250
20
9.5000
30
0.0
0
VERTEX
5
806
8
Layer1
10
61.4250
20
9.5000
30
0.0
0
VERTEX
5
807
8
Layer1
10
61.4250
20
13.0000
30
0.0
0
VERTEX
5
808
8
Layer1
10
60.6250
20
13.0000
30
0.0
0
VERTEX
5
809
8
Layer1
10
60.6250
20
18.0000
30
0.0
0
VERTEX
5
80a
8
Layer1
10
61.4250
20
18.0000
30
0.0
0
VERTEX
5
80b
8
Layer1
10
61.4250
20
21.5000
30
0.0
0
VERTEX
5
80c
8
Layer1
10
60.6250
20
21.5000
30
0.0
0
VERTEX
5
80d
8
Layer1
10
60.6250
20
22.5000
30
0.0
0
VERTEX
5
80e
8
Layer1
10
46.6250
20
22.5000
30
0.0
0
VERTEX
5
80f
8
Layer1
10
46.6250
20
21.5000
30
0.0
0
VERTEX
5
810
8
Layer1
10
45.8250
20
21.5000
30
0.0
0
VERTEX
5
811
8
Layer1
10
45.8250
20
18.0000
30
0.0
0
VERTEX
5
812
8
Layer1
10
46.6250
20
18.0000
30
0.0
0
VERTEX
5
813
8
Layer1
10
46.6250
20
13.0000
30
0.0
0
VERTEX
5
814
8
Layer1
10
45.8250
20
13.0000
30
0.0
0
VERTEX
5
815
8
Layer1
10
45.8250
20
9.5000
30
0.0
0
VERTEX
5
816
8
Layer1
10
46.6250
20
9.5000
30
0.0
0
VERTEX
5
817
8
Layer1
10
46.6250
20
8.5000
30
0.0
0
VERTEX
5
818
8
Layer1
10
60.6250
20
8.5000
30
0.0
0
VERTEX
5
819
8
Layer1
10
60.6250
20
9.5000
30
0.0
0
SEQEND
5
81a
8
Layer1
0
POLYLINE
5
81b
8
Layer1
66
1
10
0.0
20
0.0
30
0.0
70
1
0
VERTEX
5
81c
8
Layer1
10
91.5810
20
9.5000
30
0.0
0
VERTEX
5
81d
8
Layer1
10
92.3810
20
9.5000
30
0.0
0
VERTEX
5
81e
8
Layer1
10
92.3810
20
13.0000
30
0.0
0
VERTEX
5
81f
8
Layer1
10
91.5810
20
13.0000
30
0.0
0
VERTEX
5
820
8
Layer1
10
91.5810
20
18.0000
30
0.0
0
VERTEX
5
821
8
Layer1
10
92.3810
20
18.0000
30
0.0
0
VERTEX
5
822
8
Layer1
10
92.3810
20
21.5000
30
0.0
0
VERTEX
5
823
8
Layer1
10
91.5810
20
21.5000
30
0.0
0
VERTEX
5
824
8
Layer1
10
91.5810
20
22.5000
30
0.0
0
VERTEX
5
825
8
Layer1
10
77.5810
20
22.5000
30
0.0
0
VERTEX
5
826
8
Layer1
10
77.5810
20
21.5000
30
0.0
0
VERTEX
5
827
8
Layer1
10
76.7810
20
21.5000
30
0.0
0
VERTEX
5
828
8
Layer1
10
76.7810
20
18.0000
30
0.0
0
VERTEX
5
829
8
Layer1
10
77.5810
20
18.0000
30
0.0
0
VERTEX
5
82a
8
Layer1
10
77.5810
20
13.0000
30
0.0
0
VERTEX
5
82b
8
Layer1
10
76.7810
20
13.0000
30
0.0
0
VERTEX
5
82c
8
Layer1
10
76.7810
20
9.5000
30
0.0
0
VERTEX
5
82d
8
Layer1
10
77.5810
20
9.5000
30
0.0
0
VERTEX
5
82e
8
Layer1
10
77.5810
20
8.5000
30
0.0
0
VERTEX
5
82f
8
Layer1
10
91.5810
20
8.5000
30
0.0
0
VERTEX
5
830
8
Layer1
10
91.5810
20
9.5000
30
0.0
0
SEQEND
5
831
8
Layer1
0
POLYLINE
5
832
8
Layer1
66
1
10
0.0
20
0.0
30
0.0
70
1
0
VERTEX
5
833
8
Layer1
10
115.3940
20
9.5000
30
0.0
0
VERTEX
5
834
8
Layer1
10
116.1940
20
9.5000
30
0.0
0
VERTEX
5
835
8
Layer1
10
116.1940
20
13.0000
30
0.0
0
VERTEX
5
836
8
Layer1
10
115.3940
20
13.0000
30
0.0
0
VERTEX
5
837
8
Layer1
10
115.3940
20
18.0000
30
0.0
0
VERTEX
5
838
8
Layer1
10
116.1940
20
18.0000
30
0.0
0
VERTEX
5
839
8
Layer1
10
116.1940
20
21.5000
30
0.0
0
VERTEX
5
83a
8
Layer1
10
115.3940
20
21.5000
30
0.0
0
VERTEX
5
83b
8
Layer1
10
115.3940
20
22.5000
30
0.0
0
VERTEX
5
83c
8
Layer1
10
101.3940
20
22.5000
30
0.0
0
VERTEX
5
83d
8
Layer1
10
101.3940
20
21.5000
30
0.0
0
VERTEX
5
83e
8
Layer1
10
100.5940
20
21.5000
30
0.0
0
VERTEX
5
83f
8
Layer1
10
100.5940
20
18.0000
30
0.0
0
VERTEX
5
840
8
Layer1
10
101.3940
20
18.0000
30
0.0
0
VERTEX
5
841
8
Layer1
10
101.3940
20
13.0000
30
0.0
0
VERTEX
5
842
8
Layer1
10
100.5940
20
13.0000
30
0.0
0
VERTEX
5
843
8
Layer1
10
100.5940
20
9.5000
30
0.0
0
VERTEX
5
844
8
Layer1
10
101.3940
20
9.5000
30
0.0
0
VERTEX
5
845
8
Layer1
10
101.3940
20
8.5000
30
0.0
0
VERTEX
5
846
8
Layer1
10
115.3940
20
8.5000
30
0.0
0
VERTEX
5
847
8
Layer1
10
115.3940
20
9.5000
30
0.0
0
SEQEND
5
848
8
Layer1
0
POLYLINE
5
849
8
Layer1
66
1
10
0.0
20
0.0
30
0.0
70
1
0
VERTEX
5
84a
8
Layer1
10
139.2060
20
9.5000
30
0.0
0
VERTEX
5
84b
8
Layer1
10
140.0060
20
9.5000
30
0.0
0
VERTEX
5
84c
8
Layer1
10
140.0060
20
13.0000
30
0.0
0
VERTEX
5
84d
8
Layer1
10
139.2060
20
13.0000
30
0.0
0
VERTEX
5
84e
8
Layer1
10
139.2060
20
18.0000
30
0.0
0
VERTEX
5
84f
8
Layer1
10
140.0060
20
18.0000
30
0.0
0
VERTEX
5
850
8
Layer1
10
140.0060
20
21.5000
30
0.0
0
VERTEX
5
851
8
Layer1
10
139.2060
20
21.5000
30
0.0
0
VERTEX
5
852
8
Layer1
10
139.2060
20
22.5000
30
0.0
0
VERTEX
5
853
8
Layer1
10
125.2060
20
22.5000
30
0.0
0
VERTEX
5
854
8
Layer1
10
125.2060
20
21.5000
30
0.0
0
VERTEX
5
855
8
Layer1
10
124.4060
20
21.5000
30
0.0
0
VERTEX
5
856
8
Layer1
10
124.4060
20
18.0000
30
0.0
0
VERTEX
5
857
8
Layer1
10
125.2060
20
18.0000
30
0.0
0
VERTEX
5
858
8
Layer1
10
125.2060
20
13.0000
30
0.0
0
VERTEX
5
859
8
Layer1
10
124.4060
20
13.0000
30
0.0
0
VERTEX
5
85a
8
Layer1
10
124.4060
20
9.5000
30
0.0
0
VERTEX
5
85b
8
Layer1
10
125.2060
20
9.5000
30
0.0
0
VERTEX
5
85c
8
Layer1
10
125.2060
20
8.5000
30
0.0
0
VERTEX
5
85d
8
Layer1
10
139.2060
20
8.5000
30
0.0
0
VERTEX
5
85e
8
Layer1
10
139.2060
20
9.5000
30
0.0
0
SEQEND
5
85f
8
Layer1
0
POLYLINE
5
860
8
Layer1
66
1
10
0.0
20
0.0
30
0.0
70
1
0
VERTEX
5
861
8
Layer1
10
155.1440
20
8.7300
30
0.0
0
VERTEX
5
862
8
Layer1
10
156.9690
20
8.7300
30
0.0
0
VERTEX
5
863
8
Layer1
10
156.9690
20
13.2000
30
0.0
0
VERTEX
5
864
8
Layer1
10
196.6440
20
13.2000
30
0.0
0
VERTEX
5
865
8
Layer1
10
196.6440
20
13.0000
30
0.0
0
VERTEX
5
866
8
Layer1
10
195.8440
20
13.0000
30
0.0
0
VERTEX
5
867
8
Layer1
10
195.8440
20
9.5000
30
0.0
0
VERTEX
5
868
8
Layer1
10
196.6440
20
9.5000
30
0.0
0
VERTEX
5
869
8
Layer1
10
196.6440
20
8.5000
30
0.0
0
VERTEX
5
86a
8
Layer1
10
210.6440
20
8.5000
30
0.0
0
VERTEX
5
86b
8
Layer1
10
210.6440
20
9.5000
30
0.0
0
VERTEX
5
86c
8
Layer1
10
211.4440
20
9.5000
30
0.0
0
VERTEX
5
86d
8
Layer1
10
211.4440
20
13.0000
30
0.0
0
VERTEX
5
86e
8
Layer1
10
210.6440
20
13.0000
30
0.0
0
VERTEX
5
86f
8
Layer1
10
210.6440
20
13.2000
30
0.0
0
VERTEX
5
870
8
Layer1
10
250.3190
20
13.2000
30
0.0
0
VERTEX
5
871
8
Layer1
10
250.3190
20
8.7300
30
0.0
0
VERTEX
5
872
8
Layer1
10
252.1440
20
8.7300
30
0.0
0
VERTEX
5
873
8
Layer1
10
252.1440
20
7.5300
30
0.0
0
VERTEX
5
874
8
Layer1
10
255.1440
20
7.5300
30
0.0
0
VERTEX
5
875
8
Layer1
10
255.1440
20
8.7300
30
0.0
0
VERTEX
5
876
8
Layer1
10
256.9690
20
8.7300
30
0.0
0
VERTEX
5
877
8
Layer1
10
256.9690
20
15.0000
30
0.0
0
VERTEX
5
878
8
Layer1
10
257.8690
20
15.0000
30
0.0
0
VERTEX
5
879
8
Layer1
10
257.8690
20
17.8000
30
0.0
0
VERTEX
5
87a
8
Layer1
10
256.9690
20
17.8000
30
0.0
0
VERTEX
5
87b
8
Layer1
10
256.9690
20
21.0300
30
0.0
0
VERTEX
5
87c
8
Layer1
10
250.3190
20
21.0300
30
0.0
0
VERTEX
5
87d
8
Layer1
10
250.3190
20
17.8000
30
0.0
0
VERTEX
5
87e
8
Layer1
10
210.6440
20
17.8000
30
0.0
0
VERTEX
5
87f
8
Layer1
10
210.6440
20
18.0000
30
0.0
0
VERTEX
5
880
8
Layer1
10
211.4440
20
18.0000
30
0.0
0
VERTEX
5
881
8
Layer1
10
211.4440
20
21.5000
30
0.0
0
VERTEX
5
882
8
Layer1
10
210.6440
20
21.5000
30
0.0
0
VERTEX
5
883
8
Layer1
10
210.6440
20
22.5000
30
0.0
0
VERTEX
5
884
8
Layer1
10
196.6440
20
22.5000
30
0.0
0
VERTEX
5
885
8
Layer1
10
196.6440
20
21.5000
30
0.0
0
VERTEX
5
886
8
Layer1
10
195.8440
20
21.5000
30
0.0
0
VERTEX
5
887
8
Layer1
10
195.8440
20
18.0000
30
0.0
0
VERTEX
5
888
8
Layer1
10
196.6440
20
18.0000
30
0.0
0
VERTEX
5
889
8
Layer1
10
196.6440
20
17.8000
30
0.0
0
VERTEX
5
88a
8
Layer1
10
156.9690
20
17.8000
30
0.0
0
VERTEX
5
88b
8
Layer1
10
156.9690
20
21.0300
30
0.0
0
VERTEX
5
88c
8
Layer1
10
150.3190
20
21.0300
30
0.0
0
VERTEX
5
88d
8
Layer1
10
150.3190
20
17.8000
30
0.0
0
VERTEX
5
88e
8
Layer1
10
149.4190
20
17.8000
30
0.0
0
VERTEX
5
88f
8
Layer1
10
149.4190
20
15.0000
30
0.0
0
VERTEX
5
890
8
Layer1
10
150.3190
20
15.0000
30
0.0
0
VERTEX
5
891
8
Layer1
10
150.3190
20
8.7300
30
0.0
0
VERTEX
5
892
8
Layer1
10
152.1440
20
8.7300
30
0.0
0
VERTEX
5
893
8
Layer1
10
152.1440
20
7.5300
30
0.0
0
VERTEX
5
894
8
Layer1
10
155.1440
20
7.5300
30
0.0
0
VERTEX
5
895
8
Layer1
10
155.1440
20
8.7300
30
0.0
0
SEQEND
5
896
8
Layer1
0
POLYLINE
5
897
8
Layer1
66
1
10
0.0
20
0.0
30
0.0
70
1
0
VERTEX
5
898
8
Layer1
10
282.0810
20
9.5000
30
0.0
0
VERTEX
5
899
8
Layer1
10
282.8810
20
9.5000
30
0.0
0
VERTEX
5
89a
8
Layer1
10
282.8810
20
13.0000
30
0.0
0
VERTEX
5
89b
8
Layer1
10
282.0810
20
13.0000
30
0.0
0
VERTEX
5
89c
8
Layer1
10
282.0810
20
18.0000
30
0.0
0
VERTEX
5
89d
8
Layer1
10
282.8810
20
18.0000
30
0.0
0
VERTEX
5
89e
8
Layer1
10
282.8810
20
21.5000
30
0.0
0
VERTEX
5
89f
8
Layer1
10
282.0810
20
21.5000
30
0.0
0
VERTEX
5
8a0
8
Layer1
10
282.0810
20
22.5000
30
0.0
0
VERTEX
5
8a1
8
Layer1
10
268.0810
20
22.5000
30
0.0
0
VERTEX
5
8a2
8
Layer1
10
268.0810
20
21.5000
30
0.0
0
VERTEX
5
8a3
8
Layer1
10
267.2810
20
21.5000
30
0.0
0
VERTEX
5
8a4
8
Layer1
10
267.2810
20
18.0000
30
0.0
0
VERTEX
5
8a5
8
Layer1
10
268.0810
20
18.0000
30
0.0
0
VERTEX
5
8a6
8
Layer1
10
268.0810
20
13.0000
30
0.0
0
VERTEX
5
8a7
8
Layer1
10
267.2810
20
13.0000
30
0.0
0
VERTEX
5
8a8
8
Layer1
10
267.2810
20
9.5000
30
0.0
0
VERTEX
5
8a9
8
Layer1
10
268.0810
20
9.5000
30
0.0
0
VERTEX
5
8aa
8
Layer1
10
268.0810
20
8.5000
30
0.0
0
VERTEX
5
8ab
8
Layer1
10
282.0810
20
8.5000
30
0.0
0
VERTEX
5
8ac
8
Layer1
10
282.0810
20
9.5000
30
0.0
0
SEQEND
5
8ad
8
Layer1
0
POLYLINE
5
8ae
8
Layer1
66
1
10
0.0
20
0.0
30
0.0
70
1
0
VERTEX
5
8af
8
Layer1
10
305.8940
20
9.5000
30
0.0
0
VERTEX
5
8b0
8
Layer1
10
306.6940
20
9.5000
30
0.0
0
VERTEX
5
8b1
8
Layer1
10
306.6940
20
13.0000
30
0.0
0
VERTEX
5
8b2
8
Layer1
10
305.8940
20
13.0000
30
0.0
0
VERTEX
5
8b3
8
Layer1
10
305.8940
20
18.0000
30
0.0
0
VERTEX
5
8b4
8
Layer1
10
306.6940
20
18.0000
30
0.0
0
VERTEX
5
8b5
8
Layer1
10
306.6940
20
21.5000
30
0.0
0
VERTEX
5
8b6
8
Layer1
10
305.8940
20
21.5000
30
0.0
0
VERTEX
5
8b7
8
Layer1
10
305.8940
20
22.5000
30
0.0
0
VERTEX
5
8b8
8
Layer1
10
291.8940
20
22.5000
30
0.0
0
VERTEX
5
8b9
8
Layer1
10
291.8940
20
21.5000
30
0.0
0
VERTEX
5
8ba
8
Layer1
10
291.0940
20
21.5000
30
0.0
0
VERTEX
5
8bb
8
Layer1
10
291.0940
20
18.0000
30
0.0
0
VERTEX
5
8bc
8
Layer1
10
291.8940
20
18.0000
30
0.0
0
VERTEX
5
8bd
8
Layer1
10
291.8940
20
13.0000
30
0.0
0
VERTEX
5
8be
8
Layer1
10
291.0940
20
13.0000
30
0.0
0
VERTEX
5
8bf
8
Layer1
10
291.0940
20
9.5000
30
0.0
0
VERTEX
5
8c0
8
Layer1
10
291.8940
20
9.5000
30
0.0
0
VERTEX
5
8c1
8
Layer1
10
291.8940
20
8.5000
30
0.0
0
VERTEX
5
8c2
8
Layer1
10
305.8940
20
8.5000
30
0.0
0
VERTEX
5
8c3
8
Layer1
10
305.8940
20
9.5000
30
0.0
0
SEQEND
5
8c4
8
Layer1
0
POLYLINE
5
8c5
8
Layer1
66
1
10
0.0
20
0.0
30
0.0
70
1
0
VERTEX
5
8c6
8
Layer1
10
329.7060
20
9.5000
30
0.0
0
VERTEX
5
8c7
8
Layer1
10
330.5060
20
9.5000
30
0.0
0
VERTEX
5
8c8
8
Layer1
10
330.5060
20
13.0000
30
0.0
0
VERTEX
5
8c9
8
Layer1
10
329.7060
20
13.0000
30
0.0
0
VERTEX
5
8ca
8
Layer1
10
329.7060
20
18.0000
30
0.0
0
VERTEX
5
8cb
8
Layer1
10
330.5060
20
18.0000
30
0.0
0
VERTEX
5
8cc
8
Layer1
10
330.5060
20
21.5000
30
0.0
0
VERTEX
5
8cd
8
Layer1
10
329.7060
20
21.5000
30
0.0
0
VERTEX
5
8ce
8
Layer1
10
329.7060
20
22.5000
30
0.0
0
VERTEX
5
8cf
8
Layer1
10
315.7060
20
22.5000
30
0.0
0
VERTEX
5
8d0
8
Layer1
10
315.7060
20
21.5000
30
0.0
0
VERTEX
5
8d1
8
Layer1
10
314.9060
20
21.5000
30
0.0
0
VERTEX
5
8d2
8
Layer1
10
314.9060
20
18.0000
30
0.0
0
VERTEX
5
8d3
8
Layer1
10
315.7060
20
18.0000
30
0.0
0
VERTEX
5
8d4
8
Layer1
10
315.7060
20
13.0000
30
0.0
0
VERTEX
5
8d5
8
Layer1
10
314.9060
20
13.0000
30
0.0
0
VERTEX
5
8d6
8
Layer1
10
314.9060
20
9.5000
30
0.0
0
VERTEX
5
8d7
8
Layer1
10
315.7060
20
9.5000
30
0.0
0
VERTEX
5
8d8
8
Layer1
10
315.7060
20
8.5000
30
0.0
0
VERTEX
5
8d9
8
Layer1
10
329.7060
20
8.5000
30
0.0
0
VERTEX
5
8da
8
Layer1
10
329.7060
20
9.5000
30
0.0
0
SEQEND
5
8db
8
Layer1
0
POLYLINE
5
8dc
8
Layer1
66
1
10
0.0
20
0.0
30
0.0
70
1
0
VERTEX
5
8dd
8
Layer1
10
353.5190
20
9.5000
30
0.0
0
VERTEX
5
8de
8
Layer1
10
354.3190
20
9.5000
30
0.0
0
VERTEX
5
8df
8
Layer1
10
354.3190
20
13.0000
30
0.0
0
VERTEX
5
8e0
8
Layer1
10
353.5190
20
13.0000
30
0.0
0
VERTEX
5
8e1
8
Layer1
10
353.5190
20
18.0000
30
0.0
0
VERTEX
5
8e2
8
Layer1
10
354.3190
20
18.0000
30
0.0
0
VERTEX
5
8e3
8
Layer1
10
354.3190
20
21.5000
30
0.0
0
VERTEX
5
8e4
8
Layer1
10
353.5190
20
21.5000
30
0.0
0
VERTEX
5
8e5
8
Layer1
10
353.5190
20
22.5000
30
0.0
0
VERTEX
5
8e6
8
Layer1
10
339.5190
20
22.5000
30
0.0
0
VERTEX
5
8e7
8
Layer1
10
339.5190
20
21.5000
30
0.0
0
VERTEX
5
8e8
8
Layer1
10
338.7190
20
21.5000
30
0.0
0
VERTEX
5
8e9
8
Layer1
10
338.7190
20
18.0000
30
0.0
0
VERTEX
5
8ea
8
Layer1
10
339.5190
20
18.0000
30
0.0
0
VERTEX
5
8eb
8
Layer1
10
339.5190
20
13.0000
30
0.0
0
VERTEX
5
8ec
8
Layer1
10
338.7190
20
13.0000
30
0.0
0
VERTEX
5
8ed
8
Layer1
10
338.7190
20
9.5000
30
0.0
0
VERTEX
5
8ee
8
Layer1
10
339.5190
20
9.5000
30
0.0
0
VERTEX
5
8ef
8
Layer1
10
339.5190
20
8.5000
30
0.0
0
VERTEX
5
8f0
8
Layer1
10
353.5190
20
8.5000
30
0.0
0
VERTEX
5
8f1
8
Layer1
10
353.5190
20
9.5000
30
0.0
0
SEQEND
5
8f2
8
Layer1
0
POLYLINE
5
8f3
8
Layer1
66
1
10
0.0
20
0.0
30
0.0
70
1
0
VERTEX
5
8f4
8
Layer1
10
376.6000
20
8.7300
30
0.0
0
VERTEX
5
8f5
8
Layer1
10
378.4250
20
8.7300
30
0.0
0
VERTEX
5
8f6
8
Layer1
10
378.4250
20
9.5300
30
0.0
0
VERTEX
5
8f7
8
Layer1
10
379.2000
20
9.5300
30
0.0
0
VERTEX
5
8f8
8
Layer1
10
379.2000
20
9.5000
30
0.0
0
VERTEX
5
8f9
8
Layer1
10
380.0000
20
9.5000
30
0.0
0
VERTEX
5
8fa
8
Layer1
10
380.0000
20
8.5000
30
0.0
0
VERTEX
5
8fb
8
Layer1
10
394.0000
20
8.5000
30
0.0
0
VERTEX
5
8fc
8
Layer1
10
394.0000
20
9.5000
30
0.0
0
VERTEX
5
8fd
8
Layer1
10
394.8000
20
9.5000
30
0.0
0
VERTEX
5
8fe
8
Layer1
10
394.8000
20
9.5300
30
0.0
0
VERTEX
5
8ff
8
Layer1
10
395.5750
20
9.5300
30
0.0
0
VERTEX
5
900
8
Layer1
10
395.5750
20
8.7300
30
0.0
0
VERTEX
5
901
8
Layer1
10
397.4000
20
8.7300
30
0.0
0
VERTEX
5
902
8
Layer1
10
397.4000
20
7.5300
30
0.0
0
VERTEX
5
903
8
Layer1
10
400.4000
20
7.5300
30
0.0
0
VERTEX
5
904
8
Layer1
10
400.4000
20
8.7300
30
0.0
0
VERTEX
5
905
8
Layer1
10
402.2250
20
8.7300
30
0.0
0
VERTEX
5
906
8
Layer1
10
402.2250
20
15.0000
30
0.0
0
VERTEX
5
907
8
Layer1
10
403.1000
20
15.0000
30
0.0
0
VERTEX
5
908
8
Layer1
10
403.1000
20
17.8000
30
0.0
0
VERTEX
5
909
8
Layer1
10
402.2250
20
17.8000
30
0.0
0
VERTEX
5
90a
8
Layer1
10
402.2250
20
21.0300
30
0.0
0
VERTEX
5
90b
8
Layer1
10
395.5750
20
21.0300
30
0.0
0
VERTEX
5
90c
8
Layer1
10
395.5750
20
20.2300
30
0.0
0
VERTEX
5
90d
8
Layer1
10
394.8000
20
20.2300
30
0.0
0
VERTEX
5
90e
8
Layer1
10
394.8000
20
21.5000
30
0.0
0
VERTEX
5
90f
8
Layer1
10
394.0000
20
21.5000
30
0.0
0
VERTEX
5
910
8
Layer1
10
394.0000
20
22.5000
30
0.0
0
VERTEX
5
911
8
Layer1
10
380.0000
20
22.5000
30
0.0
0
VERTEX
5
912
8
Layer1
10
380.0000
20
21.5000
30
0.0
0
VERTEX
5
913
8
Layer1
10
379.2000
20
21.5000
30
0.0
0
VERTEX
5
914
8
Layer1
10
379.2000
20
20.2300
30
0.0
0
VERTEX
5
915
8
Layer1
10
378.4250
20
20.2300
30
0.0
0
VERTEX
5
916
8
Layer1
10
378.4250
20
21.0300
30
0.0
0
VERTEX
5
917
8
Layer1
10
371.7750
20
21.0300
30
0.0
0
VERTEX
5
918
8
Layer1
10
371.7750
20
17.8000
30
0.0
0
VERTEX
5
919
8
Layer1
10
370.9000
20
17.8000
30
0.0
0
VERTEX
5
91a
8
Layer1
10
370.9000
20
15.0000
30
0.0
0
VERTEX
5
91b
8
Layer1
10
371.7750
20
15.0000
30
0.0
0
VERTEX
5
91c
8
Layer1
10
371.7750
20
8.7300
30
0.0
0
VERTEX
5
91d
8
Layer1
10
373.6000
20
8.7300
30
0.0
0
VERTEX
5
91e
8
Layer1
10
373.6000
20
7.5300
30
0.0
0
VERTEX
5
91f
8
Layer1
10
376.6000
20
7.5300
30
0.0
0
VERTEX
5
920
8
Layer1
10
376.6000
20
8.7300
30
0.0
0
SEQEND
5
921
8
Layer1
0
POLYLINE
5
922
8
Layer1
66
1
10
0.0
20
0.0
30
0.0
70
1
0
VERTEX
5
923
8
Layer1
10
422.5750
20
9.5000
30
0.0
0
VERTEX
5
924
8
Layer1
10
423.3750
20
9.5000
30
0.0
0
VERTEX
5
925
8
Layer1
10
423.3750
20
13.0000
30
0.0
0
VERTEX
5
926
8
Layer1
10
422.5750
20
13.0000
30
0.0
0
VERTEX
5
927
8
Layer1
10
422.5750
20
18.0000
30
0.0
0
VERTEX
5
928
8
Layer1
10
423.3750
20
18.0000
30
0.0
0
VERTEX
5
929
8
Layer1
10
423.3750
20
21.5000
30
0.0
0
VERTEX
5
92a
8
Layer1
10
422.5750
20
21.5000
30
0.0
0
VERTEX
5
92b
8
Layer1
10
422.5750
20
22.5000
30
0.0
0
VERTEX
5
92c
8
Layer1
10
408.5750
20
22.5000
30
0.0
0
VERTEX
5
92d
8
Layer1
10
408.5750
20
21.5000
30
0.0
0
VERTEX
5
92e
8
Layer1
10
407.7750
20
21.5000
30
0.0
0
VERTEX
5
92f
8
Layer1
10
407.7750
20
18.0000
30
0.0
0
VERTEX
5
930
8
Layer1
10
408.5750
20
18.0000
30
0.0
0
VERTEX
5
931
8
Layer1
10
408.5750
20
13.0000
30
0.0
0
VERTEX
5
932
8
Layer1
10
407.7750
20
13.0000
30
0.0
0
VERTEX
5
933
8
Layer1
10
407.7750
20
9.5000
30
0.0
0
VERTEX
5
934
8
Layer1
10
408.5750
20
9.5000
30
0.0
0
VERTEX
5
935
8
Layer1
10
408.5750
20
8.5000
30
0.0
0
VERTEX
5
936
8
Layer1
10
422.5750
20
8.5000
30
0.0
0
VERTEX
5
937
8
Layer1
10
422.5750
20
9.5000
30
0.0
0
SEQEND
5
938
8
Layer1
0
ENDSEC
0
EOF
