  0
SECTION
  2
HEADER
  9
$ACADVER
  1
AC1009
  9
$INSBASE
 10
0.0
 20
0.0
 30
0.0
  9
$EXTMIN
 10
0.0
 20
0.0
 30
0.0
  9
$EXTMAX
 10
157.375
 20
81.1749999999999829
 30
0.0
  9
$LIMMIN
 10
0.0
 20
0.0
  9
$LIMMAX
 10
12.0
 20
9.0
  9
$ORTHOMODE
 70
     0
  9
$REGENMODE
 70
     1
  9
$FILLMODE
 70
     1
  9
$QTEXTMODE
 70
     0
  9
$MIRRTEXT
 70
     0
  9
$DRAGMODE
 70
     2
  9
$LTSCALE
 40
1.0
  9
$OSMODE
 70
  1575
  9
$ATTMODE
 70
     1
  9
$TEXTSIZE
 40
0.2
  9
$TRACEWID
 40
0.05
  9
$TEXTSTYLE
  7
STANDARD
  9
$CLAYER
  8
0
  9
$CELTYPE
  6
CONTINUOUS
  9
$CECOLOR
 62
   256
  9
$DIMSCALE
 40
1.0
  9
$DIMASZ
 40
0.18
  9
$DIMEXO
 40
0.0625
  9
$DIMDLI
 40
0.38
  9
$DIMRND
 40
0.0
  9
$DIMDLE
 40
0.0
  9
$DIMEXE
 40
0.18
  9
$DIMTP
 40
0.0
  9
$DIMTM
 40
0.0
  9
$DIMTXT
 40
0.18
  9
$DIMCEN
 40
0.09
  9
$DIMTSZ
 40
0.0
  9
$DIMTOL
 70
     0
  9
$DIMLIM
 70
     0
  9
$DIMTIH
 70
     1
  9
$DIMTOH
 70
     1
  9
$DIMSE1
 70
     0
  9
$DIMSE2
 70
     0
  9
$DIMTAD
 70
     0
  9
$DIMZIN
 70
     0
  9
$DIMBLK
  1

  9
$DIMASO
 70
     1
  9
$DIMSHO
 70
     1
  9
$DIMPOST
  1

  9
$DIMAPOST
  1

  9
$DIMALT
 70
     0
  9
$DIMALTD
 70
     2
  9
$DIMALTF
 40
25.3999999999999986
  9
$DIMLFAC
 40
1.0
  9
$DIMTOFL
 70
     0
  9
$DIMTVP
 40
0.0
  9
$DIMTIX
 70
     0
  9
$DIMSOXD
 70
     0
  9
$DIMSAH
 70
     0
  9
$DIMBLK1
  1

  9
$DIMBLK2
  1

  9
$DIMSTYLE
  2
STANDARD
  9
$DIMCLRD
 70
     0
  9
$DIMCLRE
 70
     0
  9
$DIMCLRT
 70
     0
  9
$DIMTFAC
 40
1.0
  9
$DIMGAP
 40
0.09
  9
$LUNITS
 70
     2
  9
$LUPREC
 70
     4
  9
$SKETCHINC
 40
0.1
  9
$FILLETRAD
 40
0.0
  9
$AUNITS
 70
     0
  9
$AUPREC
 70
     0
  9
$MENU
  1
.
  9
$ELEVATION
 40
0.0
  9
$PELEVATION
 40
0.0
  9
$THICKNESS
 40
0.0
  9
$LIMCHECK
 70
     0
  9
$BLIPMODE
 70
     0
  9
$CHAMFERA
 40
0.0
  9
$CHAMFERB
 40
0.0
  9
$SKPOLY
 70
     0
  9
$TDCREATE
 40
2458269.6429166668094695
  9
$TDUPDATE
 40
2458269.6453009261749685
  9
$TDINDWG
 40
0.0023842593
  9
$TDUSRTIMER
 40
0.0023842593
  9
$USRTIMER
 70
     1
  9
$ANGBASE
 50
0.0
  9
$ANGDIR
 70
     0
  9
$PDMODE
 70
     0
  9
$PDSIZE
 40
0.0
  9
$PLINEWID
 40
0.0
  9
$COORDS
 70
     1
  9
$SPLFRAME
 70
     0
  9
$SPLINETYPE
 70
     6
  9
$SPLINESEGS
 70
     8
  9
$ATTDIA
 70
     1
  9
$ATTREQ
 70
     1
  9
$HANDLING
 70
     1
  9
$HANDSEED
  5
784
  9
$SURFTAB1
 70
     6
  9
$SURFTAB2
 70
     6
  9
$SURFTYPE
 70
     6
  9
$SURFU
 70
     6
  9
$SURFV
 70
     6
  9
$UCSNAME
  2

  9
$UCSORG
 10
0.0
 20
0.0
 30
0.0
  9
$UCSXDIR
 10
1.0
 20
0.0
 30
0.0
  9
$UCSYDIR
 10
0.0
 20
1.0
 30
0.0
  9
$PUCSNAME
  2

  9
$PUCSORG
 10
0.0
 20
0.0
 30
0.0
  9
$PUCSXDIR
 10
1.0
 20
0.0
 30
0.0
  9
$PUCSYDIR
 10
0.0
 20
1.0
 30
0.0
  9
$USERI1
 70
     0
  9
$USERI2
 70
     0
  9
$USERI3
 70
     0
  9
$USERI4
 70
     0
  9
$USERI5
 70
     0
  9
$USERR1
 40
0.0
  9
$USERR2
 40
0.0
  9
$USERR3
 40
0.0
  9
$USERR4
 40
0.0
  9
$USERR5
 40
0.0
  9
$WORLDVIEW
 70
     1
  9
$SHADEDGE
 70
     3
  9
$SHADEDIF
 70
    70
  9
$TILEMODE
 70
     1
  9
$MAXACTVP
 70
    64
  9
$PLIMCHECK
 70
     0
  9
$PEXTMIN
 10
1.0000000000000000E+20
 20
1.0000000000000000E+20
 30
1.0000000000000000E+20
  9
$PEXTMAX
 10
-1.0000000000000000E+20
 20
-1.0000000000000000E+20
 30
-1.0000000000000000E+20
  9
$PLIMMIN
 10
0.0
 20
0.0
  9
$PLIMMAX
 10
12.0
 20
9.0
  9
$UNITMODE
 70
     0
  9
$VISRETAIN
 70
     1
  9
$PLINEGEN
 70
     0
  9
$PSLTSCALE
 70
     1
  0
ENDSEC
  0
SECTION
  2
TABLES
  0
TABLE
  2
VPORT
 70
     1
  0
VPORT
  2
*ACTIVE
 70
     0
 10
0.0
 20
0.0
 11
1.0
 21
1.0
 12
123.7845385595980048
 22
31.0287198910466202
 13
0.0
 23
0.0
 14
1.0
 24
1.0
 15
0.0
 25
0.0
 16
0.0
 26
0.0
 36
1.0
 17
0.0
 27
0.0
 37
0.0
 40
145.098309957979609
 41
2.0230473751600511
 42
50.0
 43
0.0
 44
0.0
 50
0.0
 51
0.0
 71
     0
 72
   100
 73
     1
 74
     1
 75
     0
 76
     0
 77
     0
 78
     0
  0
ENDTAB
  0
TABLE
  2
LTYPE
 70
     1
  0
LTYPE
  2
CONTINUOUS
 70
     0
  3
Solid line
 72
    65
 73
     0
 40
0.0
  0
ENDTAB
  0
TABLE
  2
LAYER
 70
     2
  0
LAYER
  2
0
 70
     0
 62
     7
  6
CONTINUOUS
  0
LAYER
  2
LAYER1
 70
     0
 62
     7
  6
CONTINUOUS
  0
ENDTAB
  0
TABLE
  2
STYLE
 70
     2
  0
STYLE
  2
STANDARD
 70
     0
 40
0.0
 41
1.0
 50
0.0
 71
     0
 42
0.2
  3
txt
  4

  0
STYLE
  2
ANNOTATIVE
 70
     0
 40
0.0
 41
1.0
 50
0.0
 71
     0
 42
0.2
  3
txt
  4

  0
ENDTAB
  0
TABLE
  2
VIEW
 70
     0
  0
ENDTAB
  0
TABLE
  2
UCS
 70
     0
  0
ENDTAB
  0
TABLE
  2
APPID
 70
     4
  0
APPID
  2
ACAD
 70
     0
  0
APPID
  2
ACADANNOTATIVE
 70
     0
  0
APPID
  2
ACAD_NAV_VCDISPLAY
 70
     0
  0
APPID
  2
ACAD_MLEADERVER
 70
     0
  0
ENDTAB
  0
TABLE
  2
DIMSTYLE
 70
     2
  0
DIMSTYLE
  2
STANDARD
 70
     0
  3

  4

  5

  6

  7

 40
1.0
 41
0.18
 42
0.0625
 43
0.38
 44
0.18
 45
0.0
 46
0.0
 47
0.0
 48
0.0
140
0.18
141
0.09
142
0.0
143
25.3999999999999986
144
1.0
145
0.0
146
1.0
147
0.09
 71
     0
 72
     0
 73
     1
 74
     1
 75
     0
 76
     0
 77
     0
 78
     0
170
     0
171
     2
172
     0
173
     0
174
     0
175
     0
176
     0
177
     0
178
     0
  0
DIMSTYLE
  2
ANNOTATIVE
 70
     0
  3

  4

  5

  6

  7

 40
1.0
 41
0.18
 42
0.0625
 43
0.38
 44
0.18
 45
0.0
 46
0.0
 47
0.0
 48
0.0
140
0.18
141
0.09
142
0.0
143
25.3999999999999986
144
1.0
145
0.0
146
1.0
147
0.09
 71
     0
 72
     0
 73
     1
 74
     1
 75
     0
 76
     0
 77
     0
 78
     0
170
     0
171
     2
172
     0
173
     0
174
     0
175
     0
176
     0
177
     0
178
     0
  0
ENDTAB
  0
ENDSEC
  0
SECTION
  2
BLOCKS
  0
BLOCK
  8
0
  2
$MODEL_SPACE
 70
     0
 10
0.0
 20
0.0
 30
0.0
  3
$MODEL_SPACE
  1

  0
ENDBLK
  5
71
  8
0
  0
BLOCK
 67
     1
  8
0
  2
$PAPER_SPACE
 70
     0
 10
0.0
 20
0.0
 30
0.0
  3
$PAPER_SPACE
  1

  0
ENDBLK
  5
6D
 67
     1
  8
0
  0
ENDSEC
  0
SECTION
  2
ENTITIES
  0
POLYLINE
  5
76
  8
LAYER1
 66
     1
 10
0.0
 20
0.0
 30
0.0
 70
     1
  0
VERTEX
  5
4BE
  8
LAYER1
 10
0.0
 20
0.0
 30
0.0
  0
VERTEX
  5
4BF
  8
LAYER1
 10
157.375
 20
0.0
 30
0.0
  0
VERTEX
  5
4C0
  8
LAYER1
 10
157.375
 20
81.1749999999999829
 30
0.0
  0
VERTEX
  5
4C1
  8
LAYER1
 10
0.0
 20
81.1749999999999829
 30
0.0
  0
VERTEX
  5
4C2
  8
LAYER1
 10
0.0
 20
0.0
 30
0.0
  0
SEQEND
  5
4C3
  8
LAYER1
  0
POLYLINE
  5
7D
  8
LAYER1
 66
     1
 10
0.0
 20
0.0
 30
0.0
 70
     1
  0
VERTEX
  5
4C4
  8
LAYER1
 10
19.0249999999999986
 20
63.1499999999999986
 30
0.0
  0
VERTEX
  5
4C5
  8
LAYER1
 10
19.8249999999999993
 20
63.1499999999999986
 30
0.0
  0
VERTEX
  5
4C6
  8
LAYER1
 10
19.8249999999999993
 20
66.6500000000000057
 30
0.0
  0
VERTEX
  5
4C7
  8
LAYER1
 10
19.0249999999999986
 20
66.6500000000000057
 30
0.0
  0
VERTEX
  5
4C8
  8
LAYER1
 10
19.0249999999999986
 20
71.6500000000000057
 30
0.0
  0
VERTEX
  5
4C9
  8
LAYER1
 10
19.8249999999999993
 20
71.6500000000000057
 30
0.0
  0
VERTEX
  5
4CA
  8
LAYER1
 10
19.8249999999999993
 20
75.1500000000000057
 30
0.0
  0
VERTEX
  5
4CB
  8
LAYER1
 10
19.0249999999999986
 20
75.1500000000000057
 30
0.0
  0
VERTEX
  5
4CC
  8
LAYER1
 10
19.0249999999999986
 20
76.1500000000000057
 30
0.0
  0
VERTEX
  5
4CD
  8
LAYER1
 10
5.0250000000000004
 20
76.1500000000000057
 30
0.0
  0
VERTEX
  5
4CE
  8
LAYER1
 10
5.0250000000000004
 20
75.1500000000000057
 30
0.0
  0
VERTEX
  5
4CF
  8
LAYER1
 10
4.2249999999999988
 20
75.1500000000000057
 30
0.0
  0
VERTEX
  5
4D0
  8
LAYER1
 10
4.2249999999999988
 20
71.6500000000000057
 30
0.0
  0
VERTEX
  5
4D1
  8
LAYER1
 10
5.0250000000000004
 20
71.6500000000000057
 30
0.0
  0
VERTEX
  5
4D2
  8
LAYER1
 10
5.0250000000000004
 20
66.6500000000000057
 30
0.0
  0
VERTEX
  5
4D3
  8
LAYER1
 10
4.2249999999999988
 20
66.6500000000000057
 30
0.0
  0
VERTEX
  5
4D4
  8
LAYER1
 10
4.2249999999999988
 20
63.1499999999999986
 30
0.0
  0
VERTEX
  5
4D5
  8
LAYER1
 10
5.0250000000000004
 20
63.1499999999999986
 30
0.0
  0
VERTEX
  5
4D6
  8
LAYER1
 10
5.0250000000000004
 20
62.1499999999999915
 30
0.0
  0
VERTEX
  5
4D7
  8
LAYER1
 10
19.0249999999999986
 20
62.1499999999999915
 30
0.0
  0
VERTEX
  5
4D8
  8
LAYER1
 10
19.0249999999999986
 20
63.1499999999999986
 30
0.0
  0
SEQEND
  5
4D9
  8
LAYER1
  0
POLYLINE
  5
94
  8
LAYER1
 66
     1
 10
0.0
 20
0.0
 30
0.0
 70
     1
  0
VERTEX
  5
4DA
  8
LAYER1
 10
38.0750000000000028
 20
63.1499999999999986
 30
0.0
  0
VERTEX
  5
4DB
  8
LAYER1
 10
38.875
 20
63.1499999999999986
 30
0.0
  0
VERTEX
  5
4DC
  8
LAYER1
 10
38.875
 20
66.6500000000000057
 30
0.0
  0
VERTEX
  5
4DD
  8
LAYER1
 10
38.0750000000000028
 20
66.6500000000000057
 30
0.0
  0
VERTEX
  5
4DE
  8
LAYER1
 10
38.0750000000000028
 20
71.6500000000000057
 30
0.0
  0
VERTEX
  5
4DF
  8
LAYER1
 10
38.875
 20
71.6500000000000057
 30
0.0
  0
VERTEX
  5
4E0
  8
LAYER1
 10
38.875
 20
75.1500000000000057
 30
0.0
  0
VERTEX
  5
4E1
  8
LAYER1
 10
38.0750000000000028
 20
75.1500000000000057
 30
0.0
  0
VERTEX
  5
4E2
  8
LAYER1
 10
38.0750000000000028
 20
76.1500000000000057
 30
0.0
  0
VERTEX
  5
4E3
  8
LAYER1
 10
24.0749999999999993
 20
76.1500000000000057
 30
0.0
  0
VERTEX
  5
4E4
  8
LAYER1
 10
24.0749999999999993
 20
75.1500000000000057
 30
0.0
  0
VERTEX
  5
4E5
  8
LAYER1
 10
23.2749999999999986
 20
75.1500000000000057
 30
0.0
  0
VERTEX
  5
4E6
  8
LAYER1
 10
23.2749999999999986
 20
71.6500000000000057
 30
0.0
  0
VERTEX
  5
4E7
  8
LAYER1
 10
24.0749999999999993
 20
71.6500000000000057
 30
0.0
  0
VERTEX
  5
4E8
  8
LAYER1
 10
24.0749999999999993
 20
66.6500000000000057
 30
0.0
  0
VERTEX
  5
4E9
  8
LAYER1
 10
23.2749999999999986
 20
66.6500000000000057
 30
0.0
  0
VERTEX
  5
4EA
  8
LAYER1
 10
23.2749999999999986
 20
63.1499999999999986
 30
0.0
  0
VERTEX
  5
4EB
  8
LAYER1
 10
24.0749999999999993
 20
63.1499999999999986
 30
0.0
  0
VERTEX
  5
4EC
  8
LAYER1
 10
24.0749999999999993
 20
62.1499999999999915
 30
0.0
  0
VERTEX
  5
4ED
  8
LAYER1
 10
38.0750000000000028
 20
62.1499999999999915
 30
0.0
  0
VERTEX
  5
4EE
  8
LAYER1
 10
38.0750000000000028
 20
63.1499999999999986
 30
0.0
  0
SEQEND
  5
4EF
  8
LAYER1
  0
POLYLINE
  5
AB
  8
LAYER1
 66
     1
 10
0.0
 20
0.0
 30
0.0
 70
     1
  0
VERTEX
  5
4F0
  8
LAYER1
 10
57.125
 20
63.1499999999999986
 30
0.0
  0
VERTEX
  5
4F1
  8
LAYER1
 10
57.9249999999999972
 20
63.1499999999999986
 30
0.0
  0
VERTEX
  5
4F2
  8
LAYER1
 10
57.9249999999999972
 20
66.6500000000000057
 30
0.0
  0
VERTEX
  5
4F3
  8
LAYER1
 10
57.125
 20
66.6500000000000057
 30
0.0
  0
VERTEX
  5
4F4
  8
LAYER1
 10
57.125
 20
71.6500000000000057
 30
0.0
  0
VERTEX
  5
4F5
  8
LAYER1
 10
57.9249999999999972
 20
71.6500000000000057
 30
0.0
  0
VERTEX
  5
4F6
  8
LAYER1
 10
57.9249999999999972
 20
75.1500000000000057
 30
0.0
  0
VERTEX
  5
4F7
  8
LAYER1
 10
57.125
 20
75.1500000000000057
 30
0.0
  0
VERTEX
  5
4F8
  8
LAYER1
 10
57.125
 20
76.1500000000000057
 30
0.0
  0
VERTEX
  5
4F9
  8
LAYER1
 10
43.125
 20
76.1500000000000057
 30
0.0
  0
VERTEX
  5
4FA
  8
LAYER1
 10
43.125
 20
75.1500000000000057
 30
0.0
  0
VERTEX
  5
4FB
  8
LAYER1
 10
42.3250000000000028
 20
75.1500000000000057
 30
0.0
  0
VERTEX
  5
4FC
  8
LAYER1
 10
42.3250000000000028
 20
71.6500000000000057
 30
0.0
  0
VERTEX
  5
4FD
  8
LAYER1
 10
43.125
 20
71.6500000000000057
 30
0.0
  0
VERTEX
  5
4FE
  8
LAYER1
 10
43.125
 20
66.6500000000000057
 30
0.0
  0
VERTEX
  5
4FF
  8
LAYER1
 10
42.3250000000000028
 20
66.6500000000000057
 30
0.0
  0
VERTEX
  5
500
  8
LAYER1
 10
42.3250000000000028
 20
63.1499999999999986
 30
0.0
  0
VERTEX
  5
501
  8
LAYER1
 10
43.125
 20
63.1499999999999986
 30
0.0
  0
VERTEX
  5
502
  8
LAYER1
 10
43.125
 20
62.1499999999999915
 30
0.0
  0
VERTEX
  5
503
  8
LAYER1
 10
57.125
 20
62.1499999999999915
 30
0.0
  0
VERTEX
  5
504
  8
LAYER1
 10
57.125
 20
63.1499999999999986
 30
0.0
  0
SEQEND
  5
505
  8
LAYER1
  0
POLYLINE
  5
C2
  8
LAYER1
 66
     1
 10
0.0
 20
0.0
 30
0.0
 70
     1
  0
VERTEX
  5
506
  8
LAYER1
 10
76.1749999999999829
 20
63.1499999999999986
 30
0.0
  0
VERTEX
  5
507
  8
LAYER1
 10
76.9749999999999943
 20
63.1499999999999986
 30
0.0
  0
VERTEX
  5
508
  8
LAYER1
 10
76.9749999999999943
 20
66.6500000000000057
 30
0.0
  0
VERTEX
  5
509
  8
LAYER1
 10
76.1749999999999829
 20
66.6500000000000057
 30
0.0
  0
VERTEX
  5
50A
  8
LAYER1
 10
76.1749999999999829
 20
71.6500000000000057
 30
0.0
  0
VERTEX
  5
50B
  8
LAYER1
 10
76.9749999999999943
 20
71.6500000000000057
 30
0.0
  0
VERTEX
  5
50C
  8
LAYER1
 10
76.9749999999999943
 20
75.1500000000000057
 30
0.0
  0
VERTEX
  5
50D
  8
LAYER1
 10
76.1749999999999829
 20
75.1500000000000057
 30
0.0
  0
VERTEX
  5
50E
  8
LAYER1
 10
76.1749999999999829
 20
76.1500000000000057
 30
0.0
  0
VERTEX
  5
50F
  8
LAYER1
 10
62.1749999999999972
 20
76.1500000000000057
 30
0.0
  0
VERTEX
  5
510
  8
LAYER1
 10
62.1749999999999972
 20
75.1500000000000057
 30
0.0
  0
VERTEX
  5
511
  8
LAYER1
 10
61.375
 20
75.1500000000000057
 30
0.0
  0
VERTEX
  5
512
  8
LAYER1
 10
61.375
 20
71.6500000000000057
 30
0.0
  0
VERTEX
  5
513
  8
LAYER1
 10
62.1749999999999972
 20
71.6500000000000057
 30
0.0
  0
VERTEX
  5
514
  8
LAYER1
 10
62.1749999999999972
 20
66.6500000000000057
 30
0.0
  0
VERTEX
  5
515
  8
LAYER1
 10
61.375
 20
66.6500000000000057
 30
0.0
  0
VERTEX
  5
516
  8
LAYER1
 10
61.375
 20
63.1499999999999986
 30
0.0
  0
VERTEX
  5
517
  8
LAYER1
 10
62.1749999999999972
 20
63.1499999999999986
 30
0.0
  0
VERTEX
  5
518
  8
LAYER1
 10
62.1749999999999972
 20
62.1499999999999915
 30
0.0
  0
VERTEX
  5
519
  8
LAYER1
 10
76.1749999999999829
 20
62.1499999999999915
 30
0.0
  0
VERTEX
  5
51A
  8
LAYER1
 10
76.1749999999999829
 20
63.1499999999999986
 30
0.0
  0
SEQEND
  5
51B
  8
LAYER1
  0
POLYLINE
  5
D9
  8
LAYER1
 66
     1
 10
0.0
 20
0.0
 30
0.0
 70
     1
  0
VERTEX
  5
51C
  8
LAYER1
 10
95.2249999999999943
 20
63.1499999999999986
 30
0.0
  0
VERTEX
  5
51D
  8
LAYER1
 10
96.0250000000000057
 20
63.1499999999999986
 30
0.0
  0
VERTEX
  5
51E
  8
LAYER1
 10
96.0250000000000057
 20
66.6500000000000057
 30
0.0
  0
VERTEX
  5
51F
  8
LAYER1
 10
95.2249999999999943
 20
66.6500000000000057
 30
0.0
  0
VERTEX
  5
520
  8
LAYER1
 10
95.2249999999999943
 20
71.6500000000000057
 30
0.0
  0
VERTEX
  5
521
  8
LAYER1
 10
96.0250000000000057
 20
71.6500000000000057
 30
0.0
  0
VERTEX
  5
522
  8
LAYER1
 10
96.0250000000000057
 20
75.1500000000000057
 30
0.0
  0
VERTEX
  5
523
  8
LAYER1
 10
95.2249999999999943
 20
75.1500000000000057
 30
0.0
  0
VERTEX
  5
524
  8
LAYER1
 10
95.2249999999999943
 20
76.1500000000000057
 30
0.0
  0
VERTEX
  5
525
  8
LAYER1
 10
81.2249999999999943
 20
76.1500000000000057
 30
0.0
  0
VERTEX
  5
526
  8
LAYER1
 10
81.2249999999999943
 20
75.1500000000000057
 30
0.0
  0
VERTEX
  5
527
  8
LAYER1
 10
80.4249999999999972
 20
75.1500000000000057
 30
0.0
  0
VERTEX
  5
528
  8
LAYER1
 10
80.4249999999999972
 20
71.6500000000000057
 30
0.0
  0
VERTEX
  5
529
  8
LAYER1
 10
81.2249999999999943
 20
71.6500000000000057
 30
0.0
  0
VERTEX
  5
52A
  8
LAYER1
 10
81.2249999999999943
 20
66.6500000000000057
 30
0.0
  0
VERTEX
  5
52B
  8
LAYER1
 10
80.4249999999999972
 20
66.6500000000000057
 30
0.0
  0
VERTEX
  5
52C
  8
LAYER1
 10
80.4249999999999972
 20
63.1499999999999986
 30
0.0
  0
VERTEX
  5
52D
  8
LAYER1
 10
81.2249999999999943
 20
63.1499999999999986
 30
0.0
  0
VERTEX
  5
52E
  8
LAYER1
 10
81.2249999999999943
 20
62.1499999999999915
 30
0.0
  0
VERTEX
  5
52F
  8
LAYER1
 10
95.2249999999999943
 20
62.1499999999999915
 30
0.0
  0
VERTEX
  5
530
  8
LAYER1
 10
95.2249999999999943
 20
63.1499999999999986
 30
0.0
  0
SEQEND
  5
531
  8
LAYER1
  0
POLYLINE
  5
F0
  8
LAYER1
 66
     1
 10
0.0
 20
0.0
 30
0.0
 70
     1
  0
VERTEX
  5
532
  8
LAYER1
 10
114.2750000000000057
 20
63.1499999999999986
 30
0.0
  0
VERTEX
  5
533
  8
LAYER1
 10
115.0750000000000028
 20
63.1499999999999986
 30
0.0
  0
VERTEX
  5
534
  8
LAYER1
 10
115.0750000000000028
 20
66.6500000000000057
 30
0.0
  0
VERTEX
  5
535
  8
LAYER1
 10
114.2750000000000057
 20
66.6500000000000057
 30
0.0
  0
VERTEX
  5
536
  8
LAYER1
 10
114.2750000000000057
 20
71.6500000000000057
 30
0.0
  0
VERTEX
  5
537
  8
LAYER1
 10
115.0750000000000028
 20
71.6500000000000057
 30
0.0
  0
VERTEX
  5
538
  8
LAYER1
 10
115.0750000000000028
 20
75.1500000000000057
 30
0.0
  0
VERTEX
  5
539
  8
LAYER1
 10
114.2750000000000057
 20
75.1500000000000057
 30
0.0
  0
VERTEX
  5
53A
  8
LAYER1
 10
114.2750000000000057
 20
76.1500000000000057
 30
0.0
  0
VERTEX
  5
53B
  8
LAYER1
 10
100.2750000000000057
 20
76.1500000000000057
 30
0.0
  0
VERTEX
  5
53C
  8
LAYER1
 10
100.2750000000000057
 20
75.1500000000000057
 30
0.0
  0
VERTEX
  5
53D
  8
LAYER1
 10
99.4749999999999943
 20
75.1500000000000057
 30
0.0
  0
VERTEX
  5
53E
  8
LAYER1
 10
99.4749999999999943
 20
71.6500000000000057
 30
0.0
  0
VERTEX
  5
53F
  8
LAYER1
 10
100.2750000000000057
 20
71.6500000000000057
 30
0.0
  0
VERTEX
  5
540
  8
LAYER1
 10
100.2750000000000057
 20
66.6500000000000057
 30
0.0
  0
VERTEX
  5
541
  8
LAYER1
 10
99.4749999999999943
 20
66.6500000000000057
 30
0.0
  0
VERTEX
  5
542
  8
LAYER1
 10
99.4749999999999943
 20
63.1499999999999986
 30
0.0
  0
VERTEX
  5
543
  8
LAYER1
 10
100.2750000000000057
 20
63.1499999999999986
 30
0.0
  0
VERTEX
  5
544
  8
LAYER1
 10
100.2750000000000057
 20
62.1499999999999915
 30
0.0
  0
VERTEX
  5
545
  8
LAYER1
 10
114.2750000000000057
 20
62.1499999999999915
 30
0.0
  0
VERTEX
  5
546
  8
LAYER1
 10
114.2750000000000057
 20
63.1499999999999986
 30
0.0
  0
SEQEND
  5
547
  8
LAYER1
  0
POLYLINE
  5
107
  8
LAYER1
 66
     1
 10
0.0
 20
0.0
 30
0.0
 70
     1
  0
VERTEX
  5
548
  8
LAYER1
 10
133.3249999999999886
 20
63.1499999999999986
 30
0.0
  0
VERTEX
  5
549
  8
LAYER1
 10
134.125
 20
63.1499999999999986
 30
0.0
  0
VERTEX
  5
54A
  8
LAYER1
 10
134.125
 20
66.6500000000000057
 30
0.0
  0
VERTEX
  5
54B
  8
LAYER1
 10
133.3249999999999886
 20
66.6500000000000057
 30
0.0
  0
VERTEX
  5
54C
  8
LAYER1
 10
133.3249999999999886
 20
71.6500000000000057
 30
0.0
  0
VERTEX
  5
54D
  8
LAYER1
 10
134.125
 20
71.6500000000000057
 30
0.0
  0
VERTEX
  5
54E
  8
LAYER1
 10
134.125
 20
75.1500000000000057
 30
0.0
  0
VERTEX
  5
54F
  8
LAYER1
 10
133.3249999999999886
 20
75.1500000000000057
 30
0.0
  0
VERTEX
  5
550
  8
LAYER1
 10
133.3249999999999886
 20
76.1500000000000057
 30
0.0
  0
VERTEX
  5
551
  8
LAYER1
 10
119.3250000000000028
 20
76.1500000000000057
 30
0.0
  0
VERTEX
  5
552
  8
LAYER1
 10
119.3250000000000028
 20
75.1500000000000057
 30
0.0
  0
VERTEX
  5
553
  8
LAYER1
 10
118.5250000000000057
 20
75.1500000000000057
 30
0.0
  0
VERTEX
  5
554
  8
LAYER1
 10
118.5250000000000057
 20
71.6500000000000057
 30
0.0
  0
VERTEX
  5
555
  8
LAYER1
 10
119.3250000000000028
 20
71.6500000000000057
 30
0.0
  0
VERTEX
  5
556
  8
LAYER1
 10
119.3250000000000028
 20
66.6500000000000057
 30
0.0
  0
VERTEX
  5
557
  8
LAYER1
 10
118.5250000000000057
 20
66.6500000000000057
 30
0.0
  0
VERTEX
  5
558
  8
LAYER1
 10
118.5250000000000057
 20
63.1499999999999986
 30
0.0
  0
VERTEX
  5
559
  8
LAYER1
 10
119.3250000000000028
 20
63.1499999999999986
 30
0.0
  0
VERTEX
  5
55A
  8
LAYER1
 10
119.3250000000000028
 20
62.1499999999999915
 30
0.0
  0
VERTEX
  5
55B
  8
LAYER1
 10
133.3249999999999886
 20
62.1499999999999915
 30
0.0
  0
VERTEX
  5
55C
  8
LAYER1
 10
133.3249999999999886
 20
63.1499999999999986
 30
0.0
  0
SEQEND
  5
55D
  8
LAYER1
  0
POLYLINE
  5
11E
  8
LAYER1
 66
     1
 10
0.0
 20
0.0
 30
0.0
 70
     1
  0
VERTEX
  5
55E
  8
LAYER1
 10
152.375
 20
63.1499999999999986
 30
0.0
  0
VERTEX
  5
55F
  8
LAYER1
 10
153.1750000000000114
 20
63.1499999999999986
 30
0.0
  0
VERTEX
  5
560
  8
LAYER1
 10
153.1750000000000114
 20
66.6500000000000057
 30
0.0
  0
VERTEX
  5
561
  8
LAYER1
 10
152.375
 20
66.6500000000000057
 30
0.0
  0
VERTEX
  5
562
  8
LAYER1
 10
152.375
 20
71.6500000000000057
 30
0.0
  0
VERTEX
  5
563
  8
LAYER1
 10
153.1750000000000114
 20
71.6500000000000057
 30
0.0
  0
VERTEX
  5
564
  8
LAYER1
 10
153.1750000000000114
 20
75.1500000000000057
 30
0.0
  0
VERTEX
  5
565
  8
LAYER1
 10
152.375
 20
75.1500000000000057
 30
0.0
  0
VERTEX
  5
566
  8
LAYER1
 10
152.375
 20
76.1500000000000057
 30
0.0
  0
VERTEX
  5
567
  8
LAYER1
 10
138.375
 20
76.1500000000000057
 30
0.0
  0
VERTEX
  5
568
  8
LAYER1
 10
138.375
 20
75.1500000000000057
 30
0.0
  0
VERTEX
  5
569
  8
LAYER1
 10
137.5749999999999886
 20
75.1500000000000057
 30
0.0
  0
VERTEX
  5
56A
  8
LAYER1
 10
137.5749999999999886
 20
71.6500000000000057
 30
0.0
  0
VERTEX
  5
56B
  8
LAYER1
 10
138.375
 20
71.6500000000000057
 30
0.0
  0
VERTEX
  5
56C
  8
LAYER1
 10
138.375
 20
66.6500000000000057
 30
0.0
  0
VERTEX
  5
56D
  8
LAYER1
 10
137.5749999999999886
 20
66.6500000000000057
 30
0.0
  0
VERTEX
  5
56E
  8
LAYER1
 10
137.5749999999999886
 20
63.1499999999999986
 30
0.0
  0
VERTEX
  5
56F
  8
LAYER1
 10
138.375
 20
63.1499999999999986
 30
0.0
  0
VERTEX
  5
570
  8
LAYER1
 10
138.375
 20
62.1499999999999915
 30
0.0
  0
VERTEX
  5
571
  8
LAYER1
 10
152.375
 20
62.1499999999999915
 30
0.0
  0
VERTEX
  5
572
  8
LAYER1
 10
152.375
 20
63.1499999999999986
 30
0.0
  0
SEQEND
  5
573
  8
LAYER1
  0
POLYLINE
  5
135
  8
LAYER1
 66
     1
 10
0.0
 20
0.0
 30
0.0
 70
     1
  0
VERTEX
  5
574
  8
LAYER1
 10
19.0249999999999986
 20
44.1000000000000014
 30
0.0
  0
VERTEX
  5
575
  8
LAYER1
 10
19.8249999999999993
 20
44.1000000000000014
 30
0.0
  0
VERTEX
  5
576
  8
LAYER1
 10
19.8249999999999993
 20
47.6000000000000014
 30
0.0
  0
VERTEX
  5
577
  8
LAYER1
 10
19.0249999999999986
 20
47.6000000000000014
 30
0.0
  0
VERTEX
  5
578
  8
LAYER1
 10
19.0249999999999986
 20
52.6000000000000014
 30
0.0
  0
VERTEX
  5
579
  8
LAYER1
 10
19.8249999999999993
 20
52.6000000000000014
 30
0.0
  0
VERTEX
  5
57A
  8
LAYER1
 10
19.8249999999999993
 20
56.1000000000000014
 30
0.0
  0
VERTEX
  5
57B
  8
LAYER1
 10
19.0249999999999986
 20
56.1000000000000014
 30
0.0
  0
VERTEX
  5
57C
  8
LAYER1
 10
19.0249999999999986
 20
57.1000000000000014
 30
0.0
  0
VERTEX
  5
57D
  8
LAYER1
 10
5.0250000000000004
 20
57.1000000000000014
 30
0.0
  0
VERTEX
  5
57E
  8
LAYER1
 10
5.0250000000000004
 20
56.1000000000000014
 30
0.0
  0
VERTEX
  5
57F
  8
LAYER1
 10
4.2249999999999988
 20
56.1000000000000014
 30
0.0
  0
VERTEX
  5
580
  8
LAYER1
 10
4.2249999999999988
 20
52.6000000000000014
 30
0.0
  0
VERTEX
  5
581
  8
LAYER1
 10
5.0250000000000004
 20
52.6000000000000014
 30
0.0
  0
VERTEX
  5
582
  8
LAYER1
 10
5.0250000000000004
 20
47.6000000000000014
 30
0.0
  0
VERTEX
  5
583
  8
LAYER1
 10
4.2249999999999988
 20
47.6000000000000014
 30
0.0
  0
VERTEX
  5
584
  8
LAYER1
 10
4.2249999999999988
 20
44.1000000000000014
 30
0.0
  0
VERTEX
  5
585
  8
LAYER1
 10
5.0250000000000004
 20
44.1000000000000014
 30
0.0
  0
VERTEX
  5
586
  8
LAYER1
 10
5.0250000000000004
 20
43.1000000000000014
 30
0.0
  0
VERTEX
  5
587
  8
LAYER1
 10
19.0249999999999986
 20
43.1000000000000014
 30
0.0
  0
VERTEX
  5
588
  8
LAYER1
 10
19.0249999999999986
 20
44.1000000000000014
 30
0.0
  0
SEQEND
  5
589
  8
LAYER1
  0
POLYLINE
  5
14C
  8
LAYER1
 66
     1
 10
0.0
 20
0.0
 30
0.0
 70
     1
  0
VERTEX
  5
58A
  8
LAYER1
 10
38.0750000000000028
 20
44.1000000000000014
 30
0.0
  0
VERTEX
  5
58B
  8
LAYER1
 10
38.875
 20
44.1000000000000014
 30
0.0
  0
VERTEX
  5
58C
  8
LAYER1
 10
38.875
 20
47.6000000000000014
 30
0.0
  0
VERTEX
  5
58D
  8
LAYER1
 10
38.0750000000000028
 20
47.6000000000000014
 30
0.0
  0
VERTEX
  5
58E
  8
LAYER1
 10
38.0750000000000028
 20
52.6000000000000014
 30
0.0
  0
VERTEX
  5
58F
  8
LAYER1
 10
38.875
 20
52.6000000000000014
 30
0.0
  0
VERTEX
  5
590
  8
LAYER1
 10
38.875
 20
56.1000000000000014
 30
0.0
  0
VERTEX
  5
591
  8
LAYER1
 10
38.0750000000000028
 20
56.1000000000000014
 30
0.0
  0
VERTEX
  5
592
  8
LAYER1
 10
38.0750000000000028
 20
57.1000000000000014
 30
0.0
  0
VERTEX
  5
593
  8
LAYER1
 10
24.0749999999999993
 20
57.1000000000000014
 30
0.0
  0
VERTEX
  5
594
  8
LAYER1
 10
24.0749999999999993
 20
56.1000000000000014
 30
0.0
  0
VERTEX
  5
595
  8
LAYER1
 10
23.2749999999999986
 20
56.1000000000000014
 30
0.0
  0
VERTEX
  5
596
  8
LAYER1
 10
23.2749999999999986
 20
52.6000000000000014
 30
0.0
  0
VERTEX
  5
597
  8
LAYER1
 10
24.0749999999999993
 20
52.6000000000000014
 30
0.0
  0
VERTEX
  5
598
  8
LAYER1
 10
24.0749999999999993
 20
47.6000000000000014
 30
0.0
  0
VERTEX
  5
599
  8
LAYER1
 10
23.2749999999999986
 20
47.6000000000000014
 30
0.0
  0
VERTEX
  5
59A
  8
LAYER1
 10
23.2749999999999986
 20
44.1000000000000014
 30
0.0
  0
VERTEX
  5
59B
  8
LAYER1
 10
24.0749999999999993
 20
44.1000000000000014
 30
0.0
  0
VERTEX
  5
59C
  8
LAYER1
 10
24.0749999999999993
 20
43.1000000000000014
 30
0.0
  0
VERTEX
  5
59D
  8
LAYER1
 10
38.0750000000000028
 20
43.1000000000000014
 30
0.0
  0
VERTEX
  5
59E
  8
LAYER1
 10
38.0750000000000028
 20
44.1000000000000014
 30
0.0
  0
SEQEND
  5
59F
  8
LAYER1
  0
POLYLINE
  5
163
  8
LAYER1
 66
     1
 10
0.0
 20
0.0
 30
0.0
 70
     1
  0
VERTEX
  5
5A0
  8
LAYER1
 10
57.125
 20
44.1000000000000014
 30
0.0
  0
VERTEX
  5
5A1
  8
LAYER1
 10
57.9249999999999972
 20
44.1000000000000014
 30
0.0
  0
VERTEX
  5
5A2
  8
LAYER1
 10
57.9249999999999972
 20
47.6000000000000014
 30
0.0
  0
VERTEX
  5
5A3
  8
LAYER1
 10
57.125
 20
47.6000000000000014
 30
0.0
  0
VERTEX
  5
5A4
  8
LAYER1
 10
57.125
 20
52.6000000000000014
 30
0.0
  0
VERTEX
  5
5A5
  8
LAYER1
 10
57.9249999999999972
 20
52.6000000000000014
 30
0.0
  0
VERTEX
  5
5A6
  8
LAYER1
 10
57.9249999999999972
 20
56.1000000000000014
 30
0.0
  0
VERTEX
  5
5A7
  8
LAYER1
 10
57.125
 20
56.1000000000000014
 30
0.0
  0
VERTEX
  5
5A8
  8
LAYER1
 10
57.125
 20
57.1000000000000014
 30
0.0
  0
VERTEX
  5
5A9
  8
LAYER1
 10
43.125
 20
57.1000000000000014
 30
0.0
  0
VERTEX
  5
5AA
  8
LAYER1
 10
43.125
 20
56.1000000000000014
 30
0.0
  0
VERTEX
  5
5AB
  8
LAYER1
 10
42.3250000000000028
 20
56.1000000000000014
 30
0.0
  0
VERTEX
  5
5AC
  8
LAYER1
 10
42.3250000000000028
 20
52.6000000000000014
 30
0.0
  0
VERTEX
  5
5AD
  8
LAYER1
 10
43.125
 20
52.6000000000000014
 30
0.0
  0
VERTEX
  5
5AE
  8
LAYER1
 10
43.125
 20
47.6000000000000014
 30
0.0
  0
VERTEX
  5
5AF
  8
LAYER1
 10
42.3250000000000028
 20
47.6000000000000014
 30
0.0
  0
VERTEX
  5
5B0
  8
LAYER1
 10
42.3250000000000028
 20
44.1000000000000014
 30
0.0
  0
VERTEX
  5
5B1
  8
LAYER1
 10
43.125
 20
44.1000000000000014
 30
0.0
  0
VERTEX
  5
5B2
  8
LAYER1
 10
43.125
 20
43.1000000000000014
 30
0.0
  0
VERTEX
  5
5B3
  8
LAYER1
 10
57.125
 20
43.1000000000000014
 30
0.0
  0
VERTEX
  5
5B4
  8
LAYER1
 10
57.125
 20
44.1000000000000014
 30
0.0
  0
SEQEND
  5
5B5
  8
LAYER1
  0
POLYLINE
  5
17A
  8
LAYER1
 66
     1
 10
0.0
 20
0.0
 30
0.0
 70
     1
  0
VERTEX
  5
5B6
  8
LAYER1
 10
76.1749999999999829
 20
44.1000000000000014
 30
0.0
  0
VERTEX
  5
5B7
  8
LAYER1
 10
76.9749999999999943
 20
44.1000000000000014
 30
0.0
  0
VERTEX
  5
5B8
  8
LAYER1
 10
76.9749999999999943
 20
47.6000000000000014
 30
0.0
  0
VERTEX
  5
5B9
  8
LAYER1
 10
76.1749999999999829
 20
47.6000000000000014
 30
0.0
  0
VERTEX
  5
5BA
  8
LAYER1
 10
76.1749999999999829
 20
52.6000000000000014
 30
0.0
  0
VERTEX
  5
5BB
  8
LAYER1
 10
76.9749999999999943
 20
52.6000000000000014
 30
0.0
  0
VERTEX
  5
5BC
  8
LAYER1
 10
76.9749999999999943
 20
56.1000000000000014
 30
0.0
  0
VERTEX
  5
5BD
  8
LAYER1
 10
76.1749999999999829
 20
56.1000000000000014
 30
0.0
  0
VERTEX
  5
5BE
  8
LAYER1
 10
76.1749999999999829
 20
57.1000000000000014
 30
0.0
  0
VERTEX
  5
5BF
  8
LAYER1
 10
62.1749999999999972
 20
57.1000000000000014
 30
0.0
  0
VERTEX
  5
5C0
  8
LAYER1
 10
62.1749999999999972
 20
56.1000000000000014
 30
0.0
  0
VERTEX
  5
5C1
  8
LAYER1
 10
61.375
 20
56.1000000000000014
 30
0.0
  0
VERTEX
  5
5C2
  8
LAYER1
 10
61.375
 20
52.6000000000000014
 30
0.0
  0
VERTEX
  5
5C3
  8
LAYER1
 10
62.1749999999999972
 20
52.6000000000000014
 30
0.0
  0
VERTEX
  5
5C4
  8
LAYER1
 10
62.1749999999999972
 20
47.6000000000000014
 30
0.0
  0
VERTEX
  5
5C5
  8
LAYER1
 10
61.375
 20
47.6000000000000014
 30
0.0
  0
VERTEX
  5
5C6
  8
LAYER1
 10
61.375
 20
44.1000000000000014
 30
0.0
  0
VERTEX
  5
5C7
  8
LAYER1
 10
62.1749999999999972
 20
44.1000000000000014
 30
0.0
  0
VERTEX
  5
5C8
  8
LAYER1
 10
62.1749999999999972
 20
43.1000000000000014
 30
0.0
  0
VERTEX
  5
5C9
  8
LAYER1
 10
76.1749999999999829
 20
43.1000000000000014
 30
0.0
  0
VERTEX
  5
5CA
  8
LAYER1
 10
76.1749999999999829
 20
44.1000000000000014
 30
0.0
  0
SEQEND
  5
5CB
  8
LAYER1
  0
POLYLINE
  5
191
  8
LAYER1
 66
     1
 10
0.0
 20
0.0
 30
0.0
 70
     1
  0
VERTEX
  5
5CC
  8
LAYER1
 10
95.2249999999999943
 20
44.1000000000000014
 30
0.0
  0
VERTEX
  5
5CD
  8
LAYER1
 10
96.0250000000000057
 20
44.1000000000000014
 30
0.0
  0
VERTEX
  5
5CE
  8
LAYER1
 10
96.0250000000000057
 20
47.6000000000000014
 30
0.0
  0
VERTEX
  5
5CF
  8
LAYER1
 10
95.2249999999999943
 20
47.6000000000000014
 30
0.0
  0
VERTEX
  5
5D0
  8
LAYER1
 10
95.2249999999999943
 20
52.6000000000000014
 30
0.0
  0
VERTEX
  5
5D1
  8
LAYER1
 10
96.0250000000000057
 20
52.6000000000000014
 30
0.0
  0
VERTEX
  5
5D2
  8
LAYER1
 10
96.0250000000000057
 20
56.1000000000000014
 30
0.0
  0
VERTEX
  5
5D3
  8
LAYER1
 10
95.2249999999999943
 20
56.1000000000000014
 30
0.0
  0
VERTEX
  5
5D4
  8
LAYER1
 10
95.2249999999999943
 20
57.1000000000000014
 30
0.0
  0
VERTEX
  5
5D5
  8
LAYER1
 10
81.2249999999999943
 20
57.1000000000000014
 30
0.0
  0
VERTEX
  5
5D6
  8
LAYER1
 10
81.2249999999999943
 20
56.1000000000000014
 30
0.0
  0
VERTEX
  5
5D7
  8
LAYER1
 10
80.4249999999999972
 20
56.1000000000000014
 30
0.0
  0
VERTEX
  5
5D8
  8
LAYER1
 10
80.4249999999999972
 20
52.6000000000000014
 30
0.0
  0
VERTEX
  5
5D9
  8
LAYER1
 10
81.2249999999999943
 20
52.6000000000000014
 30
0.0
  0
VERTEX
  5
5DA
  8
LAYER1
 10
81.2249999999999943
 20
47.6000000000000014
 30
0.0
  0
VERTEX
  5
5DB
  8
LAYER1
 10
80.4249999999999972
 20
47.6000000000000014
 30
0.0
  0
VERTEX
  5
5DC
  8
LAYER1
 10
80.4249999999999972
 20
44.1000000000000014
 30
0.0
  0
VERTEX
  5
5DD
  8
LAYER1
 10
81.2249999999999943
 20
44.1000000000000014
 30
0.0
  0
VERTEX
  5
5DE
  8
LAYER1
 10
81.2249999999999943
 20
43.1000000000000014
 30
0.0
  0
VERTEX
  5
5DF
  8
LAYER1
 10
95.2249999999999943
 20
43.1000000000000014
 30
0.0
  0
VERTEX
  5
5E0
  8
LAYER1
 10
95.2249999999999943
 20
44.1000000000000014
 30
0.0
  0
SEQEND
  5
5E1
  8
LAYER1
  0
POLYLINE
  5
1A8
  8
LAYER1
 66
     1
 10
0.0
 20
0.0
 30
0.0
 70
     1
  0
VERTEX
  5
5E2
  8
LAYER1
 10
114.2750000000000057
 20
44.1000000000000014
 30
0.0
  0
VERTEX
  5
5E3
  8
LAYER1
 10
115.0750000000000028
 20
44.1000000000000014
 30
0.0
  0
VERTEX
  5
5E4
  8
LAYER1
 10
115.0750000000000028
 20
47.6000000000000014
 30
0.0
  0
VERTEX
  5
5E5
  8
LAYER1
 10
114.2750000000000057
 20
47.6000000000000014
 30
0.0
  0
VERTEX
  5
5E6
  8
LAYER1
 10
114.2750000000000057
 20
52.6000000000000014
 30
0.0
  0
VERTEX
  5
5E7
  8
LAYER1
 10
115.0750000000000028
 20
52.6000000000000014
 30
0.0
  0
VERTEX
  5
5E8
  8
LAYER1
 10
115.0750000000000028
 20
56.1000000000000014
 30
0.0
  0
VERTEX
  5
5E9
  8
LAYER1
 10
114.2750000000000057
 20
56.1000000000000014
 30
0.0
  0
VERTEX
  5
5EA
  8
LAYER1
 10
114.2750000000000057
 20
57.1000000000000014
 30
0.0
  0
VERTEX
  5
5EB
  8
LAYER1
 10
100.2750000000000057
 20
57.1000000000000014
 30
0.0
  0
VERTEX
  5
5EC
  8
LAYER1
 10
100.2750000000000057
 20
56.1000000000000014
 30
0.0
  0
VERTEX
  5
5ED
  8
LAYER1
 10
99.4749999999999943
 20
56.1000000000000014
 30
0.0
  0
VERTEX
  5
5EE
  8
LAYER1
 10
99.4749999999999943
 20
52.6000000000000014
 30
0.0
  0
VERTEX
  5
5EF
  8
LAYER1
 10
100.2750000000000057
 20
52.6000000000000014
 30
0.0
  0
VERTEX
  5
5F0
  8
LAYER1
 10
100.2750000000000057
 20
47.6000000000000014
 30
0.0
  0
VERTEX
  5
5F1
  8
LAYER1
 10
99.4749999999999943
 20
47.6000000000000014
 30
0.0
  0
VERTEX
  5
5F2
  8
LAYER1
 10
99.4749999999999943
 20
44.1000000000000014
 30
0.0
  0
VERTEX
  5
5F3
  8
LAYER1
 10
100.2750000000000057
 20
44.1000000000000014
 30
0.0
  0
VERTEX
  5
5F4
  8
LAYER1
 10
100.2750000000000057
 20
43.1000000000000014
 30
0.0
  0
VERTEX
  5
5F5
  8
LAYER1
 10
114.2750000000000057
 20
43.1000000000000014
 30
0.0
  0
VERTEX
  5
5F6
  8
LAYER1
 10
114.2750000000000057
 20
44.1000000000000014
 30
0.0
  0
SEQEND
  5
5F7
  8
LAYER1
  0
POLYLINE
  5
1BF
  8
LAYER1
 66
     1
 10
0.0
 20
0.0
 30
0.0
 70
     1
  0
VERTEX
  5
5F8
  8
LAYER1
 10
133.3249999999999886
 20
44.1000000000000014
 30
0.0
  0
VERTEX
  5
5F9
  8
LAYER1
 10
134.125
 20
44.1000000000000014
 30
0.0
  0
VERTEX
  5
5FA
  8
LAYER1
 10
134.125
 20
47.6000000000000014
 30
0.0
  0
VERTEX
  5
5FB
  8
LAYER1
 10
133.3249999999999886
 20
47.6000000000000014
 30
0.0
  0
VERTEX
  5
5FC
  8
LAYER1
 10
133.3249999999999886
 20
52.6000000000000014
 30
0.0
  0
VERTEX
  5
5FD
  8
LAYER1
 10
134.125
 20
52.6000000000000014
 30
0.0
  0
VERTEX
  5
5FE
  8
LAYER1
 10
134.125
 20
56.1000000000000014
 30
0.0
  0
VERTEX
  5
5FF
  8
LAYER1
 10
133.3249999999999886
 20
56.1000000000000014
 30
0.0
  0
VERTEX
  5
600
  8
LAYER1
 10
133.3249999999999886
 20
57.1000000000000014
 30
0.0
  0
VERTEX
  5
601
  8
LAYER1
 10
119.3250000000000028
 20
57.1000000000000014
 30
0.0
  0
VERTEX
  5
602
  8
LAYER1
 10
119.3250000000000028
 20
56.1000000000000014
 30
0.0
  0
VERTEX
  5
603
  8
LAYER1
 10
118.5250000000000057
 20
56.1000000000000014
 30
0.0
  0
VERTEX
  5
604
  8
LAYER1
 10
118.5250000000000057
 20
52.6000000000000014
 30
0.0
  0
VERTEX
  5
605
  8
LAYER1
 10
119.3250000000000028
 20
52.6000000000000014
 30
0.0
  0
VERTEX
  5
606
  8
LAYER1
 10
119.3250000000000028
 20
47.6000000000000014
 30
0.0
  0
VERTEX
  5
607
  8
LAYER1
 10
118.5250000000000057
 20
47.6000000000000014
 30
0.0
  0
VERTEX
  5
608
  8
LAYER1
 10
118.5250000000000057
 20
44.1000000000000014
 30
0.0
  0
VERTEX
  5
609
  8
LAYER1
 10
119.3250000000000028
 20
44.1000000000000014
 30
0.0
  0
VERTEX
  5
60A
  8
LAYER1
 10
119.3250000000000028
 20
43.1000000000000014
 30
0.0
  0
VERTEX
  5
60B
  8
LAYER1
 10
133.3249999999999886
 20
43.1000000000000014
 30
0.0
  0
VERTEX
  5
60C
  8
LAYER1
 10
133.3249999999999886
 20
44.1000000000000014
 30
0.0
  0
SEQEND
  5
60D
  8
LAYER1
  0
POLYLINE
  5
1D6
  8
LAYER1
 66
     1
 10
0.0
 20
0.0
 30
0.0
 70
     1
  0
VERTEX
  5
60E
  8
LAYER1
 10
152.375
 20
44.1000000000000014
 30
0.0
  0
VERTEX
  5
60F
  8
LAYER1
 10
153.1750000000000114
 20
44.1000000000000014
 30
0.0
  0
VERTEX
  5
610
  8
LAYER1
 10
153.1750000000000114
 20
47.6000000000000014
 30
0.0
  0
VERTEX
  5
611
  8
LAYER1
 10
152.375
 20
47.6000000000000014
 30
0.0
  0
VERTEX
  5
612
  8
LAYER1
 10
152.375
 20
52.6000000000000014
 30
0.0
  0
VERTEX
  5
613
  8
LAYER1
 10
153.1750000000000114
 20
52.6000000000000014
 30
0.0
  0
VERTEX
  5
614
  8
LAYER1
 10
153.1750000000000114
 20
56.1000000000000014
 30
0.0
  0
VERTEX
  5
615
  8
LAYER1
 10
152.375
 20
56.1000000000000014
 30
0.0
  0
VERTEX
  5
616
  8
LAYER1
 10
152.375
 20
57.1000000000000014
 30
0.0
  0
VERTEX
  5
617
  8
LAYER1
 10
138.375
 20
57.1000000000000014
 30
0.0
  0
VERTEX
  5
618
  8
LAYER1
 10
138.375
 20
56.1000000000000014
 30
0.0
  0
VERTEX
  5
619
  8
LAYER1
 10
137.5749999999999886
 20
56.1000000000000014
 30
0.0
  0
VERTEX
  5
61A
  8
LAYER1
 10
137.5749999999999886
 20
52.6000000000000014
 30
0.0
  0
VERTEX
  5
61B
  8
LAYER1
 10
138.375
 20
52.6000000000000014
 30
0.0
  0
VERTEX
  5
61C
  8
LAYER1
 10
138.375
 20
47.6000000000000014
 30
0.0
  0
VERTEX
  5
61D
  8
LAYER1
 10
137.5749999999999886
 20
47.6000000000000014
 30
0.0
  0
VERTEX
  5
61E
  8
LAYER1
 10
137.5749999999999886
 20
44.1000000000000014
 30
0.0
  0
VERTEX
  5
61F
  8
LAYER1
 10
138.375
 20
44.1000000000000014
 30
0.0
  0
VERTEX
  5
620
  8
LAYER1
 10
138.375
 20
43.1000000000000014
 30
0.0
  0
VERTEX
  5
621
  8
LAYER1
 10
152.375
 20
43.1000000000000014
 30
0.0
  0
VERTEX
  5
622
  8
LAYER1
 10
152.375
 20
44.1000000000000014
 30
0.0
  0
SEQEND
  5
623
  8
LAYER1
  0
POLYLINE
  5
1ED
  8
LAYER1
 66
     1
 10
0.0
 20
0.0
 30
0.0
 70
     1
  0
VERTEX
  5
624
  8
LAYER1
 10
19.0249999999999986
 20
25.0500000000000007
 30
0.0
  0
VERTEX
  5
625
  8
LAYER1
 10
19.8249999999999993
 20
25.0500000000000007
 30
0.0
  0
VERTEX
  5
626
  8
LAYER1
 10
19.8249999999999993
 20
28.5500000000000007
 30
0.0
  0
VERTEX
  5
627
  8
LAYER1
 10
19.0249999999999986
 20
28.5500000000000007
 30
0.0
  0
VERTEX
  5
628
  8
LAYER1
 10
19.0249999999999986
 20
33.5499999999999972
 30
0.0
  0
VERTEX
  5
629
  8
LAYER1
 10
19.8249999999999993
 20
33.5499999999999972
 30
0.0
  0
VERTEX
  5
62A
  8
LAYER1
 10
19.8249999999999993
 20
37.0499999999999972
 30
0.0
  0
VERTEX
  5
62B
  8
LAYER1
 10
19.0249999999999986
 20
37.0499999999999972
 30
0.0
  0
VERTEX
  5
62C
  8
LAYER1
 10
19.0249999999999986
 20
38.0499999999999972
 30
0.0
  0
VERTEX
  5
62D
  8
LAYER1
 10
5.0250000000000004
 20
38.0499999999999972
 30
0.0
  0
VERTEX
  5
62E
  8
LAYER1
 10
5.0250000000000004
 20
37.0499999999999972
 30
0.0
  0
VERTEX
  5
62F
  8
LAYER1
 10
4.2249999999999988
 20
37.0499999999999972
 30
0.0
  0
VERTEX
  5
630
  8
LAYER1
 10
4.2249999999999988
 20
33.5499999999999972
 30
0.0
  0
VERTEX
  5
631
  8
LAYER1
 10
5.0250000000000004
 20
33.5499999999999972
 30
0.0
  0
VERTEX
  5
632
  8
LAYER1
 10
5.0250000000000004
 20
28.5500000000000007
 30
0.0
  0
VERTEX
  5
633
  8
LAYER1
 10
4.2249999999999988
 20
28.5500000000000007
 30
0.0
  0
VERTEX
  5
634
  8
LAYER1
 10
4.2249999999999988
 20
25.0500000000000007
 30
0.0
  0
VERTEX
  5
635
  8
LAYER1
 10
5.0250000000000004
 20
25.0500000000000007
 30
0.0
  0
VERTEX
  5
636
  8
LAYER1
 10
5.0250000000000004
 20
24.0500000000000007
 30
0.0
  0
VERTEX
  5
637
  8
LAYER1
 10
19.0249999999999986
 20
24.0500000000000007
 30
0.0
  0
VERTEX
  5
638
  8
LAYER1
 10
19.0249999999999986
 20
25.0500000000000007
 30
0.0
  0
SEQEND
  5
639
  8
LAYER1
  0
POLYLINE
  5
204
  8
LAYER1
 66
     1
 10
0.0
 20
0.0
 30
0.0
 70
     1
  0
VERTEX
  5
63A
  8
LAYER1
 10
38.0750000000000028
 20
25.0500000000000007
 30
0.0
  0
VERTEX
  5
63B
  8
LAYER1
 10
38.875
 20
25.0500000000000007
 30
0.0
  0
VERTEX
  5
63C
  8
LAYER1
 10
38.875
 20
28.5500000000000007
 30
0.0
  0
VERTEX
  5
63D
  8
LAYER1
 10
38.0750000000000028
 20
28.5500000000000007
 30
0.0
  0
VERTEX
  5
63E
  8
LAYER1
 10
38.0750000000000028
 20
33.5499999999999972
 30
0.0
  0
VERTEX
  5
63F
  8
LAYER1
 10
38.875
 20
33.5499999999999972
 30
0.0
  0
VERTEX
  5
640
  8
LAYER1
 10
38.875
 20
37.0499999999999972
 30
0.0
  0
VERTEX
  5
641
  8
LAYER1
 10
38.0750000000000028
 20
37.0499999999999972
 30
0.0
  0
VERTEX
  5
642
  8
LAYER1
 10
38.0750000000000028
 20
38.0499999999999972
 30
0.0
  0
VERTEX
  5
643
  8
LAYER1
 10
24.0749999999999993
 20
38.0499999999999972
 30
0.0
  0
VERTEX
  5
644
  8
LAYER1
 10
24.0749999999999993
 20
37.0499999999999972
 30
0.0
  0
VERTEX
  5
645
  8
LAYER1
 10
23.2749999999999986
 20
37.0499999999999972
 30
0.0
  0
VERTEX
  5
646
  8
LAYER1
 10
23.2749999999999986
 20
33.5499999999999972
 30
0.0
  0
VERTEX
  5
647
  8
LAYER1
 10
24.0749999999999993
 20
33.5499999999999972
 30
0.0
  0
VERTEX
  5
648
  8
LAYER1
 10
24.0749999999999993
 20
28.5500000000000007
 30
0.0
  0
VERTEX
  5
649
  8
LAYER1
 10
23.2749999999999986
 20
28.5500000000000007
 30
0.0
  0
VERTEX
  5
64A
  8
LAYER1
 10
23.2749999999999986
 20
25.0500000000000007
 30
0.0
  0
VERTEX
  5
64B
  8
LAYER1
 10
24.0749999999999993
 20
25.0500000000000007
 30
0.0
  0
VERTEX
  5
64C
  8
LAYER1
 10
24.0749999999999993
 20
24.0500000000000007
 30
0.0
  0
VERTEX
  5
64D
  8
LAYER1
 10
38.0750000000000028
 20
24.0500000000000007
 30
0.0
  0
VERTEX
  5
64E
  8
LAYER1
 10
38.0750000000000028
 20
25.0500000000000007
 30
0.0
  0
SEQEND
  5
64F
  8
LAYER1
  0
POLYLINE
  5
21B
  8
LAYER1
 66
     1
 10
0.0
 20
0.0
 30
0.0
 70
     1
  0
VERTEX
  5
650
  8
LAYER1
 10
57.125
 20
25.0500000000000007
 30
0.0
  0
VERTEX
  5
651
  8
LAYER1
 10
57.9249999999999972
 20
25.0500000000000007
 30
0.0
  0
VERTEX
  5
652
  8
LAYER1
 10
57.9249999999999972
 20
28.5500000000000007
 30
0.0
  0
VERTEX
  5
653
  8
LAYER1
 10
57.125
 20
28.5500000000000007
 30
0.0
  0
VERTEX
  5
654
  8
LAYER1
 10
57.125
 20
33.5499999999999972
 30
0.0
  0
VERTEX
  5
655
  8
LAYER1
 10
57.9249999999999972
 20
33.5499999999999972
 30
0.0
  0
VERTEX
  5
656
  8
LAYER1
 10
57.9249999999999972
 20
37.0499999999999972
 30
0.0
  0
VERTEX
  5
657
  8
LAYER1
 10
57.125
 20
37.0499999999999972
 30
0.0
  0
VERTEX
  5
658
  8
LAYER1
 10
57.125
 20
38.0499999999999972
 30
0.0
  0
VERTEX
  5
659
  8
LAYER1
 10
43.125
 20
38.0499999999999972
 30
0.0
  0
VERTEX
  5
65A
  8
LAYER1
 10
43.125
 20
37.0499999999999972
 30
0.0
  0
VERTEX
  5
65B
  8
LAYER1
 10
42.3250000000000028
 20
37.0499999999999972
 30
0.0
  0
VERTEX
  5
65C
  8
LAYER1
 10
42.3250000000000028
 20
33.5499999999999972
 30
0.0
  0
VERTEX
  5
65D
  8
LAYER1
 10
43.125
 20
33.5499999999999972
 30
0.0
  0
VERTEX
  5
65E
  8
LAYER1
 10
43.125
 20
28.5500000000000007
 30
0.0
  0
VERTEX
  5
65F
  8
LAYER1
 10
42.3250000000000028
 20
28.5500000000000007
 30
0.0
  0
VERTEX
  5
660
  8
LAYER1
 10
42.3250000000000028
 20
25.0500000000000007
 30
0.0
  0
VERTEX
  5
661
  8
LAYER1
 10
43.125
 20
25.0500000000000007
 30
0.0
  0
VERTEX
  5
662
  8
LAYER1
 10
43.125
 20
24.0500000000000007
 30
0.0
  0
VERTEX
  5
663
  8
LAYER1
 10
57.125
 20
24.0500000000000007
 30
0.0
  0
VERTEX
  5
664
  8
LAYER1
 10
57.125
 20
25.0500000000000007
 30
0.0
  0
SEQEND
  5
665
  8
LAYER1
  0
POLYLINE
  5
232
  8
LAYER1
 66
     1
 10
0.0
 20
0.0
 30
0.0
 70
     1
  0
VERTEX
  5
666
  8
LAYER1
 10
76.1749999999999829
 20
25.0500000000000007
 30
0.0
  0
VERTEX
  5
667
  8
LAYER1
 10
76.9749999999999943
 20
25.0500000000000007
 30
0.0
  0
VERTEX
  5
668
  8
LAYER1
 10
76.9749999999999943
 20
28.5500000000000007
 30
0.0
  0
VERTEX
  5
669
  8
LAYER1
 10
76.1749999999999829
 20
28.5500000000000007
 30
0.0
  0
VERTEX
  5
66A
  8
LAYER1
 10
76.1749999999999829
 20
33.5499999999999972
 30
0.0
  0
VERTEX
  5
66B
  8
LAYER1
 10
76.9749999999999943
 20
33.5499999999999972
 30
0.0
  0
VERTEX
  5
66C
  8
LAYER1
 10
76.9749999999999943
 20
37.0499999999999972
 30
0.0
  0
VERTEX
  5
66D
  8
LAYER1
 10
76.1749999999999829
 20
37.0499999999999972
 30
0.0
  0
VERTEX
  5
66E
  8
LAYER1
 10
76.1749999999999829
 20
38.0499999999999972
 30
0.0
  0
VERTEX
  5
66F
  8
LAYER1
 10
62.1749999999999972
 20
38.0499999999999972
 30
0.0
  0
VERTEX
  5
670
  8
LAYER1
 10
62.1749999999999972
 20
37.0499999999999972
 30
0.0
  0
VERTEX
  5
671
  8
LAYER1
 10
61.375
 20
37.0499999999999972
 30
0.0
  0
VERTEX
  5
672
  8
LAYER1
 10
61.375
 20
33.5499999999999972
 30
0.0
  0
VERTEX
  5
673
  8
LAYER1
 10
62.1749999999999972
 20
33.5499999999999972
 30
0.0
  0
VERTEX
  5
674
  8
LAYER1
 10
62.1749999999999972
 20
28.5500000000000007
 30
0.0
  0
VERTEX
  5
675
  8
LAYER1
 10
61.375
 20
28.5500000000000007
 30
0.0
  0
VERTEX
  5
676
  8
LAYER1
 10
61.375
 20
25.0500000000000007
 30
0.0
  0
VERTEX
  5
677
  8
LAYER1
 10
62.1749999999999972
 20
25.0500000000000007
 30
0.0
  0
VERTEX
  5
678
  8
LAYER1
 10
62.1749999999999972
 20
24.0500000000000007
 30
0.0
  0
VERTEX
  5
679
  8
LAYER1
 10
76.1749999999999829
 20
24.0500000000000007
 30
0.0
  0
VERTEX
  5
67A
  8
LAYER1
 10
76.1749999999999829
 20
25.0500000000000007
 30
0.0
  0
SEQEND
  5
67B
  8
LAYER1
  0
POLYLINE
  5
249
  8
LAYER1
 66
     1
 10
0.0
 20
0.0
 30
0.0
 70
     1
  0
VERTEX
  5
67C
  8
LAYER1
 10
95.2249999999999943
 20
25.0500000000000007
 30
0.0
  0
VERTEX
  5
67D
  8
LAYER1
 10
96.0250000000000057
 20
25.0500000000000007
 30
0.0
  0
VERTEX
  5
67E
  8
LAYER1
 10
96.0250000000000057
 20
28.5500000000000007
 30
0.0
  0
VERTEX
  5
67F
  8
LAYER1
 10
95.2249999999999943
 20
28.5500000000000007
 30
0.0
  0
VERTEX
  5
680
  8
LAYER1
 10
95.2249999999999943
 20
33.5499999999999972
 30
0.0
  0
VERTEX
  5
681
  8
LAYER1
 10
96.0250000000000057
 20
33.5499999999999972
 30
0.0
  0
VERTEX
  5
682
  8
LAYER1
 10
96.0250000000000057
 20
37.0499999999999972
 30
0.0
  0
VERTEX
  5
683
  8
LAYER1
 10
95.2249999999999943
 20
37.0499999999999972
 30
0.0
  0
VERTEX
  5
684
  8
LAYER1
 10
95.2249999999999943
 20
38.0499999999999972
 30
0.0
  0
VERTEX
  5
685
  8
LAYER1
 10
81.2249999999999943
 20
38.0499999999999972
 30
0.0
  0
VERTEX
  5
686
  8
LAYER1
 10
81.2249999999999943
 20
37.0499999999999972
 30
0.0
  0
VERTEX
  5
687
  8
LAYER1
 10
80.4249999999999972
 20
37.0499999999999972
 30
0.0
  0
VERTEX
  5
688
  8
LAYER1
 10
80.4249999999999972
 20
33.5499999999999972
 30
0.0
  0
VERTEX
  5
689
  8
LAYER1
 10
81.2249999999999943
 20
33.5499999999999972
 30
0.0
  0
VERTEX
  5
68A
  8
LAYER1
 10
81.2249999999999943
 20
28.5500000000000007
 30
0.0
  0
VERTEX
  5
68B
  8
LAYER1
 10
80.4249999999999972
 20
28.5500000000000007
 30
0.0
  0
VERTEX
  5
68C
  8
LAYER1
 10
80.4249999999999972
 20
25.0500000000000007
 30
0.0
  0
VERTEX
  5
68D
  8
LAYER1
 10
81.2249999999999943
 20
25.0500000000000007
 30
0.0
  0
VERTEX
  5
68E
  8
LAYER1
 10
81.2249999999999943
 20
24.0500000000000007
 30
0.0
  0
VERTEX
  5
68F
  8
LAYER1
 10
95.2249999999999943
 20
24.0500000000000007
 30
0.0
  0
VERTEX
  5
690
  8
LAYER1
 10
95.2249999999999943
 20
25.0500000000000007
 30
0.0
  0
SEQEND
  5
691
  8
LAYER1
  0
POLYLINE
  5
260
  8
LAYER1
 66
     1
 10
0.0
 20
0.0
 30
0.0
 70
     1
  0
VERTEX
  5
692
  8
LAYER1
 10
114.2750000000000057
 20
25.0500000000000007
 30
0.0
  0
VERTEX
  5
693
  8
LAYER1
 10
115.0750000000000028
 20
25.0500000000000007
 30
0.0
  0
VERTEX
  5
694
  8
LAYER1
 10
115.0750000000000028
 20
28.5500000000000007
 30
0.0
  0
VERTEX
  5
695
  8
LAYER1
 10
114.2750000000000057
 20
28.5500000000000007
 30
0.0
  0
VERTEX
  5
696
  8
LAYER1
 10
114.2750000000000057
 20
33.5499999999999972
 30
0.0
  0
VERTEX
  5
697
  8
LAYER1
 10
115.0750000000000028
 20
33.5499999999999972
 30
0.0
  0
VERTEX
  5
698
  8
LAYER1
 10
115.0750000000000028
 20
37.0499999999999972
 30
0.0
  0
VERTEX
  5
699
  8
LAYER1
 10
114.2750000000000057
 20
37.0499999999999972
 30
0.0
  0
VERTEX
  5
69A
  8
LAYER1
 10
114.2750000000000057
 20
38.0499999999999972
 30
0.0
  0
VERTEX
  5
69B
  8
LAYER1
 10
100.2750000000000057
 20
38.0499999999999972
 30
0.0
  0
VERTEX
  5
69C
  8
LAYER1
 10
100.2750000000000057
 20
37.0499999999999972
 30
0.0
  0
VERTEX
  5
69D
  8
LAYER1
 10
99.4749999999999943
 20
37.0499999999999972
 30
0.0
  0
VERTEX
  5
69E
  8
LAYER1
 10
99.4749999999999943
 20
33.5499999999999972
 30
0.0
  0
VERTEX
  5
69F
  8
LAYER1
 10
100.2750000000000057
 20
33.5499999999999972
 30
0.0
  0
VERTEX
  5
6A0
  8
LAYER1
 10
100.2750000000000057
 20
28.5500000000000007
 30
0.0
  0
VERTEX
  5
6A1
  8
LAYER1
 10
99.4749999999999943
 20
28.5500000000000007
 30
0.0
  0
VERTEX
  5
6A2
  8
LAYER1
 10
99.4749999999999943
 20
25.0500000000000007
 30
0.0
  0
VERTEX
  5
6A3
  8
LAYER1
 10
100.2750000000000057
 20
25.0500000000000007
 30
0.0
  0
VERTEX
  5
6A4
  8
LAYER1
 10
100.2750000000000057
 20
24.0500000000000007
 30
0.0
  0
VERTEX
  5
6A5
  8
LAYER1
 10
114.2750000000000057
 20
24.0500000000000007
 30
0.0
  0
VERTEX
  5
6A6
  8
LAYER1
 10
114.2750000000000057
 20
25.0500000000000007
 30
0.0
  0
SEQEND
  5
6A7
  8
LAYER1
  0
POLYLINE
  5
277
  8
LAYER1
 66
     1
 10
0.0
 20
0.0
 30
0.0
 70
     1
  0
VERTEX
  5
6A8
  8
LAYER1
 10
133.3249999999999886
 20
25.0500000000000007
 30
0.0
  0
VERTEX
  5
6A9
  8
LAYER1
 10
134.125
 20
25.0500000000000007
 30
0.0
  0
VERTEX
  5
6AA
  8
LAYER1
 10
134.125
 20
28.5500000000000007
 30
0.0
  0
VERTEX
  5
6AB
  8
LAYER1
 10
133.3249999999999886
 20
28.5500000000000007
 30
0.0
  0
VERTEX
  5
6AC
  8
LAYER1
 10
133.3249999999999886
 20
33.5499999999999972
 30
0.0
  0
VERTEX
  5
6AD
  8
LAYER1
 10
134.125
 20
33.5499999999999972
 30
0.0
  0
VERTEX
  5
6AE
  8
LAYER1
 10
134.125
 20
37.0499999999999972
 30
0.0
  0
VERTEX
  5
6AF
  8
LAYER1
 10
133.3249999999999886
 20
37.0499999999999972
 30
0.0
  0
VERTEX
  5
6B0
  8
LAYER1
 10
133.3249999999999886
 20
38.0499999999999972
 30
0.0
  0
VERTEX
  5
6B1
  8
LAYER1
 10
119.3250000000000028
 20
38.0499999999999972
 30
0.0
  0
VERTEX
  5
6B2
  8
LAYER1
 10
119.3250000000000028
 20
37.0499999999999972
 30
0.0
  0
VERTEX
  5
6B3
  8
LAYER1
 10
118.5250000000000057
 20
37.0499999999999972
 30
0.0
  0
VERTEX
  5
6B4
  8
LAYER1
 10
118.5250000000000057
 20
33.5499999999999972
 30
0.0
  0
VERTEX
  5
6B5
  8
LAYER1
 10
119.3250000000000028
 20
33.5499999999999972
 30
0.0
  0
VERTEX
  5
6B6
  8
LAYER1
 10
119.3250000000000028
 20
28.5500000000000007
 30
0.0
  0
VERTEX
  5
6B7
  8
LAYER1
 10
118.5250000000000057
 20
28.5500000000000007
 30
0.0
  0
VERTEX
  5
6B8
  8
LAYER1
 10
118.5250000000000057
 20
25.0500000000000007
 30
0.0
  0
VERTEX
  5
6B9
  8
LAYER1
 10
119.3250000000000028
 20
25.0500000000000007
 30
0.0
  0
VERTEX
  5
6BA
  8
LAYER1
 10
119.3250000000000028
 20
24.0500000000000007
 30
0.0
  0
VERTEX
  5
6BB
  8
LAYER1
 10
133.3249999999999886
 20
24.0500000000000007
 30
0.0
  0
VERTEX
  5
6BC
  8
LAYER1
 10
133.3249999999999886
 20
25.0500000000000007
 30
0.0
  0
SEQEND
  5
6BD
  8
LAYER1
  0
POLYLINE
  5
28E
  8
LAYER1
 66
     1
 10
0.0
 20
0.0
 30
0.0
 70
     1
  0
VERTEX
  5
6BE
  8
LAYER1
 10
152.375
 20
25.0500000000000007
 30
0.0
  0
VERTEX
  5
6BF
  8
LAYER1
 10
153.1750000000000114
 20
25.0500000000000007
 30
0.0
  0
VERTEX
  5
6C0
  8
LAYER1
 10
153.1750000000000114
 20
28.5500000000000007
 30
0.0
  0
VERTEX
  5
6C1
  8
LAYER1
 10
152.375
 20
28.5500000000000007
 30
0.0
  0
VERTEX
  5
6C2
  8
LAYER1
 10
152.375
 20
33.5499999999999972
 30
0.0
  0
VERTEX
  5
6C3
  8
LAYER1
 10
153.1750000000000114
 20
33.5499999999999972
 30
0.0
  0
VERTEX
  5
6C4
  8
LAYER1
 10
153.1750000000000114
 20
37.0499999999999972
 30
0.0
  0
VERTEX
  5
6C5
  8
LAYER1
 10
152.375
 20
37.0499999999999972
 30
0.0
  0
VERTEX
  5
6C6
  8
LAYER1
 10
152.375
 20
38.0499999999999972
 30
0.0
  0
VERTEX
  5
6C7
  8
LAYER1
 10
138.375
 20
38.0499999999999972
 30
0.0
  0
VERTEX
  5
6C8
  8
LAYER1
 10
138.375
 20
37.0499999999999972
 30
0.0
  0
VERTEX
  5
6C9
  8
LAYER1
 10
137.5749999999999886
 20
37.0499999999999972
 30
0.0
  0
VERTEX
  5
6CA
  8
LAYER1
 10
137.5749999999999886
 20
33.5499999999999972
 30
0.0
  0
VERTEX
  5
6CB
  8
LAYER1
 10
138.375
 20
33.5499999999999972
 30
0.0
  0
VERTEX
  5
6CC
  8
LAYER1
 10
138.375
 20
28.5500000000000007
 30
0.0
  0
VERTEX
  5
6CD
  8
LAYER1
 10
137.5749999999999886
 20
28.5500000000000007
 30
0.0
  0
VERTEX
  5
6CE
  8
LAYER1
 10
137.5749999999999886
 20
25.0500000000000007
 30
0.0
  0
VERTEX
  5
6CF
  8
LAYER1
 10
138.375
 20
25.0500000000000007
 30
0.0
  0
VERTEX
  5
6D0
  8
LAYER1
 10
138.375
 20
24.0500000000000007
 30
0.0
  0
VERTEX
  5
6D1
  8
LAYER1
 10
152.375
 20
24.0500000000000007
 30
0.0
  0
VERTEX
  5
6D2
  8
LAYER1
 10
152.375
 20
25.0500000000000007
 30
0.0
  0
SEQEND
  5
6D3
  8
LAYER1
  0
POLYLINE
  5
2A5
  8
LAYER1
 66
     1
 10
0.0
 20
0.0
 30
0.0
 70
     1
  0
VERTEX
  5
6D4
  8
LAYER1
 10
19.0249999999999986
 20
6.0
 30
0.0
  0
VERTEX
  5
6D5
  8
LAYER1
 10
19.8249999999999993
 20
6.0
 30
0.0
  0
VERTEX
  5
6D6
  8
LAYER1
 10
19.8249999999999993
 20
9.5
 30
0.0
  0
VERTEX
  5
6D7
  8
LAYER1
 10
19.0249999999999986
 20
9.5
 30
0.0
  0
VERTEX
  5
6D8
  8
LAYER1
 10
19.0249999999999986
 20
14.5
 30
0.0
  0
VERTEX
  5
6D9
  8
LAYER1
 10
19.8249999999999993
 20
14.5
 30
0.0
  0
VERTEX
  5
6DA
  8
LAYER1
 10
19.8249999999999993
 20
18.0
 30
0.0
  0
VERTEX
  5
6DB
  8
LAYER1
 10
19.0249999999999986
 20
18.0
 30
0.0
  0
VERTEX
  5
6DC
  8
LAYER1
 10
19.0249999999999986
 20
19.0
 30
0.0
  0
VERTEX
  5
6DD
  8
LAYER1
 10
5.0250000000000004
 20
19.0
 30
0.0
  0
VERTEX
  5
6DE
  8
LAYER1
 10
5.0250000000000004
 20
18.0
 30
0.0
  0
VERTEX
  5
6DF
  8
LAYER1
 10
4.2249999999999988
 20
18.0
 30
0.0
  0
VERTEX
  5
6E0
  8
LAYER1
 10
4.2249999999999988
 20
14.5
 30
0.0
  0
VERTEX
  5
6E1
  8
LAYER1
 10
5.0250000000000004
 20
14.5
 30
0.0
  0
VERTEX
  5
6E2
  8
LAYER1
 10
5.0250000000000004
 20
9.5
 30
0.0
  0
VERTEX
  5
6E3
  8
LAYER1
 10
4.2249999999999988
 20
9.5
 30
0.0
  0
VERTEX
  5
6E4
  8
LAYER1
 10
4.2249999999999988
 20
6.0
 30
0.0
  0
VERTEX
  5
6E5
  8
LAYER1
 10
5.0250000000000004
 20
6.0
 30
0.0
  0
VERTEX
  5
6E6
  8
LAYER1
 10
5.0250000000000004
 20
5.0
 30
0.0
  0
VERTEX
  5
6E7
  8
LAYER1
 10
19.0249999999999986
 20
5.0
 30
0.0
  0
VERTEX
  5
6E8
  8
LAYER1
 10
19.0249999999999986
 20
6.0
 30
0.0
  0
SEQEND
  5
6E9
  8
LAYER1
  0
POLYLINE
  5
2BC
  8
LAYER1
 66
     1
 10
0.0
 20
0.0
 30
0.0
 70
     1
  0
VERTEX
  5
6EA
  8
LAYER1
 10
38.0750000000000028
 20
6.0
 30
0.0
  0
VERTEX
  5
6EB
  8
LAYER1
 10
38.875
 20
6.0
 30
0.0
  0
VERTEX
  5
6EC
  8
LAYER1
 10
38.875
 20
9.5
 30
0.0
  0
VERTEX
  5
6ED
  8
LAYER1
 10
38.0750000000000028
 20
9.5
 30
0.0
  0
VERTEX
  5
6EE
  8
LAYER1
 10
38.0750000000000028
 20
14.5
 30
0.0
  0
VERTEX
  5
6EF
  8
LAYER1
 10
38.875
 20
14.5
 30
0.0
  0
VERTEX
  5
6F0
  8
LAYER1
 10
38.875
 20
18.0
 30
0.0
  0
VERTEX
  5
6F1
  8
LAYER1
 10
38.0750000000000028
 20
18.0
 30
0.0
  0
VERTEX
  5
6F2
  8
LAYER1
 10
38.0750000000000028
 20
19.0
 30
0.0
  0
VERTEX
  5
6F3
  8
LAYER1
 10
24.0749999999999993
 20
19.0
 30
0.0
  0
VERTEX
  5
6F4
  8
LAYER1
 10
24.0749999999999993
 20
18.0
 30
0.0
  0
VERTEX
  5
6F5
  8
LAYER1
 10
23.2749999999999986
 20
18.0
 30
0.0
  0
VERTEX
  5
6F6
  8
LAYER1
 10
23.2749999999999986
 20
14.5
 30
0.0
  0
VERTEX
  5
6F7
  8
LAYER1
 10
24.0749999999999993
 20
14.5
 30
0.0
  0
VERTEX
  5
6F8
  8
LAYER1
 10
24.0749999999999993
 20
9.5
 30
0.0
  0
VERTEX
  5
6F9
  8
LAYER1
 10
23.2749999999999986
 20
9.5
 30
0.0
  0
VERTEX
  5
6FA
  8
LAYER1
 10
23.2749999999999986
 20
6.0
 30
0.0
  0
VERTEX
  5
6FB
  8
LAYER1
 10
24.0749999999999993
 20
6.0
 30
0.0
  0
VERTEX
  5
6FC
  8
LAYER1
 10
24.0749999999999993
 20
5.0
 30
0.0
  0
VERTEX
  5
6FD
  8
LAYER1
 10
38.0750000000000028
 20
5.0
 30
0.0
  0
VERTEX
  5
6FE
  8
LAYER1
 10
38.0750000000000028
 20
6.0
 30
0.0
  0
SEQEND
  5
6FF
  8
LAYER1
  0
POLYLINE
  5
2D3
  8
LAYER1
 66
     1
 10
0.0
 20
0.0
 30
0.0
 70
     1
  0
VERTEX
  5
700
  8
LAYER1
 10
57.125
 20
6.0
 30
0.0
  0
VERTEX
  5
701
  8
LAYER1
 10
57.9249999999999972
 20
6.0
 30
0.0
  0
VERTEX
  5
702
  8
LAYER1
 10
57.9249999999999972
 20
9.5
 30
0.0
  0
VERTEX
  5
703
  8
LAYER1
 10
57.125
 20
9.5
 30
0.0
  0
VERTEX
  5
704
  8
LAYER1
 10
57.125
 20
14.5
 30
0.0
  0
VERTEX
  5
705
  8
LAYER1
 10
57.9249999999999972
 20
14.5
 30
0.0
  0
VERTEX
  5
706
  8
LAYER1
 10
57.9249999999999972
 20
18.0
 30
0.0
  0
VERTEX
  5
707
  8
LAYER1
 10
57.125
 20
18.0
 30
0.0
  0
VERTEX
  5
708
  8
LAYER1
 10
57.125
 20
19.0
 30
0.0
  0
VERTEX
  5
709
  8
LAYER1
 10
43.125
 20
19.0
 30
0.0
  0
VERTEX
  5
70A
  8
LAYER1
 10
43.125
 20
18.0
 30
0.0
  0
VERTEX
  5
70B
  8
LAYER1
 10
42.3250000000000028
 20
18.0
 30
0.0
  0
VERTEX
  5
70C
  8
LAYER1
 10
42.3250000000000028
 20
14.5
 30
0.0
  0
VERTEX
  5
70D
  8
LAYER1
 10
43.125
 20
14.5
 30
0.0
  0
VERTEX
  5
70E
  8
LAYER1
 10
43.125
 20
9.5
 30
0.0
  0
VERTEX
  5
70F
  8
LAYER1
 10
42.3250000000000028
 20
9.5
 30
0.0
  0
VERTEX
  5
710
  8
LAYER1
 10
42.3250000000000028
 20
6.0
 30
0.0
  0
VERTEX
  5
711
  8
LAYER1
 10
43.125
 20
6.0
 30
0.0
  0
VERTEX
  5
712
  8
LAYER1
 10
43.125
 20
5.0
 30
0.0
  0
VERTEX
  5
713
  8
LAYER1
 10
57.125
 20
5.0
 30
0.0
  0
VERTEX
  5
714
  8
LAYER1
 10
57.125
 20
6.0
 30
0.0
  0
SEQEND
  5
715
  8
LAYER1
  0
POLYLINE
  5
2EA
  8
LAYER1
 66
     1
 10
0.0
 20
0.0
 30
0.0
 70
     1
  0
VERTEX
  5
716
  8
LAYER1
 10
76.1749999999999829
 20
6.0
 30
0.0
  0
VERTEX
  5
717
  8
LAYER1
 10
76.9749999999999943
 20
6.0
 30
0.0
  0
VERTEX
  5
718
  8
LAYER1
 10
76.9749999999999943
 20
9.5
 30
0.0
  0
VERTEX
  5
719
  8
LAYER1
 10
76.1749999999999829
 20
9.5
 30
0.0
  0
VERTEX
  5
71A
  8
LAYER1
 10
76.1749999999999829
 20
14.5
 30
0.0
  0
VERTEX
  5
71B
  8
LAYER1
 10
76.9749999999999943
 20
14.5
 30
0.0
  0
VERTEX
  5
71C
  8
LAYER1
 10
76.9749999999999943
 20
18.0
 30
0.0
  0
VERTEX
  5
71D
  8
LAYER1
 10
76.1749999999999829
 20
18.0
 30
0.0
  0
VERTEX
  5
71E
  8
LAYER1
 10
76.1749999999999829
 20
19.0
 30
0.0
  0
VERTEX
  5
71F
  8
LAYER1
 10
62.1749999999999972
 20
19.0
 30
0.0
  0
VERTEX
  5
720
  8
LAYER1
 10
62.1749999999999972
 20
18.0
 30
0.0
  0
VERTEX
  5
721
  8
LAYER1
 10
61.375
 20
18.0
 30
0.0
  0
VERTEX
  5
722
  8
LAYER1
 10
61.375
 20
14.5
 30
0.0
  0
VERTEX
  5
723
  8
LAYER1
 10
62.1749999999999972
 20
14.5
 30
0.0
  0
VERTEX
  5
724
  8
LAYER1
 10
62.1749999999999972
 20
9.5
 30
0.0
  0
VERTEX
  5
725
  8
LAYER1
 10
61.375
 20
9.5
 30
0.0
  0
VERTEX
  5
726
  8
LAYER1
 10
61.375
 20
6.0
 30
0.0
  0
VERTEX
  5
727
  8
LAYER1
 10
62.1749999999999972
 20
6.0
 30
0.0
  0
VERTEX
  5
728
  8
LAYER1
 10
62.1749999999999972
 20
5.0
 30
0.0
  0
VERTEX
  5
729
  8
LAYER1
 10
76.1749999999999829
 20
5.0
 30
0.0
  0
VERTEX
  5
72A
  8
LAYER1
 10
76.1749999999999829
 20
6.0
 30
0.0
  0
SEQEND
  5
72B
  8
LAYER1
  0
POLYLINE
  5
301
  8
LAYER1
 66
     1
 10
0.0
 20
0.0
 30
0.0
 70
     1
  0
VERTEX
  5
72C
  8
LAYER1
 10
95.2249999999999943
 20
6.0
 30
0.0
  0
VERTEX
  5
72D
  8
LAYER1
 10
96.0250000000000057
 20
6.0
 30
0.0
  0
VERTEX
  5
72E
  8
LAYER1
 10
96.0250000000000057
 20
9.5
 30
0.0
  0
VERTEX
  5
72F
  8
LAYER1
 10
95.2249999999999943
 20
9.5
 30
0.0
  0
VERTEX
  5
730
  8
LAYER1
 10
95.2249999999999943
 20
14.5
 30
0.0
  0
VERTEX
  5
731
  8
LAYER1
 10
96.0250000000000057
 20
14.5
 30
0.0
  0
VERTEX
  5
732
  8
LAYER1
 10
96.0250000000000057
 20
18.0
 30
0.0
  0
VERTEX
  5
733
  8
LAYER1
 10
95.2249999999999943
 20
18.0
 30
0.0
  0
VERTEX
  5
734
  8
LAYER1
 10
95.2249999999999943
 20
19.0
 30
0.0
  0
VERTEX
  5
735
  8
LAYER1
 10
81.2249999999999943
 20
19.0
 30
0.0
  0
VERTEX
  5
736
  8
LAYER1
 10
81.2249999999999943
 20
18.0
 30
0.0
  0
VERTEX
  5
737
  8
LAYER1
 10
80.4249999999999972
 20
18.0
 30
0.0
  0
VERTEX
  5
738
  8
LAYER1
 10
80.4249999999999972
 20
14.5
 30
0.0
  0
VERTEX
  5
739
  8
LAYER1
 10
81.2249999999999943
 20
14.5
 30
0.0
  0
VERTEX
  5
73A
  8
LAYER1
 10
81.2249999999999943
 20
9.5
 30
0.0
  0
VERTEX
  5
73B
  8
LAYER1
 10
80.4249999999999972
 20
9.5
 30
0.0
  0
VERTEX
  5
73C
  8
LAYER1
 10
80.4249999999999972
 20
6.0
 30
0.0
  0
VERTEX
  5
73D
  8
LAYER1
 10
81.2249999999999943
 20
6.0
 30
0.0
  0
VERTEX
  5
73E
  8
LAYER1
 10
81.2249999999999943
 20
5.0
 30
0.0
  0
VERTEX
  5
73F
  8
LAYER1
 10
95.2249999999999943
 20
5.0
 30
0.0
  0
VERTEX
  5
740
  8
LAYER1
 10
95.2249999999999943
 20
6.0
 30
0.0
  0
SEQEND
  5
741
  8
LAYER1
  0
POLYLINE
  5
318
  8
LAYER1
 66
     1
 10
0.0
 20
0.0
 30
0.0
 70
     1
  0
VERTEX
  5
742
  8
LAYER1
 10
114.2750000000000057
 20
6.0
 30
0.0
  0
VERTEX
  5
743
  8
LAYER1
 10
115.0750000000000028
 20
6.0
 30
0.0
  0
VERTEX
  5
744
  8
LAYER1
 10
115.0750000000000028
 20
9.5
 30
0.0
  0
VERTEX
  5
745
  8
LAYER1
 10
114.2750000000000057
 20
9.5
 30
0.0
  0
VERTEX
  5
746
  8
LAYER1
 10
114.2750000000000057
 20
14.5
 30
0.0
  0
VERTEX
  5
747
  8
LAYER1
 10
115.0750000000000028
 20
14.5
 30
0.0
  0
VERTEX
  5
748
  8
LAYER1
 10
115.0750000000000028
 20
18.0
 30
0.0
  0
VERTEX
  5
749
  8
LAYER1
 10
114.2750000000000057
 20
18.0
 30
0.0
  0
VERTEX
  5
74A
  8
LAYER1
 10
114.2750000000000057
 20
19.0
 30
0.0
  0
VERTEX
  5
74B
  8
LAYER1
 10
100.2750000000000057
 20
19.0
 30
0.0
  0
VERTEX
  5
74C
  8
LAYER1
 10
100.2750000000000057
 20
18.0
 30
0.0
  0
VERTEX
  5
74D
  8
LAYER1
 10
99.4749999999999943
 20
18.0
 30
0.0
  0
VERTEX
  5
74E
  8
LAYER1
 10
99.4749999999999943
 20
14.5
 30
0.0
  0
VERTEX
  5
74F
  8
LAYER1
 10
100.2750000000000057
 20
14.5
 30
0.0
  0
VERTEX
  5
750
  8
LAYER1
 10
100.2750000000000057
 20
9.5
 30
0.0
  0
VERTEX
  5
751
  8
LAYER1
 10
99.4749999999999943
 20
9.5
 30
0.0
  0
VERTEX
  5
752
  8
LAYER1
 10
99.4749999999999943
 20
6.0
 30
0.0
  0
VERTEX
  5
753
  8
LAYER1
 10
100.2750000000000057
 20
6.0
 30
0.0
  0
VERTEX
  5
754
  8
LAYER1
 10
100.2750000000000057
 20
5.0
 30
0.0
  0
VERTEX
  5
755
  8
LAYER1
 10
114.2750000000000057
 20
5.0
 30
0.0
  0
VERTEX
  5
756
  8
LAYER1
 10
114.2750000000000057
 20
6.0
 30
0.0
  0
SEQEND
  5
757
  8
LAYER1
  0
POLYLINE
  5
32F
  8
LAYER1
 66
     1
 10
0.0
 20
0.0
 30
0.0
 70
     1
  0
VERTEX
  5
758
  8
LAYER1
 10
133.3249999999999886
 20
6.0
 30
0.0
  0
VERTEX
  5
759
  8
LAYER1
 10
134.125
 20
6.0
 30
0.0
  0
VERTEX
  5
75A
  8
LAYER1
 10
134.125
 20
9.5
 30
0.0
  0
VERTEX
  5
75B
  8
LAYER1
 10
133.3249999999999886
 20
9.5
 30
0.0
  0
VERTEX
  5
75C
  8
LAYER1
 10
133.3249999999999886
 20
14.5
 30
0.0
  0
VERTEX
  5
75D
  8
LAYER1
 10
134.125
 20
14.5
 30
0.0
  0
VERTEX
  5
75E
  8
LAYER1
 10
134.125
 20
18.0
 30
0.0
  0
VERTEX
  5
75F
  8
LAYER1
 10
133.3249999999999886
 20
18.0
 30
0.0
  0
VERTEX
  5
760
  8
LAYER1
 10
133.3249999999999886
 20
19.0
 30
0.0
  0
VERTEX
  5
761
  8
LAYER1
 10
119.3250000000000028
 20
19.0
 30
0.0
  0
VERTEX
  5
762
  8
LAYER1
 10
119.3250000000000028
 20
18.0
 30
0.0
  0
VERTEX
  5
763
  8
LAYER1
 10
118.5250000000000057
 20
18.0
 30
0.0
  0
VERTEX
  5
764
  8
LAYER1
 10
118.5250000000000057
 20
14.5
 30
0.0
  0
VERTEX
  5
765
  8
LAYER1
 10
119.3250000000000028
 20
14.5
 30
0.0
  0
VERTEX
  5
766
  8
LAYER1
 10
119.3250000000000028
 20
9.5
 30
0.0
  0
VERTEX
  5
767
  8
LAYER1
 10
118.5250000000000057
 20
9.5
 30
0.0
  0
VERTEX
  5
768
  8
LAYER1
 10
118.5250000000000057
 20
6.0
 30
0.0
  0
VERTEX
  5
769
  8
LAYER1
 10
119.3250000000000028
 20
6.0
 30
0.0
  0
VERTEX
  5
76A
  8
LAYER1
 10
119.3250000000000028
 20
5.0
 30
0.0
  0
VERTEX
  5
76B
  8
LAYER1
 10
133.3249999999999886
 20
5.0
 30
0.0
  0
VERTEX
  5
76C
  8
LAYER1
 10
133.3249999999999886
 20
6.0
 30
0.0
  0
SEQEND
  5
76D
  8
LAYER1
  0
POLYLINE
  5
346
  8
LAYER1
 66
     1
 10
0.0
 20
0.0
 30
0.0
 70
     1
  0
VERTEX
  5
76E
  8
LAYER1
 10
152.375
 20
6.0
 30
0.0
  0
VERTEX
  5
76F
  8
LAYER1
 10
153.1750000000000114
 20
6.0
 30
0.0
  0
VERTEX
  5
770
  8
LAYER1
 10
153.1750000000000114
 20
9.5
 30
0.0
  0
VERTEX
  5
771
  8
LAYER1
 10
152.375
 20
9.5
 30
0.0
  0
VERTEX
  5
772
  8
LAYER1
 10
152.375
 20
14.5
 30
0.0
  0
VERTEX
  5
773
  8
LAYER1
 10
153.1750000000000114
 20
14.5
 30
0.0
  0
VERTEX
  5
774
  8
LAYER1
 10
153.1750000000000114
 20
18.0
 30
0.0
  0
VERTEX
  5
775
  8
LAYER1
 10
152.375
 20
18.0
 30
0.0
  0
VERTEX
  5
776
  8
LAYER1
 10
152.375
 20
19.0
 30
0.0
  0
VERTEX
  5
777
  8
LAYER1
 10
138.375
 20
19.0
 30
0.0
  0
VERTEX
  5
778
  8
LAYER1
 10
138.375
 20
18.0
 30
0.0
  0
VERTEX
  5
779
  8
LAYER1
 10
137.5749999999999886
 20
18.0
 30
0.0
  0
VERTEX
  5
77A
  8
LAYER1
 10
137.5749999999999886
 20
14.5
 30
0.0
  0
VERTEX
  5
77B
  8
LAYER1
 10
138.375
 20
14.5
 30
0.0
  0
VERTEX
  5
77C
  8
LAYER1
 10
138.375
 20
9.5
 30
0.0
  0
VERTEX
  5
77D
  8
LAYER1
 10
137.5749999999999886
 20
9.5
 30
0.0
  0
VERTEX
  5
77E
  8
LAYER1
 10
137.5749999999999886
 20
6.0
 30
0.0
  0
VERTEX
  5
77F
  8
LAYER1
 10
138.375
 20
6.0
 30
0.0
  0
VERTEX
  5
780
  8
LAYER1
 10
138.375
 20
5.0
 30
0.0
  0
VERTEX
  5
781
  8
LAYER1
 10
152.375
 20
5.0
 30
0.0
  0
VERTEX
  5
782
  8
LAYER1
 10
152.375
 20
6.0
 30
0.0
  0
SEQEND
  5
783
  8
LAYER1
  0
LINE
  5
35F
  8
0
  6
CONTINUOUS
 10
12.0250000000000004
 20
76.1500000000000057
 30
0.0
 11
12.0250000000000004
 21
62.1499999999999915
 31
0.0
  0
LINE
  5
360
  8
0
  6
CONTINUOUS
 10
5.0250000000000004
 20
69.1500000000000057
 30
0.0
 11
19.0249999999999986
 21
69.1500000000000057
 31
0.0
  0
LINE
  5
369
  8
0
  6
CONTINUOUS
 10
31.0750000310386305
 20
76.1499999980500206
 30
0.0
 11
31.0750000310386305
 21
62.1499999980500135
 31
0.0
  0
LINE
  5
36A
  8
0
  6
CONTINUOUS
 10
24.0750000310386412
 20
69.1499999980500206
 30
0.0
 11
38.075000031038627
 21
69.1499999980500206
 31
0.0
  0
LINE
  5
371
  8
0
  6
CONTINUOUS
 10
50.1250000310386312
 20
76.1499999980500206
 30
0.0
 11
50.1250000310386312
 21
62.1499999980500135
 31
0.0
  0
LINE
  5
372
  8
0
  6
CONTINUOUS
 10
43.125000031038617
 20
69.1499999980500206
 30
0.0
 11
57.1250000310386312
 21
69.1499999980500206
 31
0.0
  0
LINE
  5
379
  8
0
  6
CONTINUOUS
 10
69.1750000310386213
 20
76.1499999980500206
 30
0.0
 11
69.1750000310386213
 21
62.1499999980500135
 31
0.0
  0
LINE
  5
37A
  8
0
  6
CONTINUOUS
 10
62.1750000310386284
 20
69.1499999980500206
 30
0.0
 11
76.1750000310386213
 21
69.1499999980500206
 31
0.0
  0
LINE
  5
381
  8
0
  6
CONTINUOUS
 10
88.2250000310386326
 20
76.1499999980500206
 30
0.0
 11
88.2250000310386326
 21
62.1499999980500135
 31
0.0
  0
LINE
  5
382
  8
0
  6
CONTINUOUS
 10
81.2250000310386469
 20
69.1499999980500206
 30
0.0
 11
95.2250000310386184
 21
69.1499999980500206
 31
0.0
  0
LINE
  5
391
  8
0
  6
CONTINUOUS
 10
107.2750000310386014
 20
76.1499999980500206
 30
0.0
 11
107.2750000310386014
 21
62.1499999980500135
 31
0.0
  0
LINE
  5
392
  8
0
  6
CONTINUOUS
 10
100.2750000310386014
 20
69.1499999980500206
 30
0.0
 11
114.2750000310386014
 21
69.1499999980500206
 31
0.0
  0
LINE
  5
399
  8
0
  6
CONTINUOUS
 10
126.3250000310385985
 20
76.1499999980500206
 30
0.0
 11
126.3250000310385985
 21
62.1499999980500135
 31
0.0
  0
LINE
  5
39A
  8
0
  6
CONTINUOUS
 10
119.3250000310385985
 20
69.1499999980500206
 30
0.0
 11
133.3250000310385985
 21
69.1499999980500206
 31
0.0
  0
LINE
  5
3A1
  8
0
  6
CONTINUOUS
 10
145.3750000310386099
 20
76.1499999980500206
 30
0.0
 11
145.3750000310386099
 21
62.1499999980500135
 31
0.0
  0
LINE
  5
3A2
  8
0
  6
CONTINUOUS
 10
138.3750000310386099
 20
69.1499999980500206
 30
0.0
 11
152.3750000310386099
 21
69.1499999980500206
 31
0.0
  0
LINE
  5
3A9
  8
0
  6
CONTINUOUS
 10
12.0250000310386298
 20
57.0999999980500235
 30
0.0
 11
12.0250000310386298
 21
43.0999999980500021
 31
0.0
  0
LINE
  5
3AA
  8
0
  6
CONTINUOUS
 10
5.0250000310386334
 20
50.0999999980500093
 30
0.0
 11
19.0250000310386298
 21
50.0999999980500093
 31
0.0
  0
LINE
  5
3B9
  8
0
  6
CONTINUOUS
 10
31.0750000310386305
 20
57.0999999980500235
 30
0.0
 11
31.0750000310386305
 21
43.0999999980500021
 31
0.0
  0
LINE
  5
3BA
  8
0
  6
CONTINUOUS
 10
24.0750000310386412
 20
50.0999999980500093
 30
0.0
 11
38.075000031038627
 21
50.0999999980500093
 31
0.0
  0
LINE
  5
3C1
  8
0
  6
CONTINUOUS
 10
50.1250000310386312
 20
57.0999999980500235
 30
0.0
 11
50.1250000310386312
 21
43.0999999980500021
 31
0.0
  0
LINE
  5
3C2
  8
0
  6
CONTINUOUS
 10
43.125000031038617
 20
50.0999999980500093
 30
0.0
 11
57.1250000310386312
 21
50.0999999980500093
 31
0.0
  0
LINE
  5
3C9
  8
0
  6
CONTINUOUS
 10
69.1750000310386213
 20
57.0999999980500235
 30
0.0
 11
69.1750000310386213
 21
43.0999999980500021
 31
0.0
  0
LINE
  5
3CA
  8
0
  6
CONTINUOUS
 10
62.1750000310386284
 20
50.0999999980500093
 30
0.0
 11
76.1750000310386213
 21
50.0999999980500093
 31
0.0
  0
LINE
  5
3D1
  8
0
  6
CONTINUOUS
 10
88.2250000310386326
 20
57.0999999980500235
 30
0.0
 11
88.2250000310386326
 21
43.0999999980500021
 31
0.0
  0
LINE
  5
3D2
  8
0
  6
CONTINUOUS
 10
81.2250000310386469
 20
50.0999999980500093
 30
0.0
 11
95.2250000310386184
 21
50.0999999980500093
 31
0.0
  0
LINE
  5
3D9
  8
0
  6
CONTINUOUS
 10
107.2750000310386014
 20
57.0999999980500235
 30
0.0
 11
107.2750000310386014
 21
43.0999999980500021
 31
0.0
  0
LINE
  5
3DA
  8
0
  6
CONTINUOUS
 10
100.2750000310386014
 20
50.0999999980500093
 30
0.0
 11
114.2750000310386014
 21
50.0999999980500093
 31
0.0
  0
LINE
  5
3E1
  8
0
  6
CONTINUOUS
 10
126.3250000310385985
 20
57.0999999980500235
 30
0.0
 11
126.3250000310385985
 21
43.0999999980500021
 31
0.0
  0
LINE
  5
3E2
  8
0
  6
CONTINUOUS
 10
119.3250000310385985
 20
50.0999999980500093
 30
0.0
 11
133.3250000310385985
 21
50.0999999980500093
 31
0.0
  0
LINE
  5
3E9
  8
0
  6
CONTINUOUS
 10
145.3750000310386099
 20
57.0999999980500235
 30
0.0
 11
145.3750000310386099
 21
43.0999999980500021
 31
0.0
  0
LINE
  5
3EA
  8
0
  6
CONTINUOUS
 10
138.3750000310386099
 20
50.0999999980500093
 30
0.0
 11
152.3750000310386099
 21
50.0999999980500093
 31
0.0
  0
LINE
  5
3F1
  8
0
  6
CONTINUOUS
 10
145.3750000310386099
 20
38.0499999980500121
 30
0.0
 11
145.3750000310386099
 21
24.0499999980500085
 31
0.0
  0
LINE
  5
3F2
  8
0
  6
CONTINUOUS
 10
138.3750000310386099
 20
31.0499999980500192
 30
0.0
 11
152.3750000310386099
 21
31.0499999980500192
 31
0.0
  0
LINE
  5
3F9
  8
0
  6
CONTINUOUS
 10
126.3250000310385985
 20
38.0499999980500121
 30
0.0
 11
126.3250000310385985
 21
24.0499999980500085
 31
0.0
  0
LINE
  5
3FA
  8
0
  6
CONTINUOUS
 10
119.3250000310385985
 20
31.0499999980500192
 30
0.0
 11
133.3250000310385985
 21
31.0499999980500192
 31
0.0
  0
LINE
  5
401
  8
0
  6
CONTINUOUS
 10
107.2750000310386014
 20
38.0499999980500121
 30
0.0
 11
107.2750000310386014
 21
24.0499999980500085
 31
0.0
  0
LINE
  5
402
  8
0
  6
CONTINUOUS
 10
100.2750000310386014
 20
31.0499999980500192
 30
0.0
 11
114.2750000310386014
 21
31.0499999980500192
 31
0.0
  0
LINE
  5
409
  8
0
  6
CONTINUOUS
 10
88.2250000310386326
 20
38.0499999980500121
 30
0.0
 11
88.2250000310386326
 21
24.0499999980500085
 31
0.0
  0
LINE
  5
40A
  8
0
  6
CONTINUOUS
 10
81.2250000310386469
 20
31.0499999980500192
 30
0.0
 11
95.2250000310386184
 21
31.0499999980500192
 31
0.0
  0
LINE
  5
411
  8
0
  6
CONTINUOUS
 10
69.1750000310386213
 20
38.0499999980500121
 30
0.0
 11
69.1750000310386213
 21
24.0499999980500085
 31
0.0
  0
LINE
  5
412
  8
0
  6
CONTINUOUS
 10
62.1750000310386284
 20
31.0499999980500192
 30
0.0
 11
76.1750000310386213
 21
31.0499999980500192
 31
0.0
  0
LINE
  5
419
  8
0
  6
CONTINUOUS
 10
50.1250000310386312
 20
38.0499999980500121
 30
0.0
 11
50.1250000310386312
 21
24.0499999980500085
 31
0.0
  0
LINE
  5
41A
  8
0
  6
CONTINUOUS
 10
43.125000031038617
 20
31.0499999980500192
 30
0.0
 11
57.1250000310386312
 21
31.0499999980500192
 31
0.0
  0
LINE
  5
421
  8
0
  6
CONTINUOUS
 10
31.0750000310386305
 20
38.0499999980500121
 30
0.0
 11
31.0750000310386305
 21
24.0499999980500085
 31
0.0
  0
LINE
  5
422
  8
0
  6
CONTINUOUS
 10
24.0750000310386412
 20
31.0499999980500192
 30
0.0
 11
38.075000031038627
 21
31.0499999980500192
 31
0.0
  0
LINE
  5
429
  8
0
  6
CONTINUOUS
 10
12.0250000310386298
 20
38.0499999980500121
 30
0.0
 11
12.0250000310386298
 21
24.0499999980500085
 31
0.0
  0
LINE
  5
42A
  8
0
  6
CONTINUOUS
 10
5.0250000310386334
 20
31.0499999980500192
 30
0.0
 11
19.0250000310386298
 21
31.0499999980500192
 31
0.0
  0
LINE
  5
431
  8
0
  6
CONTINUOUS
 10
12.0250000310386298
 20
18.9999999980500114
 30
0.0
 11
12.0250000310386298
 21
4.9999999980500069
 31
0.0
  0
LINE
  5
432
  8
0
  6
CONTINUOUS
 10
5.0250000310386334
 20
11.9999999980500096
 30
0.0
 11
19.0250000310386298
 21
11.9999999980500096
 31
0.0
  0
LINE
  5
439
  8
0
  6
CONTINUOUS
 10
31.0750000310386305
 20
18.9999999980500114
 30
0.0
 11
31.0750000310386305
 21
4.9999999980500069
 31
0.0
  0
LINE
  5
43A
  8
0
  6
CONTINUOUS
 10
24.0750000310386412
 20
11.9999999980500096
 30
0.0
 11
38.075000031038627
 21
11.9999999980500096
 31
0.0
  0
LINE
  5
441
  8
0
  6
CONTINUOUS
 10
50.1250000310386312
 20
18.9999999980500114
 30
0.0
 11
50.1250000310386312
 21
4.9999999980500069
 31
0.0
  0
LINE
  5
442
  8
0
  6
CONTINUOUS
 10
43.125000031038617
 20
11.9999999980500096
 30
0.0
 11
57.1250000310386312
 21
11.9999999980500096
 31
0.0
  0
LINE
  5
449
  8
0
  6
CONTINUOUS
 10
69.1750000310386213
 20
18.9999999980500114
 30
0.0
 11
69.1750000310386213
 21
4.9999999980500069
 31
0.0
  0
LINE
  5
44A
  8
0
  6
CONTINUOUS
 10
62.1750000310386284
 20
11.9999999980500096
 30
0.0
 11
76.1750000310386213
 21
11.9999999980500096
 31
0.0
  0
LINE
  5
451
  8
0
  6
CONTINUOUS
 10
88.2250000310386326
 20
18.9999999980500114
 30
0.0
 11
88.2250000310386326
 21
4.9999999980500069
 31
0.0
  0
LINE
  5
452
  8
0
  6
CONTINUOUS
 10
81.2250000310386469
 20
11.9999999980500096
 30
0.0
 11
95.2250000310386184
 21
11.9999999980500096
 31
0.0
  0
LINE
  5
459
  8
0
  6
CONTINUOUS
 10
107.2750000310386014
 20
18.9999999980500114
 30
0.0
 11
107.2750000310386014
 21
4.9999999980500069
 31
0.0
  0
LINE
  5
45A
  8
0
  6
CONTINUOUS
 10
100.2750000310386014
 20
11.9999999980500096
 30
0.0
 11
114.2750000310386014
 21
11.9999999980500096
 31
0.0
  0
LINE
  5
461
  8
0
  6
CONTINUOUS
 10
126.3250000310385985
 20
18.9999999980500114
 30
0.0
 11
126.3250000310385985
 21
4.9999999980500069
 31
0.0
  0
LINE
  5
462
  8
0
  6
CONTINUOUS
 10
119.3250000310385985
 20
11.9999999980500096
 30
0.0
 11
133.3250000310385985
 21
11.9999999980500096
 31
0.0
  0
LINE
  5
469
  8
0
  6
CONTINUOUS
 10
145.3750000310386099
 20
18.9999999980500114
 30
0.0
 11
145.3750000310386099
 21
4.9999999980500069
 31
0.0
  0
LINE
  5
46A
  8
0
  6
CONTINUOUS
 10
138.3750000310386099
 20
11.9999999980500096
 30
0.0
 11
152.3750000310386099
 21
11.9999999980500096
 31
0.0
  0
ENDSEC
  0
EOF
